FW_Gmkhi_028_transform.ufo
<glyph name="numbersign" format="1">
  <advance width="1082"/>
  <unicode hex="0023"/>
  <outline>
    <contour>
      <point x="213" y="0" type="line"/>
      <point x="246" y="0" type="line"/>
      <point x="305" y="221" type="line"/>
      <point x="305" y="221" type="line"/>
      <point x="385" y="522" type="line"/>
      <point x="385" y="522" type="line"/>
      <point x="442" y="739" type="line"/>
      <point x="410" y="739" type="line"/>
    </contour>
    <contour>
      <point x="934" y="231" type="line"/>
      <point x="718" y="231" type="line"/>
      <point x="718" y="231" type="line"/>
      <point x="288" y="231" type="line"/>
      <point x="288" y="231" type="line"/>
      <point x="80" y="231" type="line"/>
      <point x="80" y="211" type="line"/>
      <point x="934" y="211" type="line"/>
    </contour>
    <contour>
      <point x="146" y="511" type="line"/>
      <point x="362" y="511" type="line"/>
      <point x="362" y="511" type="line"/>
      <point x="791" y="511" type="line"/>
      <point x="791" y="511" type="line"/>
      <point x="999" y="511" type="line"/>
      <point x="999" y="531" type="line"/>
      <point x="146" y="531" type="line"/>
    </contour>
    <contour>
      <point x="866" y="739" type="line"/>
      <point x="834" y="739" type="line"/>
      <point x="775" y="517" type="line"/>
      <point x="775" y="517" type="line"/>
      <point x="694" y="216" type="line"/>
      <point x="694" y="216" type="line"/>
      <point x="638" y="0" type="line"/>
      <point x="670" y="0" type="line"/>
    </contour>
  </outline>
</glyph>
<glyph name="dollar" format="1">
  <advance width="1019"/>
  <unicode hex="0024"/>
  <outline>
    <contour>
      <point x="860" y="553" type="line"/>
      <point x="787" y="595"/>
      <point x="608" y="640"/>
      <point x="494" y="640" type="qcurve" smooth="yes"/>
      <point x="339" y="640"/>
      <point x="150" y="532"/>
      <point x="150" y="456" type="qcurve"/>
      <point x="150" y="456" type="line"/>
      <point x="150" y="377"/>
      <point x="331" y="293"/>
      <point x="506" y="270" type="qcurve"/>
      <point x="518" y="267" type="line"/>
      <point x="688" y="240"/>
      <point x="860" y="169"/>
      <point x="860" y="94" type="qcurve"/>
      <point x="860" y="94" type="line"/>
      <point x="860" y="21"/>
      <point x="687" y="-78"/>
      <point x="542" y="-78" type="qcurve"/>
      <point x="542" y="-78" type="line"/>
      <point x="427" y="-78"/>
      <point x="216" y="-20"/>
      <point x="134" y="32" type="qcurve"/>
      <point x="110" y="16" type="line"/>
      <point x="193" y="-36"/>
      <point x="420" y="-97"/>
      <point x="541" y="-97" type="qcurve" smooth="yes"/>
      <point x="703" y="-97"/>
      <point x="896" y="13"/>
      <point x="896" y="95" type="qcurve"/>
      <point x="896" y="95" type="line"/>
      <point x="896" y="177"/>
      <point x="701" y="262"/>
      <point x="514" y="289" type="qcurve"/>
      <point x="503" y="292" type="line"/>
      <point x="340" y="316"/>
      <point x="186" y="387"/>
      <point x="186" y="457" type="qcurve"/>
      <point x="186" y="457" type="line"/>
      <point x="186" y="524"/>
      <point x="354" y="621"/>
      <point x="494" y="621" type="qcurve"/>
      <point x="494" y="621" type="line"/>
      <point x="606" y="621"/>
      <point x="767" y="576"/>
      <point x="838" y="536" type="qcurve"/>
    </contour>
    <contour>
      <point x="494" y="286" type="line"/>
      <point x="494" y="-87" type="line"/>
      <point x="494" y="-87" type="line"/>
      <point x="494" y="-201" type="line"/>
      <point x="526" y="-201" type="line"/>
      <point x="526" y="-88" type="line"/>
      <point x="526" y="-88" type="line"/>
      <point x="526" y="281" type="line"/>
    </contour>
    <contour>
      <point x="526" y="271" type="line"/>
      <point x="526" y="632" type="line"/>
      <point x="526" y="632" type="line"/>
      <point x="526" y="702" type="line"/>
      <point x="494" y="702" type="line"/>
      <point x="494" y="632" type="line"/>
      <point x="494" y="632" type="line"/>
      <point x="494" y="276" type="line"/>
    </contour>
  </outline>
</glyph>
<glyph name="parenright" format="1">
  <advance width="539"/>
  <unicode hex="0029"/>
  <outline>
    <contour>
      <point x="115" y="-319" type="line"/>
      <point x="293" y="-226"/>
      <point x="430" y="-22"/>
      <point x="430" y="109" type="qcurve" smooth="yes"/>
      <point x="430" y="110" type="line" smooth="yes"/>
      <point x="430" y="240"/>
      <point x="279" y="451"/>
      <point x="115" y="536" type="qcurve"/>
      <point x="100" y="524" type="line"/>
      <point x="245" y="450"/>
      <point x="401" y="250"/>
      <point x="401" y="109" type="qcurve" smooth="yes"/>
      <point x="401" y="-44"/>
      <point x="245" y="-229"/>
      <point x="100" y="-306" type="qcurve"/>
    </contour>
  </outline>
</glyph>
<glyph name="asterisk" format="1">
  <advance width="761"/>
  <unicode hex="002A"/>
  <outline>
    <contour>
      <point x="367" y="743" type="line"/>
      <point x="394" y="743" type="line"/>
      <point x="392" y="766"/>
      <point x="390" y="810"/>
      <point x="389" y="833" type="qcurve"/>
      <point x="506" y="785" type="line"/>
      <point x="520" y="799" type="line"/>
      <point x="490" y="809"/>
      <point x="428" y="831"/>
      <point x="397" y="841" type="qcurve"/>
      <point x="521" y="884" type="line"/>
      <point x="507" y="898" type="line"/>
      <point x="479" y="886"/>
      <point x="418" y="863"/>
      <point x="389" y="851" type="qcurve"/>
      <point x="394" y="940" type="line"/>
      <point x="367" y="940" type="line"/>
      <point x="371" y="851" type="line"/>
      <point x="254" y="898" type="line"/>
      <point x="240" y="884" type="line"/>
      <point x="364" y="841" type="line"/>
      <point x="241" y="799" type="line"/>
      <point x="254" y="785" type="line"/>
      <point x="283" y="797"/>
      <point x="372" y="833"/>
      <point x="372" y="833" type="qcurve"/>
    </contour>
  </outline>
</glyph>
<glyph name="plus" format="1">
  <advance width="983"/>
  <unicode hex="002B"/>
  <outline>
    <contour>
      <point x="475" y="231" type="line"/>
      <point x="508" y="231" type="line"/>
      <point x="508" y="474" type="line"/>
      <point x="866" y="474" type="line"/>
      <point x="866" y="493" type="line"/>
      <point x="508" y="493" type="line"/>
      <point x="508" y="735" type="line"/>
      <point x="475" y="735" type="line"/>
      <point x="475" y="493" type="line"/>
      <point x="116" y="493" type="line"/>
      <point x="116" y="474" type="line"/>
      <point x="475" y="474" type="line"/>
    </contour>
  </outline>
</glyph>
<glyph name="hyphen" format="1">
  <advance width="553"/>
  <unicode hex="002D"/>
  <outline>
    <contour>
      <point x="438" y="431" type="line"/>
      <point x="111" y="431" type="line"/>
      <point x="113" y="412" type="line"/>
      <point x="438" y="412" type="line"/>
    </contour>
  </outline>
</glyph>
<glyph name="slash" format="1">
  <advance width="510"/>
  <unicode hex="002F"/>
  <outline>
    <contour>
      <point x="430" y="609" type="line"/>
      <point x="395" y="609" type="line"/>
      <point x="65" y="-84" type="line"/>
      <point x="98" y="-84" type="line"/>
    </contour>
  </outline>
</glyph>
<glyph name="two" format="1">
  <advance width="646"/>
  <unicode hex="0032"/>
  <outline>
    <contour>
      <point x="104" y="21" type="line"/>
      <point x="104" y="0" type="line"/>
      <point x="590" y="0" type="line"/>
      <point x="590" y="19" type="line"/>
      <point x="136" y="19" type="line"/>
    </contour>
    <contour>
      <point x="126" y="10" type="line"/>
      <point x="301" y="112" type="line" smooth="yes"/>
      <point x="448" y="192"/>
      <point x="578" y="302"/>
      <point x="578" y="344" type="qcurve" smooth="yes"/>
      <point x="578" y="406"/>
      <point x="466" y="474"/>
      <point x="360" y="474" type="qcurve" smooth="yes"/>
      <point x="293" y="474"/>
      <point x="166" y="442"/>
      <point x="106" y="415" type="qcurve"/>
      <point x="122" y="401" type="line"/>
      <point x="174" y="424"/>
      <point x="294" y="455"/>
      <point x="355" y="455" type="qcurve" smooth="yes"/>
      <point x="450" y="455"/>
      <point x="550" y="393"/>
      <point x="550" y="344" type="qcurve" smooth="yes"/>
      <point x="550" y="308"/>
      <point x="429" y="207"/>
      <point x="281" y="125" type="qcurve" smooth="yes"/>
      <point x="104" y="21" type="line"/>
    </contour>
  </outline>
</glyph>
<glyph name="three" format="1">
  <advance width="658"/>
  <unicode hex="0033"/>
  <outline>
    <contour>
      <point x="442" y="-4"/>
      <point x="582" y="64"/>
      <point x="582" y="120" type="qcurve" smooth="yes"/>
      <point x="582" y="156"/>
      <point x="506" y="228"/>
      <point x="390" y="252" type="qcurve"/>
      <point x="390" y="248" type="line"/>
      <point x="474" y="262"/>
      <point x="562" y="329"/>
      <point x="562" y="369" type="qcurve" smooth="yes"/>
      <point x="562" y="414"/>
      <point x="454" y="473"/>
      <point x="339" y="473" type="qcurve" smooth="yes"/>
      <point x="262" y="473"/>
      <point x="131" y="442"/>
      <point x="84" y="421" type="qcurve"/>
      <point x="98" y="403" type="line"/>
      <point x="148" y="427"/>
      <point x="276" y="454"/>
      <point x="342" y="454" type="qcurve" smooth="yes"/>
      <point x="443" y="454"/>
      <point x="534" y="402"/>
      <point x="534" y="369" type="qcurve" smooth="yes"/>
      <point x="534" y="325"/>
      <point x="404" y="257"/>
      <point x="322" y="257" type="qcurve" smooth="yes"/>
      <point x="204" y="257" type="line"/>
      <point x="204" y="239" type="line"/>
      <point x="322" y="239" type="line" smooth="yes"/>
      <point x="423" y="239"/>
      <point x="554" y="164"/>
      <point x="554" y="120" type="qcurve" smooth="yes"/>
      <point x="554" y="73"/>
      <point x="438" y="15"/>
      <point x="334" y="15" type="qcurve" smooth="yes"/>
      <point x="274" y="15"/>
      <point x="148" y="40"/>
      <point x="86" y="64" type="qcurve"/>
      <point x="72" y="48" type="line"/>
      <point x="129" y="26"/>
      <point x="261" y="-4"/>
      <point x="333" y="-4" type="qcurve" smooth="yes"/>
    </contour>
  </outline>
</glyph>
<glyph name="seven" format="1">
  <advance width="644.0"/>
  <unicode hex="0037"/>
  <outline>
    <contour>
      <point x="578" y="473" type="line"/>
      <point x="555" y="473" type="line"/>
      <point x="212" y="0" type="line"/>
      <point x="249" y="0" type="line"/>
      <point x="578" y="458" type="line"/>
    </contour>
    <contour>
      <point x="578" y="473" type="line"/>
      <point x="81" y="473" type="line"/>
      <point x="81" y="454" type="line"/>
      <point x="565" y="454" type="line"/>
    </contour>
  </outline>
</glyph>
<glyph name="less" format="1">
  <advance width="983"/>
  <unicode hex="003C"/>
  <outline>
    <contour>
      <point x="847" y="229" type="line"/>
      <point x="847" y="253" type="line"/>
      <point x="146" y="482" type="line"/>
      <point x="847" y="711" type="line"/>
      <point x="847" y="735" type="line"/>
      <point x="94" y="488" type="line"/>
      <point x="94" y="477" type="line"/>
    </contour>
  </outline>
</glyph>
<glyph name="greater" format="1">
  <advance width="983"/>
  <unicode hex="003E"/>
  <outline>
    <contour>
      <point x="136" y="229" type="line"/>
      <point x="890" y="477" type="line"/>
      <point x="890" y="488" type="line"/>
      <point x="136" y="735" type="line"/>
      <point x="136" y="711" type="line"/>
      <point x="838" y="482" type="line"/>
      <point x="136" y="253" type="line"/>
    </contour>
  </outline>
</glyph>
<glyph name="bracketleft" format="1">
  <advance width="539"/>
  <unicode hex="005B"/>
  <outline>
    <contour>
      <point x="444" y="-308" type="line"/>
      <point x="444" y="-289" type="line"/>
      <point x="276" y="-289" type="line"/>
      <point x="276" y="518" type="line"/>
      <point x="444" y="518" type="line"/>
      <point x="444" y="536" type="line"/>
      <point x="249" y="536" type="line"/>
      <point x="249" y="-308" type="line"/>
    </contour>
  </outline>
</glyph>
<glyph name="underscore" format="1">
  <advance width="759"/>
  <unicode hex="005F"/>
  <outline>
    <contour>
      <point x="757" y="-187" type="line"/>
      <point x="-1" y="-187" type="line"/>
      <point x="1" y="-206" type="line"/>
      <point x="757" y="-206" type="line"/>
    </contour>
  </outline>
</glyph>
<glyph name="cent" format="1">
  <advance width="919"/>
  <unicode hex="00A2"/>
  <outline>
    <contour>
      <point x="635" y="92"/>
      <point x="802" y="150"/>
      <point x="863" y="197" type="qcurve"/>
      <point x="841" y="209" type="line"/>
      <point x="784" y="168"/>
      <point x="627" y="112"/>
      <point x="524" y="112" type="qcurve" smooth="yes"/>
      <point x="362" y="112"/>
      <point x="146" y="267"/>
      <point x="146" y="370" type="qcurve" smooth="yes"/>
      <point x="146" y="370" type="line"/>
      <point x="146" y="472"/>
      <point x="368" y="625"/>
      <point x="530" y="625" type="qcurve" smooth="yes"/>
      <point x="635" y="625"/>
      <point x="783" y="568"/>
      <point x="835" y="532" type="qcurve"/>
      <point x="858" y="547" type="line"/>
      <point x="801" y="586"/>
      <point x="646" y="645"/>
      <point x="531" y="645" type="qcurve" smooth="yes"/>
      <point x="356" y="645"/>
      <point x="111" y="480"/>
      <point x="111" y="369" type="qcurve" smooth="yes"/>
      <point x="111" y="369" type="line"/>
      <point x="111" y="258"/>
      <point x="346" y="92"/>
      <point x="522" y="92" type="qcurve" smooth="yes"/>
    </contour>
    <contour>
      <point x="380" y="-12" type="line"/>
      <point x="411" y="-12" type="line"/>
      <point x="449" y="112" type="line"/>
      <point x="449" y="112" type="line"/>
      <point x="419" y="118" type="line"/>
      <point x="419" y="118" type="line"/>
    </contour>
    <contour>
      <point x="641" y="739" type="line"/>
      <point x="608" y="739" type="line"/>
      <point x="577" y="635" type="line"/>
      <point x="577" y="635" type="line"/>
      <point x="416" y="106" type="line"/>
      <point x="446" y="102" type="line"/>
      <point x="608" y="631" type="line"/>
      <point x="608" y="631" type="line"/>
    </contour>
  </outline>
</glyph>
<glyph name="yen" format="1">
  <advance width="1011"/>
  <unicode hex="00A5"/>
  <outline>
    <contour>
      <point x="488" y="0" type="line"/>
      <point x="524" y="0" type="line"/>
      <point x="524" y="309" type="line"/>
      <point x="975" y="739" type="line"/>
      <point x="932" y="739" type="line"/>
      <point x="508" y="329" type="line"/>
      <point x="82" y="739" type="line"/>
      <point x="36" y="739" type="line"/>
      <point x="488" y="309" type="line"/>
    </contour>
    <contour>
      <point x="150" y="306" type="line"/>
      <point x="860" y="306" type="line"/>
      <point x="860" y="327" type="line"/>
      <point x="150" y="327" type="line"/>
    </contour>
    <contour>
      <point x="150" y="127" type="line"/>
      <point x="860" y="127" type="line"/>
      <point x="860" y="148" type="line"/>
      <point x="150" y="148" type="line"/>
    </contour>
  </outline>
</glyph>
<glyph name="copyright" format="1">
  <advance width="1061"/>
  <unicode hex="00A9"/>
  <outline>
    <contour>
      <point x="718" y="-98"/>
      <point x="982" y="72"/>
      <point x="982" y="191" type="qcurve" smooth="yes"/>
      <point x="982" y="192" type="line" smooth="yes"/>
      <point x="982" y="311"/>
      <point x="718" y="481"/>
      <point x="532" y="481" type="qcurve" smooth="yes"/>
      <point x="348" y="481"/>
      <point x="83" y="311"/>
      <point x="83" y="192" type="qcurve" smooth="yes"/>
      <point x="83" y="191" type="line" smooth="yes"/>
      <point x="83" y="72"/>
      <point x="348" y="-98"/>
      <point x="532" y="-98" type="qcurve" smooth="yes"/>
    </contour>
    <contour>
      <point x="357" y="-79"/>
      <point x="112" y="78"/>
      <point x="112" y="191" type="qcurve" smooth="yes"/>
      <point x="112" y="192" type="line" smooth="yes"/>
      <point x="112" y="305"/>
      <point x="357" y="462"/>
      <point x="532" y="462" type="qcurve" smooth="yes"/>
      <point x="708" y="462"/>
      <point x="954" y="305"/>
      <point x="954" y="192" type="qcurve" smooth="yes"/>
      <point x="954" y="191" type="line" smooth="yes"/>
      <point x="954" y="78"/>
      <point x="708" y="-79"/>
      <point x="532" y="-79" type="qcurve" smooth="yes"/>
    </contour>
    <contour>
      <point x="607" y="45"/>
      <point x="690" y="72"/>
      <point x="727" y="87" type="qcurve"/>
      <point x="712" y="103" type="line"/>
      <point x="678" y="89"/>
      <point x="601" y="63"/>
      <point x="543" y="63" type="qcurve" smooth="yes"/>
      <point x="457" y="63"/>
      <point x="346" y="139"/>
      <point x="346" y="194" type="qcurve"/>
      <point x="345" y="195"/>
      <point x="345" y="195"/>
      <point x="346" y="196" type="qcurve"/>
      <point x="346" y="248"/>
      <point x="444" y="325"/>
      <point x="534" y="325" type="qcurve" smooth="yes"/>
      <point x="586" y="325"/>
      <point x="660" y="309"/>
      <point x="693" y="297" type="qcurve"/>
      <point x="703" y="315" type="line"/>
      <point x="667" y="326"/>
      <point x="594" y="343"/>
      <point x="534" y="343" type="qcurve" smooth="yes"/>
      <point x="435" y="343"/>
      <point x="318" y="256"/>
      <point x="318" y="195" type="qcurve" smooth="yes"/>
      <point x="318" y="193" type="line" smooth="yes"/>
      <point x="318" y="134"/>
      <point x="445" y="45"/>
      <point x="541" y="45" type="qcurve" smooth="yes"/>
    </contour>
  </outline>
</glyph>
<glyph name="plusminus" format="1">
  <advance width="983"/>
  <unicode hex="00B1"/>
  <outline>
    <contour>
      <point x="866" y="393" type="line"/>
      <point x="866" y="413" type="line"/>
      <point x="508" y="413" type="line"/>
      <point x="508" y="637" type="line"/>
      <point x="475" y="637" type="line"/>
      <point x="475" y="413" type="line"/>
      <point x="116" y="413" type="line"/>
      <point x="116" y="393" type="line"/>
      <point x="475" y="393" type="line"/>
      <point x="475" y="169" type="line"/>
      <point x="508" y="169" type="line"/>
      <point x="508" y="393" type="line"/>
    </contour>
    <contour>
      <point x="866" y="0" type="line"/>
      <point x="866" y="19" type="line"/>
      <point x="116" y="19" type="line"/>
      <point x="116" y="0" type="line"/>
    </contour>
  </outline>
</glyph>
<glyph name="multiply" format="1">
  <advance width="983"/>
  <unicode hex="00D7"/>
  <outline>
    <contour>
      <point x="805" y="299" type="line"/>
      <point x="829" y="315" type="line"/>
      <point x="513" y="517" type="line"/>
      <point x="829" y="720" type="line"/>
      <point x="808" y="734" type="line"/>
      <point x="493" y="530" type="line"/>
      <point x="178" y="734" type="line"/>
      <point x="154" y="718" type="line"/>
      <point x="470" y="515" type="line"/>
      <point x="154" y="313" type="line"/>
      <point x="175" y="299" type="line"/>
      <point x="490" y="502" type="line"/>
    </contour>
  </outline>
</glyph>
<glyph name="uni0965" format="1">
  <advance width="905"/>
  <unicode hex="0965"/>
  <outline>
    <contour>
      <point x="415" y="489" type="line"/>
      <point x="415" y="-110" type="line"/>
      <point x="445" y="-110" type="line"/>
      <point x="445" y="489" type="line"/>
    </contour>
    <contour>
      <point x="674" y="489" type="line"/>
      <point x="674" y="-110" type="line"/>
      <point x="703" y="-110" type="line"/>
      <point x="703" y="489" type="line"/>
    </contour>
  </outline>
</glyph>
<glyph name="uni0A01" format="1">
  <advance width="6"/>
  <unicode hex="0A01"/>
  <outline>
    <contour>
      <point x="-207" y="1140"/>
      <point x="-89" y="1232"/>
      <point x="-78" y="1296" type="qcurve"/>
      <point x="-106" y="1304" type="line"/>
      <point x="-109" y="1246"/>
      <point x="-217" y="1159"/>
      <point x="-306" y="1159" type="qcurve" smooth="yes"/>
      <point x="-393" y="1159"/>
      <point x="-496" y="1238"/>
      <point x="-505" y="1304" type="qcurve"/>
      <point x="-533" y="1296" type="line"/>
      <point x="-521" y="1223"/>
      <point x="-393" y="1140"/>
      <point x="-303" y="1140" type="qcurve" smooth="yes"/>
    </contour>
    <component base="uni0A3C" xOffset="716" yOffset="1345"/>
  </outline>
</glyph>
<glyph name="uni0A02" format="1">
  <advance width="3"/>
  <unicode hex="0A02"/>
  <outline>
    <contour>
      <point x="-53" y="1145" type="line"/>
      <point x="-17" y="1145" type="line"/>
      <point x="-17" y="1201" type="line"/>
      <point x="-53" y="1201" type="line"/>
    </contour>
  </outline>
</glyph>
<glyph name="uni0A03" format="1">
  <advance width="-6"/>
  <unicode hex="0A03"/>
  <outline>
    <contour>
      <point x="-360" y="401"/>
      <point x="-296" y="361"/>
      <point x="-251" y="361" type="qcurve" smooth="yes"/>
      <point x="-205" y="361"/>
      <point x="-139" y="401"/>
      <point x="-139" y="428" type="qcurve" smooth="yes"/>
      <point x="-139" y="458"/>
      <point x="-203" y="499"/>
      <point x="-251" y="499" type="qcurve" smooth="yes"/>
      <point x="-298" y="499"/>
      <point x="-360" y="458"/>
      <point x="-360" y="428" type="qcurve" smooth="yes"/>
    </contour>
    <contour>
      <point x="-333" y="452"/>
      <point x="-285" y="482"/>
      <point x="-251" y="482" type="qcurve" smooth="yes"/>
      <point x="-217" y="482"/>
      <point x="-167" y="452"/>
      <point x="-167" y="429" type="qcurve" smooth="yes"/>
      <point x="-167" y="408"/>
      <point x="-217" y="379"/>
      <point x="-251" y="379" type="qcurve" smooth="yes"/>
      <point x="-285" y="379"/>
      <point x="-333" y="408"/>
      <point x="-333" y="429" type="qcurve" smooth="yes"/>
    </contour>
    <contour>
      <point x="-360" y="135"/>
      <point x="-296" y="96"/>
      <point x="-251" y="96" type="qcurve" smooth="yes"/>
      <point x="-205" y="96"/>
      <point x="-139" y="135"/>
      <point x="-139" y="163" type="qcurve" smooth="yes"/>
      <point x="-139" y="193"/>
      <point x="-203" y="234"/>
      <point x="-251" y="234" type="qcurve" smooth="yes"/>
      <point x="-298" y="234"/>
      <point x="-360" y="193"/>
      <point x="-360" y="163" type="qcurve" smooth="yes"/>
    </contour>
    <contour>
      <point x="-333" y="186"/>
      <point x="-285" y="215"/>
      <point x="-251" y="215" type="qcurve" smooth="yes"/>
      <point x="-217" y="215"/>
      <point x="-167" y="186"/>
      <point x="-167" y="164" type="qcurve" smooth="yes"/>
      <point x="-167" y="142"/>
      <point x="-217" y="113"/>
      <point x="-251" y="113" type="qcurve" smooth="yes"/>
      <point x="-285" y="113"/>
      <point x="-333" y="142"/>
      <point x="-333" y="164" type="qcurve" smooth="yes"/>
    </contour>
  </outline>
</glyph>
<glyph name="uni0A08" format="1">
  <advance width="1267"/>
  <unicode hex="0A08"/>
  <outline>
    <component base="uni0A72" xOffset="7"/>
    <component base="uni0A40" xOffset="1112"/>
    <contour>
      <point x="1768" y="1248" type="move" name="mark0"/>
    </contour>
  </outline>
</glyph>
<glyph name="uni0A0A" format="1">
  <advance width="1046"/>
  <unicode hex="0A0A"/>
  <outline>
    <component base="uni0A73" xOffset="19"/>
    <component base="uni0A42" xOffset="1216"/>
    <contour>
      <point x="1567" y="1248" type="move" name="mark0"/>
    </contour>
  </outline>
</glyph>
<glyph name="uni0A14" format="1">
  <advance width="1082"/>
  <unicode hex="0A14"/>
  <outline>
    <contour>
      <point x="894" y="492" type="line"/>
      <point x="866" y="492" type="line"/>
      <point x="866" y="0" type="line"/>
      <point x="894" y="0" type="line"/>
    </contour>
    <contour>
      <point x="1082" y="474" type="line"/>
      <point x="1082" y="492" type="line"/>
      <point x="866" y="492" type="line"/>
      <point x="866" y="474" type="line"/>
    </contour>
    <contour>
      <point x="562" y="148" type="line"/>
      <point x="602" y="184"/>
      <point x="624" y="340"/>
      <point x="602" y="402" type="qcurve"/>
      <point x="535" y="406"/>
      <point x="326" y="344"/>
      <point x="258" y="291" type="qcurve"/>
      <point x="265" y="286" type="line"/>
      <point x="267" y="338"/>
      <point x="233" y="432"/>
      <point x="197" y="455" type="qcurve" smooth="yes"/>
      <point x="165" y="476"/>
      <point x="77" y="492"/>
      <point x="34" y="492" type="qcurve" smooth="yes"/>
      <point x="9" y="492" type="line"/>
      <point x="3" y="474" type="line"/>
      <point x="25" y="474" type="line" smooth="yes"/>
      <point x="85" y="474"/>
      <point x="153" y="457"/>
      <point x="172" y="445" type="qcurve" smooth="yes"/>
      <point x="209" y="421"/>
      <point x="240" y="326"/>
      <point x="238" y="277" type="qcurve"/>
      <point x="122" y="189" type="line"/>
      <point x="157" y="178" type="line"/>
      <point x="276" y="278" type="line"/>
      <point x="328" y="324"/>
      <point x="528" y="387"/>
      <point x="597" y="381" type="qcurve"/>
      <point x="582" y="392" type="line"/>
      <point x="592" y="332"/>
      <point x="573" y="189"/>
      <point x="528" y="141" type="qcurve"/>
      <point x="431" y="64" type="line"/>
      <point x="466" y="53" type="line"/>
      <point x="541" y="118" type="line"/>
      <point x="598" y="163"/>
      <point x="774" y="202"/>
      <point x="882" y="202" type="qcurve" smooth="yes"/>
      <point x="887" y="202" type="line"/>
      <point x="887" y="222" type="line"/>
      <point x="878" y="222" type="line" smooth="yes"/>
      <point x="794" y="222"/>
      <point x="624" y="193"/>
      <point x="552" y="151" type="qcurve"/>
    </contour>
    <component base="uni0A4C" xOffset="1418"/>
    <contour>
      <point x="1698" y="1248" type="move" name="mark0"/>
    </contour>
  </outline>
</glyph>
<glyph name="uni0A16" format="1">
  <advance width="915"/>
  <unicode hex="0A16"/>
  <outline>
    <contour>
      <point x="724" y="307" type="line"/>
      <point x="213" y="307" type="line"/>
      <point x="213" y="288" type="line"/>
      <point x="724" y="288" type="line"/>
    </contour>
    <contour>
      <point x="728" y="492" type="line"/>
      <point x="700" y="492" type="line"/>
      <point x="700" y="0" type="line"/>
      <point x="728" y="0" type="line"/>
    </contour>
    <contour>
      <point x="915" y="474" type="line"/>
      <point x="915" y="492" type="line"/>
      <point x="702" y="492" type="line"/>
      <point x="702" y="474" type="line"/>
    </contour>
    <contour>
      <point x="166" y="492" type="line"/>
      <point x="174" y="460"/>
      <point x="205" y="318"/>
      <point x="206" y="306" type="qcurve"/>
      <point x="206" y="288"/>
      <point x="170" y="179"/>
      <point x="157" y="143" type="qcurve"/>
      <point x="206" y="108"/>
      <point x="376" y="64"/>
      <point x="456" y="64" type="qcurve"/>
      <point x="457" y="64" type="line"/>
      <point x="528" y="64"/>
      <point x="655" y="78"/>
      <point x="700" y="88" type="qcurve" smooth="yes"/>
      <point x="724" y="93" type="line"/>
      <point x="724" y="112" type="line"/>
      <point x="700" y="107" type="line" smooth="yes"/>
      <point x="647" y="96"/>
      <point x="527" y="82"/>
      <point x="457" y="82" type="qcurve"/>
      <point x="456" y="82" type="line"/>
      <point x="389" y="82"/>
      <point x="228" y="122"/>
      <point x="182" y="154" type="qcurve"/>
      <point x="187" y="141" type="line"/>
      <point x="198" y="174"/>
      <point x="235" y="285"/>
      <point x="235" y="302" type="qcurve"/>
      <point x="233" y="320"/>
      <point x="198" y="479"/>
      <point x="195" y="492" type="qcurve"/>
    </contour>
    <contour>
      <point x="196" y="474" type="line"/>
      <point x="193" y="492" type="line"/>
      <point x="0" y="492" type="line"/>
      <point x="0" y="474" type="line"/>
    </contour>
  </outline>
</glyph>
<glyph name="uni0A17" format="1">
  <advance width="1066"/>
  <unicode hex="0A17"/>
  <outline>
    <contour>
      <point x="1066" y="474" type="line"/>
      <point x="1066" y="492" type="line"/>
      <point x="0" y="492" type="line"/>
      <point x="0" y="474" type="line"/>
    </contour>
    <contour>
      <point x="546" y="314" type="line"/>
      <point x="269" y="314" type="line" smooth="yes"/>
      <point x="169" y="314"/>
      <point x="76" y="263"/>
      <point x="76" y="225" type="qcurve"/>
      <point x="76" y="224" type="line"/>
      <point x="76" y="149"/>
      <point x="300" y="8"/>
      <point x="405" y="8" type="qcurve"/>
      <point x="406" y="8" type="line"/>
      <point x="469" y="8"/>
      <point x="550" y="62"/>
      <point x="550" y="122" type="qcurve" smooth="yes"/>
      <point x="550" y="489" type="line"/>
      <point x="522" y="489" type="line"/>
      <point x="522" y="124" type="line" smooth="yes"/>
      <point x="522" y="73"/>
      <point x="459" y="26"/>
      <point x="408" y="26" type="qcurve"/>
      <point x="407" y="26" type="line"/>
      <point x="314" y="26"/>
      <point x="106" y="157"/>
      <point x="106" y="224" type="qcurve"/>
      <point x="106" y="224" type="line"/>
      <point x="106" y="256"/>
      <point x="184" y="295"/>
      <point x="272" y="295" type="qcurve" smooth="yes"/>
      <point x="546" y="295" type="line"/>
    </contour>
    <contour>
      <point x="878" y="492" type="line"/>
      <point x="850" y="492" type="line"/>
      <point x="850" y="0" type="line"/>
      <point x="878" y="0" type="line"/>
    </contour>
  </outline>
</glyph>
<glyph name="uni0A22" format="1">
  <advance width="909"/>
  <unicode hex="0A22"/>
  <outline>
    <contour>
      <point x="171" y="279" type="line" smooth="yes"/>
      <point x="220" y="137"/>
      <point x="469" y="15"/>
      <point x="615" y="15" type="qcurve" smooth="yes"/>
      <point x="707" y="15"/>
      <point x="801" y="70"/>
      <point x="801" y="111" type="qcurve" smooth="yes"/>
      <point x="801" y="138"/>
      <point x="725" y="190"/>
      <point x="653" y="190" type="qcurve" smooth="yes"/>
      <point x="576" y="190"/>
      <point x="439" y="131"/>
      <point x="382" y="80" type="qcurve" smooth="yes"/>
      <point x="367" y="67" type="line"/>
      <point x="394" y="57" type="line"/>
      <point x="408" y="70" type="line" smooth="yes"/>
      <point x="458" y="118"/>
      <point x="582" y="171"/>
      <point x="649" y="171" type="qcurve" smooth="yes"/>
      <point x="714" y="171"/>
      <point x="772" y="131"/>
      <point x="772" y="109" type="qcurve" smooth="yes"/>
      <point x="772" y="78"/>
      <point x="694" y="34"/>
      <point x="614" y="34" type="qcurve" smooth="yes"/>
      <point x="469" y="34"/>
      <point x="241" y="155"/>
      <point x="198" y="287" type="qcurve" smooth="yes"/>
      <point x="163" y="396" type="line"/>
      <point x="133" y="390" type="line"/>
    </contour>
    <contour>
      <point x="909" y="481" type="line"/>
      <point x="909" y="500" type="line"/>
      <point x="0" y="500" type="line"/>
      <point x="0" y="481" type="line"/>
    </contour>
    <contour>
      <point x="694" y="300" type="line"/>
      <point x="722" y="300" type="line"/>
      <point x="722" y="498" type="line"/>
      <point x="694" y="498" type="line"/>
    </contour>
    <contour>
      <point x="722" y="295" type="line"/>
      <point x="722" y="314" type="line"/>
      <point x="182" y="314" type="line"/>
      <point x="182" y="295" type="line"/>
    </contour>
  </outline>
</glyph>
<glyph name="uni0A23" format="1">
  <advance width="858"/>
  <unicode hex="0A23"/>
  <outline>
    <contour>
      <point x="517" y="207" type="line"/>
      <point x="517" y="226" type="line"/>
      <point x="470" y="226" type="line" smooth="yes"/>
      <point x="358" y="226"/>
      <point x="201" y="164"/>
      <point x="156" y="132" type="qcurve"/>
      <point x="196" y="82"/>
      <point x="408" y="15"/>
      <point x="482" y="15" type="qcurve" smooth="yes"/>
      <point x="546" y="15"/>
      <point x="672" y="51"/>
      <point x="715" y="68" type="qcurve"/>
      <point x="707" y="85" type="line"/>
      <point x="669" y="67"/>
      <point x="531" y="34"/>
      <point x="486" y="34" type="qcurve" smooth="yes"/>
      <point x="411" y="34"/>
      <point x="224" y="94"/>
      <point x="186" y="136" type="qcurve"/>
      <point x="186" y="121" type="line"/>
      <point x="211" y="144"/>
      <point x="362" y="207"/>
      <point x="473" y="207" type="qcurve" smooth="yes"/>
    </contour>
    <contour>
      <point x="493" y="207" type="line"/>
      <point x="522" y="207" type="line"/>
      <point x="522" y="340" type="line"/>
      <point x="493" y="340" type="line"/>
    </contour>
    <contour>
      <point x="858" y="481" type="line"/>
      <point x="858" y="500" type="line"/>
      <point x="-22" y="500" type="line"/>
      <point x="-22" y="481" type="line"/>
    </contour>
    <contour>
      <point x="250" y="499" type="line"/>
      <point x="217" y="499" type="line"/>
      <point x="229" y="482" type="line" smooth="yes"/>
      <point x="270" y="424"/>
      <point x="496" y="321"/>
      <point x="673" y="285" type="qcurve" smooth="yes"/>
      <point x="751" y="271" type="line"/>
      <point x="758" y="289" type="line"/>
      <point x="679" y="303" type="line" smooth="yes"/>
      <point x="519" y="336"/>
      <point x="296" y="433"/>
      <point x="262" y="482" type="qcurve" smooth="yes"/>
    </contour>
  </outline>
</glyph>
<glyph name="uni0A24" format="1">
  <advance width="909"/>
  <unicode hex="0A24"/>
  <outline>
    <contour>
      <point x="702" y="500" type="line"/>
      <point x="702" y="446" type="line" smooth="yes"/>
      <point x="702" y="363"/>
      <point x="552" y="283"/>
      <point x="400" y="283" type="qcurve" smooth="yes"/>
      <point x="258" y="283" type="line"/>
      <point x="264" y="264" type="line"/>
      <point x="456" y="264" type="line" smooth="yes"/>
      <point x="584" y="264"/>
      <point x="726" y="190"/>
      <point x="726" y="147" type="qcurve" smooth="yes"/>
      <point x="726" y="101"/>
      <point x="609" y="34"/>
      <point x="499" y="34" type="qcurve" smooth="yes"/>
      <point x="429" y="34"/>
      <point x="244" y="65"/>
      <point x="150" y="106" type="qcurve"/>
      <point x="142" y="87" type="line"/>
      <point x="223" y="53"/>
      <point x="409" y="15"/>
      <point x="497" y="15" type="qcurve" smooth="yes"/>
      <point x="621" y="15"/>
      <point x="754" y="96"/>
      <point x="754" y="146" type="qcurve" smooth="yes"/>
      <point x="754" y="193"/>
      <point x="631" y="268"/>
      <point x="514" y="280" type="qcurve"/>
      <point x="514" y="271" type="line"/>
      <point x="618" y="289"/>
      <point x="730" y="371"/>
      <point x="730" y="462" type="qcurve" smooth="yes"/>
      <point x="730" y="500" type="line"/>
    </contour>
    <contour>
      <point x="908" y="481" type="line"/>
      <point x="908" y="500" type="line"/>
      <point x="0" y="500" type="line"/>
      <point x="0" y="481" type="line"/>
    </contour>
  </outline>
</glyph>
<glyph name="uni0A28" format="1">
  <advance width="950"/>
  <unicode hex="0A28"/>
  <outline>
    <contour>
      <point x="987" y="481" type="line"/>
      <point x="987" y="499" type="line"/>
      <point x="-42" y="499" type="line"/>
      <point x="-42" y="481" type="line"/>
    </contour>
    <contour>
      <point x="486" y="499" type="line"/>
      <point x="458" y="499" type="line"/>
      <point x="458" y="352" type="line"/>
      <point x="486" y="352" type="line"/>
    </contour>
    <contour>
      <point x="802" y="197"/>
      <point x="662" y="305"/>
      <point x="482" y="361" type="qcurve"/>
      <point x="465" y="361" type="line"/>
      <point x="289" y="307"/>
      <point x="146" y="195"/>
      <point x="146" y="154" type="qcurve" smooth="yes"/>
      <point x="146" y="118"/>
      <point x="231" y="43"/>
      <point x="303" y="22" type="qcurve" smooth="yes"/>
      <point x="330" y="14" type="line"/>
      <point x="335" y="33" type="line"/>
      <point x="311" y="39" type="line" smooth="yes"/>
      <point x="253" y="54"/>
      <point x="174" y="119"/>
      <point x="174" y="154" type="qcurve" smooth="yes"/>
      <point x="174" y="196"/>
      <point x="328" y="301"/>
      <point x="473" y="343" type="qcurve"/>
      <point x="636" y="293"/>
      <point x="773" y="196"/>
      <point x="773" y="153" type="qcurve" smooth="yes"/>
      <point x="773" y="119"/>
      <point x="696" y="59"/>
      <point x="629" y="37" type="qcurve" smooth="yes"/>
      <point x="613" y="32" type="line"/>
      <point x="622" y="14" type="line"/>
      <point x="642" y="21" type="line" smooth="yes"/>
      <point x="718" y="47"/>
      <point x="802" y="116"/>
      <point x="802" y="154" type="qcurve" smooth="yes"/>
    </contour>
  </outline>
</glyph>
<glyph name="uni0A2B" format="1">
  <advance width="867"/>
  <unicode hex="0A2B"/>
  <outline>
    <contour>
      <point x="307" y="70" type="line"/>
      <point x="319" y="81" type="line" smooth="yes"/>
      <point x="374" y="133"/>
      <point x="511" y="187"/>
      <point x="570" y="187" type="qcurve" smooth="yes"/>
      <point x="571" y="187" type="line"/>
      <point x="642" y="187"/>
      <point x="714" y="141"/>
      <point x="714" y="113" type="qcurve" smooth="yes"/>
      <point x="714" y="113" type="line"/>
      <point x="714" y="78"/>
      <point x="632" y="34"/>
      <point x="560" y="34" type="qcurve" smooth="yes"/>
      <point x="559" y="34" type="line"/>
      <point x="407" y="34"/>
      <point x="164" y="161"/>
      <point x="164" y="237" type="qcurve" smooth="yes"/>
      <point x="164" y="238" type="line" smooth="yes"/>
      <point x="164" y="279"/>
      <point x="251" y="332"/>
      <point x="342" y="332" type="qcurve" smooth="yes"/>
      <point x="676" y="332" type="line"/>
      <point x="676" y="350" type="line"/>
      <point x="334" y="350" type="line" smooth="yes"/>
      <point x="233" y="350"/>
      <point x="134" y="288"/>
      <point x="134" y="242" type="qcurve" smooth="yes"/>
      <point x="134" y="241" type="line" smooth="yes"/>
      <point x="134" y="149"/>
      <point x="400" y="15"/>
      <point x="557" y="15" type="qcurve" smooth="yes"/>
      <point x="558" y="15" type="line"/>
      <point x="650" y="15"/>
      <point x="742" y="73"/>
      <point x="742" y="113" type="qcurve" smooth="yes"/>
      <point x="742" y="114" type="line"/>
      <point x="742" y="148"/>
      <point x="658" y="206"/>
      <point x="572" y="206" type="qcurve" smooth="yes"/>
      <point x="571" y="206" type="line"/>
      <point x="498" y="206"/>
      <point x="354" y="145"/>
      <point x="295" y="93" type="qcurve" smooth="yes"/>
      <point x="282" y="81" type="line"/>
    </contour>
    <contour>
      <point x="867" y="481" type="line"/>
      <point x="867" y="500" type="line"/>
      <point x="0" y="500" type="line"/>
      <point x="0" y="481" type="line"/>
    </contour>
    <contour>
      <point x="652" y="332" type="line"/>
      <point x="680" y="332" type="line"/>
      <point x="680" y="497" type="line"/>
      <point x="652" y="497" type="line"/>
    </contour>
  </outline>
</glyph>
<glyph name="uni0A2C" format="1">
  <advance width="910"/>
  <unicode hex="0A2C"/>
  <outline>
    <contour>
      <point x="153" y="488" type="line"/>
      <point x="124" y="488" type="line"/>
      <point x="128" y="474" type="line" smooth="yes"/>
      <point x="149" y="403"/>
      <point x="311" y="286"/>
      <point x="452" y="274" type="qcurve"/>
      <point x="452" y="283" type="line"/>
      <point x="351" y="275"/>
      <point x="171" y="206"/>
      <point x="121" y="161" type="qcurve"/>
      <point x="188" y="111"/>
      <point x="397" y="48"/>
      <point x="504" y="48" type="qcurve" smooth="yes"/>
      <point x="505" y="48" type="line"/>
      <point x="570" y="48"/>
      <point x="658" y="56"/>
      <point x="694" y="62" type="qcurve" smooth="yes"/>
      <point x="710" y="64" type="line"/>
      <point x="710" y="83" type="line"/>
      <point x="694" y="80" type="line" smooth="yes"/>
      <point x="651" y="73"/>
      <point x="566" y="66"/>
      <point x="509" y="66" type="qcurve" smooth="yes"/>
      <point x="508" y="66" type="line"/>
      <point x="410" y="66"/>
      <point x="220" y="120"/>
      <point x="148" y="167" type="qcurve"/>
      <point x="148" y="152" type="line"/>
      <point x="201" y="199"/>
      <point x="402" y="268"/>
      <point x="510" y="268" type="qcurve" smooth="yes"/>
      <point x="710" y="268" type="line"/>
      <point x="710" y="287" type="line"/>
      <point x="514" y="287" type="line" smooth="yes"/>
      <point x="380" y="287"/>
      <point x="182" y="393"/>
      <point x="157" y="474" type="qcurve" smooth="yes"/>
    </contour>
    <contour>
      <point x="722" y="490" type="line"/>
      <point x="694" y="490" type="line"/>
      <point x="694" y="0" type="line"/>
      <point x="722" y="0" type="line"/>
    </contour>
    <contour>
      <point x="910" y="474" type="line"/>
      <point x="910" y="492" type="line"/>
      <point x="0" y="492" type="line"/>
      <point x="0" y="474" type="line"/>
    </contour>
  </outline>
</glyph>
<glyph name="uni0A2D" format="1">
  <advance width="934"/>
  <unicode hex="0A2D"/>
  <outline>
    <contour>
      <point x="337" y="360"/>
      <point x="217" y="310"/>
      <point x="217" y="274" type="qcurve" smooth="yes"/>
      <point x="217" y="243"/>
      <point x="323" y="189"/>
      <point x="446" y="189" type="qcurve" smooth="yes"/>
      <point x="609" y="189"/>
      <point x="756" y="370"/>
      <point x="756" y="452" type="qcurve" smooth="yes"/>
      <point x="756" y="500" type="line"/>
      <point x="728" y="500" type="line"/>
      <point x="728" y="440" type="line" smooth="yes"/>
      <point x="728" y="350"/>
      <point x="578" y="208"/>
      <point x="448" y="208" type="qcurve" smooth="yes"/>
      <point x="345" y="208"/>
      <point x="246" y="248"/>
      <point x="246" y="274" type="qcurve" smooth="yes"/>
      <point x="246" y="304"/>
      <point x="353" y="341"/>
      <point x="433" y="341" type="qcurve" smooth="yes"/>
      <point x="582" y="341"/>
      <point x="743" y="220"/>
      <point x="743" y="160" type="qcurve" smooth="yes"/>
      <point x="743" y="98"/>
      <point x="583" y="34"/>
      <point x="462" y="34" type="qcurve" smooth="yes"/>
      <point x="413" y="34"/>
      <point x="260" y="57"/>
      <point x="190" y="82" type="qcurve"/>
      <point x="184" y="64" type="line"/>
      <point x="248" y="42"/>
      <point x="403" y="15"/>
      <point x="465" y="15" type="qcurve" smooth="yes"/>
      <point x="605" y="15"/>
      <point x="772" y="98"/>
      <point x="772" y="160" type="qcurve" smooth="yes"/>
      <point x="772" y="224"/>
      <point x="601" y="360"/>
      <point x="435" y="360" type="qcurve" smooth="yes"/>
    </contour>
    <contour>
      <point x="934" y="481" type="line"/>
      <point x="934" y="500" type="line"/>
      <point x="-8" y="500" type="line"/>
      <point x="-8" y="481" type="line"/>
    </contour>
  </outline>
</glyph>
<glyph name="uni0A2F" format="1">
  <advance width="1118"/>
  <unicode hex="0A2F"/>
  <outline>
    <contour>
      <point x="470" y="64" type="line"/>
      <point x="516" y="64"/>
      <point x="573" y="74"/>
      <point x="583" y="80" type="qcurve" smooth="yes"/>
      <point x="590" y="85"/>
      <point x="598" y="98"/>
      <point x="598" y="106" type="qcurve" smooth="yes"/>
      <point x="598" y="294" type="line"/>
      <point x="570" y="294" type="line"/>
      <point x="570" y="111" type="line" smooth="yes"/>
      <point x="570" y="103"/>
      <point x="567" y="96"/>
      <point x="562" y="93" type="qcurve" smooth="yes"/>
      <point x="555" y="88"/>
      <point x="511" y="82"/>
      <point x="470" y="82" type="qcurve"/>
      <point x="469" y="82" type="line"/>
      <point x="388" y="82"/>
      <point x="229" y="120"/>
      <point x="181" y="154" type="qcurve"/>
      <point x="186" y="141" type="line"/>
      <point x="197" y="174"/>
      <point x="234" y="285"/>
      <point x="234" y="302" type="qcurve"/>
      <point x="233" y="320"/>
      <point x="197" y="479"/>
      <point x="194" y="492" type="qcurve"/>
      <point x="166" y="492" type="line"/>
      <point x="173" y="460"/>
      <point x="204" y="318"/>
      <point x="206" y="306" type="qcurve"/>
      <point x="206" y="288"/>
      <point x="169" y="179"/>
      <point x="156" y="143" type="qcurve"/>
      <point x="207" y="106"/>
      <point x="377" y="64"/>
      <point x="469" y="64" type="qcurve"/>
    </contour>
    <contour>
      <point x="574" y="276" type="line"/>
      <point x="926" y="276" type="line"/>
      <point x="926" y="294" type="line"/>
      <point x="574" y="294" type="line"/>
    </contour>
    <contour>
      <point x="930" y="490" type="line"/>
      <point x="902" y="490" type="line"/>
      <point x="902" y="0" type="line"/>
      <point x="930" y="0" type="line"/>
    </contour>
    <contour>
      <point x="1118" y="474" type="line"/>
      <point x="1118" y="492" type="line"/>
      <point x="0" y="492" type="line"/>
      <point x="0" y="474" type="line"/>
    </contour>
  </outline>
</glyph>
<glyph name="uni0A30" format="1">
  <advance width="832.0"/>
  <unicode hex="0A30"/>
  <outline>
    <contour>
      <point x="832" y="481" type="line"/>
      <point x="832" y="500" type="line"/>
      <point x="0" y="500" type="line"/>
      <point x="0" y="481" type="line"/>
    </contour>
    <contour>
      <point x="641" y="321" type="line"/>
      <point x="324" y="321" type="line" smooth="yes"/>
      <point x="220" y="321"/>
      <point x="129" y="271"/>
      <point x="129" y="232" type="qcurve"/>
      <point x="129" y="231" type="line"/>
      <point x="129" y="156"/>
      <point x="379" y="15"/>
      <point x="502" y="15" type="qcurve"/>
      <point x="502" y="15" type="line"/>
      <point x="568" y="15"/>
      <point x="645" y="69"/>
      <point x="645" y="129" type="qcurve" smooth="yes"/>
      <point x="645" y="497" type="line"/>
      <point x="617" y="497" type="line"/>
      <point x="617" y="131" type="line" smooth="yes"/>
      <point x="617" y="80"/>
      <point x="556" y="34"/>
      <point x="505" y="34" type="qcurve"/>
      <point x="504" y="34" type="line"/>
      <point x="398" y="34"/>
      <point x="159" y="163"/>
      <point x="159" y="231" type="qcurve"/>
      <point x="159" y="231" type="line"/>
      <point x="159" y="264"/>
      <point x="236" y="302"/>
      <point x="327" y="302" type="qcurve" smooth="yes"/>
      <point x="641" y="302" type="line"/>
    </contour>
  </outline>
</glyph>
<glyph name="uni0A32" format="1">
  <advance width="1024.0"/>
  <unicode hex="0A32"/>
  <outline>
    <contour>
      <point x="768" y="492" type="line"/>
      <point x="740" y="492" type="line"/>
      <point x="738" y="484" type="line" smooth="yes"/>
      <point x="722" y="395"/>
      <point x="598" y="252"/>
      <point x="511" y="214" type="qcurve"/>
      <point x="521" y="214" type="line"/>
      <point x="434" y="248"/>
      <point x="298" y="400"/>
      <point x="278" y="483" type="qcurve" smooth="yes"/>
      <point x="275" y="492" type="line"/>
      <point x="247" y="492" type="line"/>
      <point x="250" y="482" type="line" smooth="yes"/>
      <point x="272" y="388"/>
      <point x="417" y="237"/>
      <point x="517" y="197" type="qcurve"/>
      <point x="621" y="237"/>
      <point x="753" y="400"/>
      <point x="766" y="483" type="qcurve" smooth="yes"/>
    </contour>
    <contour>
      <point x="1024" y="481" type="line"/>
      <point x="1024" y="500" type="line"/>
      <point x="0" y="500" type="line"/>
      <point x="0" y="481" type="line"/>
    </contour>
    <contour>
      <point x="367" y="312" type="line"/>
      <point x="350" y="326" type="line"/>
      <point x="334" y="321" type="line" smooth="yes"/>
      <point x="249" y="295"/>
      <point x="132" y="200"/>
      <point x="132" y="158" type="qcurve" smooth="yes"/>
      <point x="132" y="114"/>
      <point x="216" y="40"/>
      <point x="323" y="17" type="qcurve" smooth="yes"/>
      <point x="333" y="15" type="line"/>
      <point x="343" y="33" type="line"/>
      <point x="324" y="37" type="line" smooth="yes"/>
      <point x="228" y="57"/>
      <point x="162" y="121"/>
      <point x="162" y="157" type="qcurve" smooth="yes"/>
      <point x="162" y="199"/>
      <point x="283" y="288"/>
      <point x="351" y="308" type="qcurve" smooth="yes"/>
    </contour>
    <contour>
      <point x="673" y="308" type="line" smooth="yes"/>
      <point x="741" y="288"/>
      <point x="862" y="199"/>
      <point x="862" y="158" type="qcurve" smooth="yes"/>
      <point x="862" y="119"/>
      <point x="789" y="59"/>
      <point x="700" y="37" type="qcurve" smooth="yes"/>
      <point x="681" y="33" type="line"/>
      <point x="691" y="15" type="line"/>
      <point x="701" y="17" type="line" smooth="yes"/>
      <point x="806" y="40"/>
      <point x="892" y="113"/>
      <point x="892" y="158" type="qcurve" smooth="yes"/>
      <point x="892" y="200"/>
      <point x="775" y="295"/>
      <point x="690" y="321" type="qcurve" smooth="yes"/>
      <point x="674" y="326" type="line"/>
      <point x="657" y="312" type="line"/>
    </contour>
  </outline>
</glyph>
<glyph name="uni0A38" format="1">
  <advance width="938"/>
  <unicode hex="0A38"/>
  <outline>
    <contour>
      <point x="309" y="261"/>
      <point x="259" y="437"/>
      <point x="246" y="474" type="qcurve" smooth="yes"/>
      <point x="242" y="485" type="line"/>
      <point x="213" y="485" type="line"/>
      <point x="216" y="474" type="line" smooth="yes"/>
      <point x="226" y="442"/>
      <point x="281" y="257"/>
      <point x="286" y="233" type="qcurve"/>
      <point x="277" y="210"/>
      <point x="186" y="69"/>
      <point x="174" y="53" type="qcurve"/>
      <point x="206" y="46" type="line"/>
      <point x="219" y="64"/>
      <point x="305" y="201"/>
      <point x="317" y="229" type="qcurve"/>
    </contour>
    <contour>
      <point x="299" y="243" type="line"/>
      <point x="299" y="225" type="line"/>
      <point x="747" y="225" type="line"/>
      <point x="747" y="243" type="line"/>
    </contour>
    <contour>
      <point x="751" y="490" type="line"/>
      <point x="723" y="490" type="line"/>
      <point x="723" y="0" type="line"/>
      <point x="751" y="0" type="line"/>
    </contour>
    <contour>
      <point x="938" y="474" type="line"/>
      <point x="938" y="492" type="line"/>
      <point x="1" y="492" type="line"/>
      <point x="1" y="474" type="line"/>
    </contour>
  </outline>
</glyph>
<glyph name="uni0A39" format="1">
  <advance width="878"/>
  <unicode hex="0A39"/>
  <outline>
    <contour>
      <point x="878" y="481" type="line"/>
      <point x="878" y="500" type="line"/>
      <point x="0" y="500" type="line"/>
      <point x="0" y="481" type="line"/>
    </contour>
    <contour>
      <point x="346" y="311" type="line"/>
      <point x="306" y="311" type="line" smooth="yes"/>
      <point x="225" y="311"/>
      <point x="154" y="268"/>
      <point x="154" y="232" type="qcurve"/>
      <point x="154" y="231" type="line"/>
      <point x="154" y="159"/>
      <point x="417" y="15"/>
      <point x="545" y="15" type="qcurve"/>
      <point x="546" y="15" type="line"/>
      <point x="611" y="15"/>
      <point x="690" y="69"/>
      <point x="690" y="129" type="qcurve" smooth="yes"/>
      <point x="690" y="497" type="line"/>
      <point x="662" y="497" type="line"/>
      <point x="662" y="131" type="line" smooth="yes"/>
      <point x="662" y="80"/>
      <point x="599" y="34"/>
      <point x="548" y="34" type="qcurve"/>
      <point x="547" y="34" type="line"/>
      <point x="438" y="34"/>
      <point x="184" y="164"/>
      <point x="184" y="231" type="qcurve"/>
      <point x="184" y="231" type="line"/>
      <point x="184" y="259"/>
      <point x="237" y="292"/>
      <point x="310" y="292" type="qcurve" smooth="yes"/>
      <point x="346" y="292" type="line"/>
    </contour>
  </outline>
</glyph>
<glyph name="uni0A3C" format="1">
  <advance width="5"/>
  <unicode hex="0A3C"/>
  <outline>
    <contour>
      <point x="-789" y="0" type="line"/>
      <point x="-755" y="0" type="line"/>
      <point x="-755" y="56" type="line"/>
      <point x="-789" y="56" type="line"/>
    </contour>
  </outline>
</glyph>
<glyph name="uni0A48" format="1">
  <advance width="6"/>
  <unicode hex="0A48"/>
  <outline>
    <contour>
      <point x="-273" y="1198" type="line"/>
      <point x="-213" y="945" type="line"/>
      <point x="-184" y="945" type="line"/>
      <point x="-244" y="1203" type="line"/>
    </contour>
  </outline>
</glyph>
<glyph name="uni0A51" format="1">
  <advance width="2"/>
  <unicode hex="0A51"/>
  <outline>
    <contour>
      <point x="-299" y="-258"/>
      <point x="-312" y="-265"/>
      <point x="-318" y="-269" type="qcurve"/>
      <point x="-226" y="-364"/>
      <point x="-73" y="-422"/>
      <point x="26" y="-419" type="qcurve"/>
      <point x="39" y="-396" type="line"/>
      <point x="-69" y="-401"/>
      <point x="-210" y="-343"/>
      <point x="-297" y="-256" type="qcurve"/>
    </contour>
  </outline>
</glyph>
<glyph name="uni0A5C" format="1">
  <advance width="909"/>
  <unicode hex="0A5C"/>
  <outline>
    <contour>
      <point x="700" y="-42"/>
      <point x="720" y="-40"/>
      <point x="728" y="-39" type="qcurve"/>
      <point x="711" y="-27"/>
      <point x="633" y="48"/>
      <point x="618" y="65" type="qcurve"/>
      <point x="590" y="60" type="line"/>
      <point x="608" y="39"/>
      <point x="683" y="-31"/>
      <point x="697" y="-42" type="qcurve"/>
    </contour>
    <contour>
      <point x="269" y="-41"/>
      <point x="290" y="-40"/>
      <point x="297" y="-38" type="qcurve"/>
      <point x="271" y="-18"/>
      <point x="187" y="81"/>
      <point x="170" y="106" type="qcurve"/>
      <point x="142" y="104" type="line"/>
      <point x="153" y="88"/>
      <point x="239" y="-18"/>
      <point x="266" y="-41" type="qcurve"/>
    </contour>
    <contour>
      <point x="702" y="472" type="line"/>
      <point x="702" y="446" type="line" smooth="yes"/>
      <point x="702" y="387"/>
      <point x="573" y="289"/>
      <point x="434" y="289" type="qcurve" smooth="yes"/>
      <point x="258" y="289" type="line"/>
      <point x="264" y="270" type="line"/>
      <point x="456" y="270" type="line" smooth="yes"/>
      <point x="586" y="270"/>
      <point x="726" y="193"/>
      <point x="726" y="159" type="qcurve" smooth="yes"/>
      <point x="726" y="113"/>
      <point x="614" y="59"/>
      <point x="499" y="59" type="qcurve" smooth="yes"/>
      <point x="402" y="59"/>
      <point x="232" y="93"/>
      <point x="150" y="121" type="qcurve"/>
      <point x="142" y="105" type="line"/>
      <point x="230" y="73"/>
      <point x="411" y="40"/>
      <point x="497" y="40" type="qcurve" smooth="yes"/>
      <point x="626" y="40"/>
      <point x="754" y="108"/>
      <point x="754" y="158" type="qcurve" smooth="yes"/>
      <point x="754" y="200"/>
      <point x="638" y="275"/>
      <point x="514" y="286" type="qcurve"/>
      <point x="514" y="277" type="line"/>
      <point x="634" y="293"/>
      <point x="730" y="389"/>
      <point x="730" y="462" type="qcurve" smooth="yes"/>
      <point x="730" y="472" type="line"/>
    </contour>
    <contour>
      <point x="908" y="453" type="line"/>
      <point x="908" y="472" type="line"/>
      <point x="0" y="472" type="line"/>
      <point x="0" y="453" type="line"/>
    </contour>
  </outline>
</glyph>
<glyph name="uni0A67" format="1">
  <advance width="694"/>
  <unicode hex="0A67"/>
  <outline>
    <contour>
      <point x="502" y="154" type="line" smooth="yes"/>
      <point x="502" y="109"/>
      <point x="535" y="48"/>
      <point x="576" y="24" type="qcurve" smooth="yes"/>
      <point x="615" y="1" type="line"/>
      <point x="634" y="15" type="line"/>
      <point x="592" y="38" type="line" smooth="yes"/>
      <point x="562" y="56"/>
      <point x="529" y="108"/>
      <point x="530" y="153" type="qcurve" smooth="yes"/>
      <point x="530" y="333" type="line" smooth="yes"/>
      <point x="531" y="396"/>
      <point x="419" y="474"/>
      <point x="321" y="474" type="qcurve" smooth="yes"/>
      <point x="240" y="474"/>
      <point x="131" y="404"/>
      <point x="131" y="349" type="qcurve" smooth="yes"/>
      <point x="131" y="294"/>
      <point x="250" y="224"/>
      <point x="329" y="224" type="qcurve" smooth="yes"/>
      <point x="389" y="224"/>
      <point x="491" y="254"/>
      <point x="522" y="280" type="qcurve"/>
      <point x="510" y="296" type="line"/>
      <point x="474" y="269"/>
      <point x="381" y="243"/>
      <point x="326" y="243" type="qcurve" smooth="yes"/>
      <point x="261" y="243"/>
      <point x="160" y="303"/>
      <point x="160" y="348" type="qcurve" smooth="yes"/>
      <point x="160" y="393"/>
      <point x="253" y="455"/>
      <point x="322" y="455" type="qcurve" smooth="yes"/>
      <point x="409" y="455"/>
      <point x="502" y="383"/>
      <point x="502" y="329" type="qcurve" smooth="yes"/>
    </contour>
  </outline>
</glyph>
<glyph name="uni0A68" format="1">
  <advance width="779"/>
  <unicode hex="0A68"/>
  <outline>
    <contour>
      <point x="700" y="14" type="line"/>
      <point x="642" y="59"/>
      <point x="498" y="137"/>
      <point x="410" y="183" type="qcurve"/>
      <point x="410" y="176" type="line"/>
      <point x="527" y="195"/>
      <point x="668" y="285"/>
      <point x="668" y="338" type="qcurve" smooth="yes"/>
      <point x="668" y="394"/>
      <point x="528" y="474"/>
      <point x="403" y="474" type="qcurve" smooth="yes"/>
      <point x="338" y="474"/>
      <point x="189" y="444"/>
      <point x="115" y="419" type="qcurve"/>
      <point x="115" y="400" type="line"/>
      <point x="195" y="427"/>
      <point x="334" y="455"/>
      <point x="402" y="455" type="qcurve" smooth="yes"/>
      <point x="518" y="455"/>
      <point x="639" y="385"/>
      <point x="639" y="337" type="qcurve" smooth="yes"/>
      <point x="639" y="292"/>
      <point x="506" y="205"/>
      <point x="384" y="188" type="qcurve"/>
      <point x="318" y="189"/>
      <point x="262" y="187"/>
      <point x="206" y="189" type="qcurve"/>
      <point x="205" y="169" type="line"/>
      <point x="252" y="168"/>
      <point x="312" y="170"/>
      <point x="390" y="170" type="qcurve"/>
      <point x="465" y="132"/>
      <point x="614" y="52"/>
      <point x="677" y="1" type="qcurve"/>
    </contour>
  </outline>
</glyph>
<glyph name="uni0A69" format="1">
  <advance width="835"/>
  <unicode hex="0A69"/>
  <outline>
    <contour>
      <point x="390" y="-34" type="line"/>
      <point x="375" y="-19"/>
      <point x="311" y="35"/>
      <point x="298" y="49" type="qcurve"/>
      <point x="284" y="45" type="line"/>
      <point x="341" y="38"/>
      <point x="400" y="34"/>
      <point x="448" y="35" type="qcurve" smooth="yes"/>
      <point x="530" y="35"/>
      <point x="648" y="90"/>
      <point x="648" y="131" type="qcurve" smooth="yes"/>
      <point x="648" y="165"/>
      <point x="571" y="223"/>
      <point x="492" y="237" type="qcurve"/>
      <point x="492" y="230" type="line"/>
      <point x="578" y="236"/>
      <point x="688" y="303"/>
      <point x="688" y="350" type="qcurve" smooth="yes"/>
      <point x="688" y="386"/>
      <point x="572" y="453"/>
      <point x="438" y="453" type="qcurve" smooth="yes"/>
      <point x="358" y="453"/>
      <point x="220" y="437"/>
      <point x="154" y="419" type="qcurve"/>
      <point x="169" y="402" type="line"/>
      <point x="237" y="421"/>
      <point x="359" y="435"/>
      <point x="435" y="435" type="qcurve" smooth="yes"/>
      <point x="556" y="435"/>
      <point x="658" y="375"/>
      <point x="658" y="346" type="qcurve" smooth="yes"/>
      <point x="658" y="307"/>
      <point x="541" y="247"/>
      <point x="457" y="243" type="qcurve"/>
      <point x="399" y="244"/>
      <point x="299" y="244"/>
      <point x="262" y="244" type="qcurve"/>
      <point x="262" y="225" type="line"/>
      <point x="292" y="224"/>
      <point x="371" y="225"/>
      <point x="460" y="225" type="qcurve"/>
      <point x="551" y="214"/>
      <point x="619" y="155"/>
      <point x="619" y="125" type="qcurve" smooth="yes"/>
      <point x="619" y="100"/>
      <point x="524" y="54"/>
      <point x="445" y="53" type="qcurve" smooth="yes"/>
      <point x="418" y="52"/>
      <point x="336" y="57"/>
      <point x="287" y="62" type="qcurve"/>
      <point x="273" y="73"/>
      <point x="215" y="116"/>
      <point x="195" y="133" type="qcurve"/>
      <point x="167" y="124" type="line"/>
      <point x="207" y="92"/>
      <point x="335" y="-12"/>
      <point x="362" y="-39" type="qcurve"/>
    </contour>
  </outline>
</glyph>
<glyph name="uni0A6B" format="1">
  <advance width="762"/>
  <unicode hex="0A6B"/>
  <outline>
    <contour>
      <point x="570" y="473" type="line"/>
      <point x="542" y="473" type="line"/>
      <point x="542" y="0" type="line"/>
      <point x="570" y="0" type="line"/>
    </contour>
    <contour>
      <point x="121" y="473" type="line"/>
      <point x="143" y="399"/>
      <point x="156" y="318"/>
      <point x="156" y="314" type="qcurve" smooth="yes"/>
      <point x="155" y="286"/>
      <point x="134" y="221"/>
      <point x="119" y="182" type="qcurve"/>
      <point x="163" y="142"/>
      <point x="301" y="100"/>
      <point x="360" y="100" type="qcurve" smooth="yes"/>
      <point x="415" y="100"/>
      <point x="513" y="118"/>
      <point x="549" y="130" type="qcurve" smooth="yes"/>
      <point x="569" y="137" type="line"/>
      <point x="569" y="158" type="line"/>
      <point x="549" y="150" type="line" smooth="yes"/>
      <point x="510" y="137"/>
      <point x="418" y="118"/>
      <point x="361" y="118" type="qcurve" smooth="yes"/>
      <point x="305" y="118"/>
      <point x="182" y="157"/>
      <point x="151" y="187" type="qcurve"/>
      <point x="166" y="227"/>
      <point x="183" y="290"/>
      <point x="184" y="321" type="qcurve" smooth="yes"/>
      <point x="184" y="328"/>
      <point x="172" y="395"/>
      <point x="150" y="473" type="qcurve"/>
    </contour>
  </outline>
</glyph>
<glyph name="uni0A6C" format="1">
  <advance width="758"/>
  <unicode hex="0A6C"/>
  <outline>
    <contour>
      <point x="134" y="2" type="line"/>
      <point x="166" y="4" type="line" smooth="yes"/>
      <point x="381" y="18"/>
      <point x="636" y="196"/>
      <point x="636" y="302" type="qcurve" smooth="yes"/>
      <point x="636" y="372"/>
      <point x="509" y="475"/>
      <point x="383" y="475" type="qcurve" smooth="yes"/>
      <point x="290" y="475"/>
      <point x="169" y="394"/>
      <point x="169" y="346" type="qcurve" smooth="yes"/>
      <point x="169" y="312"/>
      <point x="227" y="242"/>
      <point x="291" y="217" type="qcurve"/>
      <point x="309" y="231" type="line"/>
      <point x="253" y="252"/>
      <point x="198" y="315"/>
      <point x="198" y="344" type="qcurve" smooth="yes"/>
      <point x="198" y="390"/>
      <point x="305" y="456"/>
      <point x="389" y="456" type="qcurve" smooth="yes"/>
      <point x="491" y="456"/>
      <point x="608" y="370"/>
      <point x="608" y="304" type="qcurve" smooth="yes"/>
      <point x="608" y="211"/>
      <point x="368" y="30"/>
      <point x="157" y="22" type="qcurve" smooth="yes"/>
      <point x="130" y="21" type="line"/>
    </contour>
  </outline>
</glyph>
<glyph name="uni0A6E" format="1">
  <advance width="885"/>
  <unicode hex="0A6E"/>
  <outline>
    <contour>
      <point x="178" y="345" type="line"/>
      <point x="187" y="312" type="line" smooth="yes"/>
      <point x="230" y="151"/>
      <point x="439" y="0"/>
      <point x="597" y="0" type="qcurve" smooth="yes"/>
      <point x="639" y="0"/>
      <point x="725" y="8"/>
      <point x="759" y="13" type="qcurve"/>
      <point x="752" y="32" type="line"/>
      <point x="714" y="25"/>
      <point x="633" y="20"/>
      <point x="597" y="20" type="qcurve" smooth="yes"/>
      <point x="473" y="20"/>
      <point x="264" y="141"/>
      <point x="216" y="312" type="qcurve" smooth="yes"/>
      <point x="206" y="345" type="line"/>
    </contour>
    <contour>
      <point x="726" y="349" type="line"/>
      <point x="726" y="368" type="line"/>
      <point x="184" y="368" type="line"/>
      <point x="185" y="349" type="line"/>
    </contour>
    <contour>
      <point x="207" y="345" type="line"/>
      <point x="200" y="366"/>
      <point x="193" y="455"/>
      <point x="188" y="475" type="qcurve"/>
      <point x="157" y="472" type="line"/>
      <point x="161" y="454"/>
      <point x="172" y="362"/>
      <point x="179" y="343" type="qcurve"/>
    </contour>
  </outline>
</glyph>
<glyph name="uni0A70" format="1">
  <advance width="0.0"/>
  <unicode hex="0A70"/>
  <outline>
    <contour>
      <point x="-286" y="1143" type="line"/>
      <point x="-305" y="1163"/>
      <point x="-334" y="1198"/>
      <point x="-334" y="1218" type="qcurve" smooth="yes"/>
      <point x="-334" y="1253"/>
      <point x="-268" y="1298"/>
      <point x="-210" y="1298" type="qcurve" smooth="yes"/>
      <point x="-149" y="1298"/>
      <point x="-81" y="1253"/>
      <point x="-81" y="1218" type="qcurve" smooth="yes"/>
      <point x="-81" y="1200"/>
      <point x="-104" y="1163"/>
      <point x="-122" y="1143" type="qcurve"/>
      <point x="-90" y="1143" type="line"/>
      <point x="-75" y="1162"/>
      <point x="-52" y="1197"/>
      <point x="-52" y="1215" type="qcurve" smooth="yes"/>
      <point x="-52" y="1262"/>
      <point x="-139" y="1316"/>
      <point x="-208" y="1316" type="qcurve" smooth="yes"/>
      <point x="-278" y="1316"/>
      <point x="-363" y="1261"/>
      <point x="-363" y="1215" type="qcurve" smooth="yes"/>
      <point x="-363" y="1197"/>
      <point x="-332" y="1156"/>
      <point x="-319" y="1143" type="qcurve"/>
    </contour>
  </outline>
</glyph>
<glyph name="u0A71" format="1">
  <advance width="0.0"/>
  <unicode hex="0A71"/>
  <outline>
    <contour>
      <point x="-144" y="1140"/>
      <point x="-50" y="1223"/>
      <point x="-58" y="1286" type="qcurve"/>
      <point x="-86" y="1291" type="line"/>
      <point x="-79" y="1231"/>
      <point x="-155" y="1159"/>
      <point x="-234" y="1159" type="qcurve" smooth="yes"/>
      <point x="-323" y="1159"/>
      <point x="-406" y="1224"/>
      <point x="-402" y="1291" type="qcurve"/>
      <point x="-430" y="1285" type="line"/>
      <point x="-433" y="1212"/>
      <point x="-330" y="1140"/>
      <point x="-240" y="1140" type="qcurve" smooth="yes"/>
    </contour>
  </outline>
</glyph>
<glyph name="uni0A73" format="1">
  <advance width="960.0"/>
  <unicode hex="0A73"/>
  <outline>
    <contour>
      <point x="832" y="492" type="line"/>
      <point x="860" y="492" type="line"/>
      <point x="860" y="500" type="line" smooth="yes"/>
      <point x="860" y="592"/>
      <point x="694" y="717"/>
      <point x="552" y="717" type="qcurve" smooth="yes"/>
      <point x="435" y="717"/>
      <point x="218" y="618"/>
      <point x="176" y="526" type="qcurve" smooth="yes"/>
      <point x="164" y="500" type="line"/>
      <point x="191" y="494" type="line"/>
      <point x="201" y="515" type="line" smooth="yes"/>
      <point x="244" y="607"/>
      <point x="446" y="699"/>
      <point x="558" y="699" type="qcurve" smooth="yes"/>
      <point x="667" y="699"/>
      <point x="832" y="592"/>
      <point x="832" y="499" type="qcurve" smooth="yes"/>
    </contour>
    <contour>
      <point x="-15" y="500" type="line"/>
      <point x="-15" y="481" type="line"/>
      <point x="1029" y="481" type="line"/>
      <point x="1029" y="500" type="line"/>
    </contour>
    <contour>
      <point x="832" y="491" type="line"/>
      <point x="832" y="486" type="line" smooth="yes"/>
      <point x="832" y="405"/>
      <point x="679" y="262"/>
      <point x="574" y="261" type="qcurve" smooth="yes"/>
      <point x="199" y="261" type="line"/>
      <point x="199" y="242" type="line"/>
      <point x="534" y="242" type="line" smooth="yes"/>
      <point x="598" y="242"/>
      <point x="730" y="181"/>
      <point x="730" y="127" type="qcurve" smooth="yes"/>
      <point x="730" y="87"/>
      <point x="634" y="34"/>
      <point x="557" y="34" type="qcurve" smooth="yes"/>
      <point x="384" y="34"/>
      <point x="142" y="316"/>
      <point x="188" y="484" type="qcurve" smooth="yes"/>
      <point x="190" y="490" type="line"/>
      <point x="162" y="496" type="line"/>
      <point x="161" y="488" type="line" smooth="yes"/>
      <point x="115" y="294"/>
      <point x="377" y="15"/>
      <point x="560" y="15" type="qcurve" smooth="yes"/>
      <point x="647" y="15"/>
      <point x="758" y="79"/>
      <point x="758" y="130" type="qcurve" smooth="yes"/>
      <point x="758" y="162"/>
      <point x="684" y="236"/>
      <point x="595" y="252" type="qcurve"/>
      <point x="594" y="246" type="line"/>
      <point x="698" y="256"/>
      <point x="860" y="389"/>
      <point x="860" y="486" type="qcurve" smooth="yes"/>
      <point x="860" y="491" type="line"/>
    </contour>
  </outline>
</glyph>
<glyph name="uni0A74" format="1">
  <advance width="2186"/>
  <unicode hex="0A74"/>
  <outline>
    <contour>
      <point x="1341" y="614" type="line"/>
      <point x="1359" y="627" type="line"/>
      <point x="1337" y="642" type="line" smooth="yes"/>
      <point x="1294" y="670"/>
      <point x="1161" y="707"/>
      <point x="1069" y="707" type="qcurve" smooth="yes"/>
      <point x="948" y="707"/>
      <point x="740" y="597"/>
      <point x="708" y="515" type="qcurve" smooth="yes"/>
      <point x="698" y="489" type="line"/>
      <point x="725" y="483" type="line"/>
      <point x="734" y="504" type="line" smooth="yes"/>
      <point x="771" y="592"/>
      <point x="969" y="688"/>
      <point x="1071" y="688" type="qcurve" smooth="yes"/>
      <point x="1155" y="688"/>
      <point x="1284" y="651"/>
      <point x="1320" y="627" type="qcurve" smooth="yes"/>
    </contour>
    <contour>
      <point x="519" y="489" type="line"/>
      <point x="519" y="470" type="line"/>
      <point x="1563" y="470" type="line"/>
      <point x="1563" y="489" type="line"/>
    </contour>
    <contour>
      <point x="1366" y="481" type="line"/>
      <point x="1366" y="476" type="line" smooth="yes"/>
      <point x="1366" y="394"/>
      <point x="1213" y="251"/>
      <point x="1108" y="251" type="qcurve" smooth="yes"/>
      <point x="734" y="250" type="line"/>
      <point x="734" y="231" type="line"/>
      <point x="1069" y="231" type="line" smooth="yes"/>
      <point x="1133" y="231"/>
      <point x="1272" y="159"/>
      <point x="1272" y="105" type="qcurve" smooth="yes"/>
      <point x="1272" y="66"/>
      <point x="1166" y="12"/>
      <point x="1091" y="12" type="qcurve" smooth="yes"/>
      <point x="919" y="12"/>
      <point x="676" y="306"/>
      <point x="722" y="473" type="qcurve" smooth="yes"/>
      <point x="724" y="480" type="line"/>
      <point x="697" y="485" type="line"/>
      <point x="695" y="477" type="line" smooth="yes"/>
      <point x="650" y="283"/>
      <point x="911" y="-7"/>
      <point x="1094" y="-7" type="qcurve" smooth="yes"/>
      <point x="1162" y="-7"/>
      <point x="1301" y="49"/>
      <point x="1301" y="108" type="qcurve" smooth="yes"/>
      <point x="1301" y="140"/>
      <point x="1219" y="225"/>
      <point x="1130" y="242" type="qcurve"/>
      <point x="1129" y="235" type="line"/>
      <point x="1232" y="245"/>
      <point x="1394" y="378"/>
      <point x="1394" y="476" type="qcurve" smooth="yes"/>
      <point x="1394" y="481" type="line"/>
    </contour>
    <contour>
      <point x="2130" y="591" type="line"/>
      <point x="2158" y="591" type="line"/>
      <point x="2158" y="598" type="line" smooth="yes"/>
      <point x="2158" y="690"/>
      <point x="1995" y="816"/>
      <point x="1842" y="816" type="qcurve" smooth="yes"/>
      <point x="1698" y="816"/>
      <point x="1469" y="707"/>
      <point x="1363" y="635" type="qcurve" smooth="yes"/>
      <point x="1338" y="618" type="line"/>
      <point x="1358" y="604" type="line"/>
      <point x="1380" y="619" type="line" smooth="yes"/>
      <point x="1497" y="697"/>
      <point x="1715" y="797"/>
      <point x="1850" y="797" type="qcurve" smooth="yes"/>
      <point x="1983" y="797"/>
      <point x="2130" y="680"/>
      <point x="2130" y="597" type="qcurve" smooth="yes"/>
    </contour>
    <component base="uni0A67" xOffset="-49"/>
  </outline>
</glyph>
<glyph name="Euro" format="1">
  <advance width="1180.0"/>
  <unicode hex="20AC"/>
  <outline>
    <contour>
      <point x="80" y="442" type="line"/>
      <point x="244" y="442" type="line"/>
      <point x="250" y="442" type="line"/>
      <point x="783" y="442" type="line"/>
      <point x="783" y="463" type="line"/>
      <point x="258" y="463" type="line"/>
      <point x="252" y="463" type="line"/>
      <point x="80" y="463" type="line"/>
    </contour>
    <contour>
      <point x="1074" y="589" type="line"/>
      <point x="1012" y="654"/>
      <point x="828" y="739"/>
      <point x="683" y="739" type="qcurve" smooth="yes"/>
      <point x="514" y="739"/>
      <point x="272" y="577"/>
      <point x="236" y="454" type="qcurve" smooth="yes"/>
      <point x="236" y="454" type="line"/>
      <point x="229" y="431"/>
      <point x="221" y="381"/>
      <point x="221" y="356" type="qcurve" smooth="yes"/>
      <point x="221" y="356" type="line"/>
      <point x="221" y="335"/>
      <point x="226" y="292"/>
      <point x="231" y="273" type="qcurve" smooth="yes"/>
      <point x="231" y="273" type="line"/>
      <point x="263" y="140"/>
      <point x="514" y="-25"/>
      <point x="694" y="-25" type="qcurve" smooth="yes"/>
      <point x="832" y="-25"/>
      <point x="1015" y="67"/>
      <point x="1078" y="135" type="qcurve"/>
      <point x="1049" y="145" type="line"/>
      <point x="990" y="82"/>
      <point x="822" y="-4"/>
      <point x="694" y="-4" type="qcurve" smooth="yes"/>
      <point x="528" y="-4"/>
      <point x="294" y="151"/>
      <point x="264" y="274" type="qcurve" smooth="yes"/>
      <point x="264" y="274" type="line"/>
      <point x="259" y="293"/>
      <point x="254" y="335"/>
      <point x="254" y="356" type="qcurve" smooth="yes"/>
      <point x="254" y="356" type="line"/>
      <point x="254" y="381"/>
      <point x="262" y="429"/>
      <point x="269" y="452" type="qcurve" smooth="yes"/>
      <point x="269" y="452" type="line"/>
      <point x="304" y="565"/>
      <point x="527" y="718"/>
      <point x="683" y="718" type="qcurve" smooth="yes"/>
      <point x="818" y="718"/>
      <point x="986" y="638"/>
      <point x="1044" y="578" type="qcurve"/>
    </contour>
    <contour>
      <point x="80" y="262" type="line"/>
      <point x="247" y="262" type="line"/>
      <point x="252" y="262" type="line"/>
      <point x="783" y="262" type="line"/>
      <point x="783" y="283" type="line"/>
      <point x="247" y="283" type="line"/>
      <point x="242" y="283" type="line"/>
      <point x="80" y="283" type="line"/>
    </contour>
  </outline>
</glyph>
<glyph name="trademark" format="1">
  <advance width="1199"/>
  <unicode hex="2122"/>
  <outline>
    <contour>
      <point x="638" y="932" type="line"/>
      <point x="616" y="941" type="line"/>
      <point x="616" y="743" type="line"/>
      <point x="638" y="743" type="line"/>
    </contour>
    <contour>
      <point x="616" y="941" type="line"/>
      <point x="634" y="919" type="line"/>
      <point x="769" y="790" type="line"/>
      <point x="774" y="790" type="line"/>
      <point x="912" y="922" type="line"/>
      <point x="927" y="941" type="line"/>
      <point x="906" y="941" type="line"/>
      <point x="771" y="811" type="line"/>
      <point x="774" y="811" type="line"/>
      <point x="637" y="941" type="line"/>
    </contour>
    <contour>
      <point x="905" y="937" type="line"/>
      <point x="905" y="743" type="line"/>
      <point x="927" y="743" type="line"/>
      <point x="927" y="941" type="line"/>
    </contour>
    <contour>
      <point x="409" y="941" type="line"/>
      <point x="386" y="941" type="line"/>
      <point x="386" y="743" type="line"/>
      <point x="409" y="743" type="line"/>
    </contour>
    <contour>
      <point x="523" y="927" type="line"/>
      <point x="523" y="941" type="line"/>
      <point x="272" y="941" type="line"/>
      <point x="272" y="927" type="line"/>
    </contour>
  </outline>
</glyph>
<glyph name="minus" format="1">
  <advance width="983"/>
  <unicode hex="2212"/>
  <outline>
    <contour>
      <point x="866" y="702" type="line"/>
      <point x="866" y="721" type="line"/>
      <point x="116" y="721" type="line"/>
      <point x="116" y="702" type="line"/>
    </contour>
  </outline>
</glyph>
<glyph name="uni25CC" format="1">
  <advance width="979"/>
  <unicode hex="25CC"/>
  <outline>
    <contour>
      <point x="64" y="236"/>
      <point x="91" y="217"/>
      <point x="119" y="217" type="qcurve" smooth="yes"/>
      <point x="148" y="217"/>
      <point x="181" y="236"/>
      <point x="181" y="254" type="qcurve" smooth="yes"/>
      <point x="181" y="274"/>
      <point x="148" y="292"/>
      <point x="119" y="292" type="qcurve" smooth="yes"/>
      <point x="91" y="292"/>
      <point x="64" y="274"/>
      <point x="64" y="254" type="qcurve" smooth="yes"/>
    </contour>
    <contour>
      <point x="798" y="236"/>
      <point x="827" y="217"/>
      <point x="856" y="217" type="qcurve" smooth="yes"/>
      <point x="886" y="217"/>
      <point x="915" y="236"/>
      <point x="915" y="254" type="qcurve" smooth="yes"/>
      <point x="915" y="274"/>
      <point x="886" y="292"/>
      <point x="856" y="292" type="qcurve" smooth="yes"/>
      <point x="827" y="292"/>
      <point x="798" y="274"/>
      <point x="798" y="254" type="qcurve" smooth="yes"/>
    </contour>
    <contour>
      <point x="430" y="473"/>
      <point x="459" y="453"/>
      <point x="488" y="453" type="qcurve" smooth="yes"/>
      <point x="517" y="453"/>
      <point x="549" y="473"/>
      <point x="549" y="491" type="qcurve" smooth="yes"/>
      <point x="549" y="511"/>
      <point x="517" y="530"/>
      <point x="488" y="530" type="qcurve" smooth="yes"/>
      <point x="459" y="530"/>
      <point x="430" y="511"/>
      <point x="430" y="491" type="qcurve" smooth="yes"/>
    </contour>
    <contour>
      <point x="430" y="-2"/>
      <point x="459" y="-20"/>
      <point x="488" y="-20" type="qcurve" smooth="yes"/>
      <point x="517" y="-20"/>
      <point x="549" y="-2"/>
      <point x="549" y="17" type="qcurve" smooth="yes"/>
      <point x="549" y="36"/>
      <point x="517" y="56"/>
      <point x="488" y="56" type="qcurve" smooth="yes"/>
      <point x="459" y="56"/>
      <point x="430" y="36"/>
      <point x="430" y="17" type="qcurve" smooth="yes"/>
    </contour>
    <contour>
      <point x="752" y="355"/>
      <point x="781" y="335"/>
      <point x="810" y="335" type="qcurve" smooth="yes"/>
      <point x="840" y="335"/>
      <point x="868" y="355"/>
      <point x="868" y="374" type="qcurve" smooth="yes"/>
      <point x="868" y="393"/>
      <point x="840" y="411"/>
      <point x="810" y="411" type="qcurve" smooth="yes"/>
      <point x="781" y="411"/>
      <point x="752" y="393"/>
      <point x="752" y="374" type="qcurve" smooth="yes"/>
    </contour>
    <contour>
      <point x="752" y="116"/>
      <point x="781" y="98"/>
      <point x="810" y="98" type="qcurve" smooth="yes"/>
      <point x="840" y="98"/>
      <point x="868" y="116"/>
      <point x="868" y="136" type="qcurve" smooth="yes"/>
      <point x="868" y="154"/>
      <point x="840" y="174"/>
      <point x="810" y="174" type="qcurve" smooth="yes"/>
      <point x="781" y="174"/>
      <point x="752" y="154"/>
      <point x="752" y="136" type="qcurve" smooth="yes"/>
    </contour>
    <contour>
      <point x="110" y="355"/>
      <point x="137" y="335"/>
      <point x="166" y="335" type="qcurve" smooth="yes"/>
      <point x="196" y="335"/>
      <point x="227" y="355"/>
      <point x="227" y="374" type="qcurve" smooth="yes"/>
      <point x="227" y="393"/>
      <point x="196" y="411"/>
      <point x="166" y="411" type="qcurve" smooth="yes"/>
      <point x="137" y="411"/>
      <point x="110" y="393"/>
      <point x="110" y="374" type="qcurve" smooth="yes"/>
    </contour>
    <contour>
      <point x="110" y="116"/>
      <point x="137" y="98"/>
      <point x="166" y="98" type="qcurve" smooth="yes"/>
      <point x="196" y="98"/>
      <point x="227" y="116"/>
      <point x="227" y="136" type="qcurve" smooth="yes"/>
      <point x="227" y="154"/>
      <point x="196" y="174"/>
      <point x="166" y="174" type="qcurve" smooth="yes"/>
      <point x="137" y="174"/>
      <point x="110" y="154"/>
      <point x="110" y="136" type="qcurve" smooth="yes"/>
    </contour>
    <contour>
      <point x="246" y="443"/>
      <point x="273" y="423"/>
      <point x="303" y="423" type="qcurve" smooth="yes"/>
      <point x="333" y="423"/>
      <point x="365" y="443"/>
      <point x="365" y="462" type="qcurve" smooth="yes"/>
      <point x="365" y="480"/>
      <point x="333" y="499"/>
      <point x="303" y="499" type="qcurve" smooth="yes"/>
      <point x="273" y="499"/>
      <point x="246" y="480"/>
      <point x="246" y="462" type="qcurve" smooth="yes"/>
    </contour>
    <contour>
      <point x="614" y="443"/>
      <point x="646" y="423"/>
      <point x="674" y="423" type="qcurve" smooth="yes"/>
      <point x="703" y="423"/>
      <point x="731" y="443"/>
      <point x="731" y="462" type="qcurve" smooth="yes"/>
      <point x="731" y="480"/>
      <point x="703" y="499"/>
      <point x="674" y="499" type="qcurve" smooth="yes"/>
      <point x="646" y="499"/>
      <point x="614" y="480"/>
      <point x="614" y="462" type="qcurve" smooth="yes"/>
    </contour>
    <contour>
      <point x="246" y="28"/>
      <point x="273" y="9"/>
      <point x="303" y="9" type="qcurve" smooth="yes"/>
      <point x="333" y="9"/>
      <point x="365" y="28"/>
      <point x="365" y="46" type="qcurve" smooth="yes"/>
      <point x="365" y="65"/>
      <point x="333" y="85"/>
      <point x="303" y="85" type="qcurve" smooth="yes"/>
      <point x="273" y="85"/>
      <point x="246" y="65"/>
      <point x="246" y="46" type="qcurve" smooth="yes"/>
    </contour>
    <contour>
      <point x="614" y="28"/>
      <point x="646" y="9"/>
      <point x="674" y="9" type="qcurve" smooth="yes"/>
      <point x="703" y="9"/>
      <point x="731" y="28"/>
      <point x="731" y="46" type="qcurve" smooth="yes"/>
      <point x="731" y="65"/>
      <point x="703" y="85"/>
      <point x="674" y="85" type="qcurve" smooth="yes"/>
      <point x="646" y="85"/>
      <point x="614" y="65"/>
      <point x="614" y="46" type="qcurve" smooth="yes"/>
    </contour>
  </outline>
</glyph>
<glyph name="R_p" format="1">
  <advance width="1494"/>
  <outline>
    <contour>
      <point x="228" y="-100" type="line"/>
      <point x="256" y="-100" type="line"/>
      <point x="256" y="99" type="line"/>
      <point x="435" y="99" type="line" smooth="yes"/>
      <point x="443" y="99"/>
      <point x="457" y="99"/>
      <point x="465" y="99" type="qcurve"/>
      <point x="690" y="-100" type="line"/>
      <point x="726" y="-100" type="line"/>
      <point x="498" y="102" type="line"/>
      <point x="600" y="110"/>
      <point x="709" y="182"/>
      <point x="709" y="235" type="qcurve" smooth="yes"/>
      <point x="709" y="236" type="line" smooth="yes"/>
      <point x="709" y="297"/>
      <point x="571" y="372"/>
      <point x="446" y="372" type="qcurve" smooth="yes"/>
      <point x="228" y="372" type="line"/>
    </contour>
    <contour>
      <point x="256" y="118" type="line"/>
      <point x="256" y="354" type="line"/>
      <point x="444" y="354" type="line" smooth="yes"/>
      <point x="557" y="354"/>
      <point x="680" y="292"/>
      <point x="680" y="236" type="qcurve" smooth="yes"/>
      <point x="680" y="234" type="line" smooth="yes"/>
      <point x="680" y="184"/>
      <point x="562" y="118"/>
      <point x="435" y="118" type="qcurve" smooth="yes"/>
    </contour>
    <contour>
      <point x="840" y="-208" type="line"/>
      <point x="868" y="-208" type="line"/>
      <point x="868" y="-10" type="line"/>
      <point x="891" y="-56"/>
      <point x="1005" y="-108"/>
      <point x="1072" y="-108" type="qcurve" smooth="yes"/>
      <point x="1172" y="-108"/>
      <point x="1303" y="-5"/>
      <point x="1303" y="68" type="qcurve" smooth="yes"/>
      <point x="1303" y="70" type="line" smooth="yes"/>
      <point x="1303" y="142"/>
      <point x="1172" y="246"/>
      <point x="1072" y="246" type="qcurve" smooth="yes"/>
      <point x="1003" y="246"/>
      <point x="891" y="193"/>
      <point x="868" y="148" type="qcurve"/>
      <point x="868" y="237" type="line"/>
      <point x="840" y="237" type="line"/>
    </contour>
    <contour>
      <point x="981" y="-89"/>
      <point x="866" y="2"/>
      <point x="866" y="68" type="qcurve" smooth="yes"/>
      <point x="866" y="70" type="line" smooth="yes"/>
      <point x="866" y="135"/>
      <point x="979" y="227"/>
      <point x="1071" y="227" type="qcurve" smooth="yes"/>
      <point x="1164" y="227"/>
      <point x="1274" y="135"/>
      <point x="1274" y="69" type="qcurve" smooth="yes"/>
      <point x="1274" y="67" type="line" smooth="yes"/>
      <point x="1274" y="-1"/>
      <point x="1164" y="-89"/>
      <point x="1071" y="-89" type="qcurve" smooth="yes"/>
    </contour>
  </outline>
</glyph>
<glyph name="_130" format="1">
  <advance width="0.0"/>
  <outline>
    <component base="uni0A47" xOffset="116"/>
    <component base="uni0A3C" xOffset="1060" yOffset="1145"/>
    <contour>
      <point x="-118" y="1248" type="move" name="_mark0"/>
    </contour>
  </outline>
</glyph>
<glyph name="_131" format="1">
  <advance width="0.0"/>
  <outline>
    <component base="uni0A4B" xOffset="138"/>
    <component base="uni0A3C" xOffset="1082" yOffset="1145"/>
    <contour>
      <point x="-101" y="1248" type="move" name="_mark0"/>
    </contour>
  </outline>
</glyph>
<glyph name="_196" format="1">
  <advance width="1155"/>
  <outline>
    <contour>
      <point x="1174" y="290" type="line"/>
      <point x="1027" y="290" type="line"/>
      <point x="1027" y="-316" type="line"/>
      <point x="899" y="-316" type="line"/>
      <point x="899" y="-3" type="line"/>
      <point x="674" y="-3" type="line"/>
      <point x="674" y="-189" type="line"/>
      <point x="603" y="-202" name="inserted"/>
      <point x="492" y="-215"/>
      <point x="451" y="-215" type="qcurve"/>
      <point x="328" y="-215" name="inserted"/>
      <point x="142" y="-132"/>
      <point x="78" y="-48" type="qcurve"/>
      <point x="130" y="-5" name="inserted"/>
      <point x="182" y="81"/>
      <point x="182" y="124" type="qcurve"/>
      <point x="182" y="172" name="inserted"/>
      <point x="146" y="255"/>
      <point x="110" y="290" type="qcurve"/>
      <point x="93" y="290" name="inserted"/>
      <point x="38" y="290"/>
      <point x="0" y="290" type="qcurve"/>
      <point x="0" y="364" type="line"/>
      <point x="1174" y="364" type="line"/>
    </contour>
    <contour>
      <point x="899" y="80" type="line"/>
      <point x="899" y="290" type="line"/>
      <point x="251" y="290" type="line"/>
      <point x="284" y="244" name="inserted"/>
      <point x="316" y="161"/>
      <point x="316" y="124" type="qcurve"/>
      <point x="316" y="90" name="inserted"/>
      <point x="276" y="4"/>
      <point x="236" y="-47" type="qcurve"/>
      <point x="267" y="-90" name="inserted"/>
      <point x="374" y="-133"/>
      <point x="451" y="-133" type="qcurve"/>
      <point x="477" y="-133" name="inserted"/>
      <point x="525" y="-126"/>
      <point x="547" y="-120" type="qcurve"/>
      <point x="547" y="80" type="line"/>
    </contour>
    <contour>
      <point x="1251" y="-601" type="line"/>
      <point x="1150" y="-651" type="line"/>
      <point x="914" y="-437" type="line"/>
      <point x="1017" y="-390" type="line"/>
    </contour>
  </outline>
</glyph>
<glyph name=".notdef" format="1">
  <advance width="704.0"/>
  <outline>
    <contour>
      <point x="704" y="0" type="line"/>
      <point x="704" y="634" type="line"/>
      <point x="0" y="634" type="line"/>
      <point x="0" y="0" type="line"/>
    </contour>
    <contour>
      <point x="591" y="588" type="line"/>
      <point x="351" y="357" type="line"/>
      <point x="113" y="588" type="line"/>
    </contour>
    <contour>
      <point x="632" y="86" type="line"/>
      <point x="394" y="317" type="line"/>
      <point x="632" y="548" type="line"/>
    </contour>
    <contour>
      <point x="113" y="45" type="line"/>
      <point x="351" y="276" type="line"/>
      <point x="591" y="45" type="line"/>
    </contour>
    <contour>
      <point x="70" y="548" type="line"/>
      <point x="310" y="317" type="line"/>
      <point x="70" y="86" type="line"/>
    </contour>
  </outline>
</glyph>
<glyph name="afii301" format="1">
  <advance width="0.0"/>
  <outline>
    <contour>
      <point x="175" y="572" type="line"/>
      <point x="136" y="546" type="line"/>
      <point x="29" y="616" type="line"/>
      <point x="29" y="-275" type="line"/>
      <point x="-29" y="-275" type="line"/>
      <point x="-29" y="616" type="line"/>
      <point x="-136" y="546" type="line"/>
      <point x="-175" y="572" type="line"/>
      <point x="-38" y="659" type="line"/>
      <point x="-175" y="745" type="line"/>
      <point x="-136" y="770" type="line"/>
      <point x="0" y="682" type="line"/>
      <point x="136" y="770" type="line"/>
      <point x="175" y="745" type="line"/>
      <point x="38" y="659" type="line"/>
    </contour>
  </outline>
</glyph>
<glyph name="ampersand.001" format="1">
  <advance width="1082"/>
  <outline>
    <contour>
      <point x="266" y="116" type="line" smooth="yes"/>
      <point x="266" y="65"/>
      <point x="390" y="-10"/>
      <point x="489" y="-10" type="qcurve" smooth="yes"/>
      <point x="573" y="-10"/>
      <point x="705" y="47"/>
      <point x="750" y="85" type="qcurve" smooth="yes"/>
      <point x="789" y="117"/>
      <point x="845" y="191"/>
      <point x="868" y="232" type="qcurve"/>
      <point x="840" y="238" type="line"/>
      <point x="816" y="196"/>
      <point x="765" y="129"/>
      <point x="729" y="98" type="qcurve" smooth="yes"/>
      <point x="682" y="57"/>
      <point x="560" y="9"/>
      <point x="489" y="9" type="qcurve" smooth="yes"/>
      <point x="400" y="9"/>
      <point x="296" y="74"/>
      <point x="296" y="116" type="qcurve" smooth="yes"/>
      <point x="296" y="117" type="line" smooth="yes"/>
      <point x="296" y="160"/>
      <point x="389" y="229"/>
      <point x="498" y="258" type="qcurve"/>
      <point x="628" y="291"/>
      <point x="710" y="356"/>
      <point x="710" y="391" type="qcurve" smooth="yes"/>
      <point x="710" y="393" type="line" smooth="yes"/>
      <point x="710" y="429"/>
      <point x="620" y="490"/>
      <point x="543" y="490" type="qcurve" smooth="yes"/>
      <point x="461" y="490"/>
      <point x="372" y="425"/>
      <point x="372" y="390" type="qcurve" smooth="yes"/>
      <point x="372" y="389" type="line" smooth="yes"/>
      <point x="372" y="363"/>
      <point x="415" y="307"/>
      <point x="467" y="270" type="qcurve" smooth="yes"/>
      <point x="871" y="-10" type="line"/>
      <point x="891" y="2" type="line"/>
      <point x="491" y="280" type="line" smooth="yes"/>
      <point x="439" y="316"/>
      <point x="401" y="366"/>
      <point x="401" y="389" type="qcurve" smooth="yes"/>
      <point x="401" y="391" type="line" smooth="yes"/>
      <point x="401" y="421"/>
      <point x="473" y="472"/>
      <point x="543" y="472" type="qcurve" smooth="yes"/>
      <point x="610" y="472"/>
      <point x="682" y="423"/>
      <point x="682" y="393" type="qcurve" smooth="yes"/>
      <point x="682" y="391" type="line" smooth="yes"/>
      <point x="682" y="358"/>
      <point x="597" y="303"/>
      <point x="480" y="271" type="qcurve"/>
      <point x="360" y="237"/>
      <point x="266" y="165"/>
      <point x="266" y="117" type="qcurve"/>
    </contour>
  </outline>
</glyph>
<glyph name="ampersand.002" format="1">
  <advance width="1082"/>
  <outline>
    <contour>
      <point x="274" y="105" type="line" smooth="yes"/>
      <point x="274" y="58"/>
      <point x="394" y="-10"/>
      <point x="486" y="-10" type="qcurve" smooth="yes"/>
      <point x="559" y="-10"/>
      <point x="666" y="20"/>
      <point x="716" y="52" type="qcurve" smooth="yes"/>
      <point x="760" y="80"/>
      <point x="839" y="151"/>
      <point x="885" y="209" type="qcurve"/>
      <point x="858" y="218" type="line"/>
      <point x="814" y="156"/>
      <point x="729" y="87"/>
      <point x="702" y="70" type="qcurve" smooth="yes"/>
      <point x="651" y="37"/>
      <point x="545" y="9"/>
      <point x="490" y="9" type="qcurve" smooth="yes"/>
      <point x="406" y="9"/>
      <point x="304" y="67"/>
      <point x="304" y="105" type="qcurve" smooth="yes"/>
      <point x="304" y="106" type="line" smooth="yes"/>
      <point x="304" y="146"/>
      <point x="388" y="222"/>
      <point x="498" y="269" type="qcurve"/>
      <point x="603" y="314"/>
      <point x="666" y="377"/>
      <point x="666" y="410" type="qcurve" smooth="yes"/>
      <point x="666" y="440"/>
      <point x="583" y="490"/>
      <point x="505" y="490" type="qcurve" smooth="yes"/>
      <point x="424" y="490"/>
      <point x="338" y="441"/>
      <point x="338" y="403" type="qcurve" smooth="yes"/>
      <point x="338" y="367"/>
      <point x="399" y="306"/>
      <point x="464" y="261" type="qcurve" smooth="yes"/>
      <point x="839" y="-10" type="line"/>
      <point x="866" y="-1" type="line"/>
      <point x="488" y="271" type="line" smooth="yes"/>
      <point x="422" y="319"/>
      <point x="366" y="371"/>
      <point x="366" y="397" type="qcurve" smooth="yes"/>
      <point x="366" y="432"/>
      <point x="438" y="472"/>
      <point x="502" y="472" type="qcurve" smooth="yes"/>
      <point x="567" y="472"/>
      <point x="637" y="432"/>
      <point x="637" y="408" type="qcurve" smooth="yes"/>
      <point x="637" y="383"/>
      <point x="579" y="323"/>
      <point x="480" y="281" type="qcurve"/>
      <point x="366" y="235"/>
      <point x="274" y="149"/>
      <point x="274" y="106" type="qcurve"/>
    </contour>
  </outline>
</glyph>
<glyph name="comma.001" format="1">
  <advance width="351"/>
  <outline>
    <contour>
      <point x="159" y="-109" type="line"/>
      <point x="159" y="-179" type="line" smooth="yes"/>
      <point x="159" y="-242"/>
      <point x="113" y="-328"/>
      <point x="72" y="-370" type="qcurve"/>
      <point x="90" y="-374" type="line"/>
      <point x="133" y="-333"/>
      <point x="188" y="-236"/>
      <point x="188" y="-179" type="qcurve" smooth="yes"/>
      <point x="188" y="-109" type="line"/>
    </contour>
  </outline>
</glyph>
<glyph name="exclam.002" format="1">
  <advance width="538"/>
  <outline>
    <contour>
      <point x="264" y="555" type="line"/>
      <point x="264" y="438" type="line"/>
      <point x="268" y="184" type="line"/>
      <point x="290" y="184" type="line"/>
      <point x="293" y="438" type="line"/>
      <point x="293" y="555" type="line"/>
    </contour>
    <component base="period" xOffset="62"/>
  </outline>
</glyph>
<glyph name="lines" format="1">
  <advance width="855"/>
  <outline>
    <contour>
      <point x="667" y="492" type="line"/>
      <point x="639" y="492" type="line"/>
      <point x="639" y="0" type="line"/>
      <point x="667" y="0" type="line"/>
    </contour>
    <contour>
      <point x="855" y="474" type="line"/>
      <point x="855" y="492" type="line"/>
      <point x="362" y="492" type="line"/>
      <point x="362" y="474" type="line"/>
    </contour>
    <contour>
      <point x="374" y="474" type="line"/>
      <point x="374" y="492" type="line"/>
      <point x="0" y="492" type="line"/>
      <point x="0" y="474" type="line"/>
    </contour>
  </outline>
</glyph>
<glyph name="period.001" format="1">
  <advance width="353"/>
  <outline>
    <contour>
      <point x="160" y="0" type="line"/>
      <point x="194" y="0" type="line"/>
      <point x="194" y="71" type="line"/>
      <point x="160" y="71" type="line"/>
    </contour>
  </outline>
</glyph>
<glyph name="published" format="1">
  <advance width="406"/>
  <outline>
    <contour>
      <point x="406" y="474" type="line"/>
      <point x="406" y="492" type="line"/>
      <point x="0" y="492" type="line"/>
      <point x="0" y="474" type="line"/>
    </contour>
    <contour>
      <point x="189" y="492" type="line"/>
      <point x="189" y="0" type="line"/>
      <point x="217" y="0" type="line"/>
      <point x="217" y="492" type="line"/>
    </contour>
  </outline>
</glyph>
<glyph name="quotedblright.001" format="1">
  <advance width="748.0"/>
  <outline>
    <contour>
      <point x="527" y="828" type="line"/>
      <point x="527" y="758" type="line" smooth="yes"/>
      <point x="527" y="695"/>
      <point x="481" y="609"/>
      <point x="440" y="567" type="qcurve"/>
      <point x="458" y="563" type="line"/>
      <point x="501" y="604"/>
      <point x="556" y="701"/>
      <point x="556" y="758" type="qcurve" smooth="yes"/>
      <point x="556" y="828" type="line"/>
    </contour>
    <contour>
      <point x="223" y="828" type="line"/>
      <point x="223" y="758" type="line" smooth="yes"/>
      <point x="223" y="695"/>
      <point x="177" y="609"/>
      <point x="136" y="567" type="qcurve"/>
      <point x="154" y="563" type="line"/>
      <point x="197" y="604"/>
      <point x="252" y="701"/>
      <point x="252" y="758" type="qcurve" smooth="yes"/>
      <point x="252" y="828" type="line"/>
    </contour>
  </outline>
</glyph>
<glyph name="rupee" format="1">
  <advance width="1737"/>
  <outline>
    <contour>
      <point x="146" y="-10" type="line"/>
      <point x="182" y="-10" type="line"/>
      <point x="182" y="301" type="line"/>
      <point x="469" y="301" type="line" smooth="yes"/>
      <point x="482" y="301"/>
      <point x="511" y="302"/>
      <point x="524" y="302" type="qcurve"/>
      <point x="877" y="-10" type="line"/>
      <point x="921" y="-10" type="line"/>
      <point x="564" y="304" type="line"/>
      <point x="720" y="319"/>
      <point x="898" y="431"/>
      <point x="898" y="515" type="qcurve" smooth="yes"/>
      <point x="898" y="517" type="line" smooth="yes"/>
      <point x="898" y="612"/>
      <point x="682" y="729"/>
      <point x="486" y="729" type="qcurve" smooth="yes"/>
      <point x="146" y="729" type="line"/>
    </contour>
    <contour>
      <point x="182" y="322" type="line"/>
      <point x="182" y="708" type="line"/>
      <point x="483" y="708" type="line" smooth="yes"/>
      <point x="661" y="708"/>
      <point x="862" y="603"/>
      <point x="862" y="516" type="qcurve" smooth="yes"/>
      <point x="862" y="514" type="line" smooth="yes"/>
      <point x="862" y="436"/>
      <point x="667" y="322"/>
      <point x="469" y="322" type="qcurve" smooth="yes"/>
    </contour>
    <contour>
      <point x="1477" y="-20"/>
      <point x="1638" y="54"/>
      <point x="1638" y="120" type="qcurve" smooth="yes"/>
      <point x="1638" y="120" type="line"/>
      <point x="1638" y="176"/>
      <point x="1518" y="242"/>
      <point x="1379" y="268" type="qcurve" smooth="yes"/>
      <point x="1237" y="294"/>
      <point x="1130" y="354"/>
      <point x="1130" y="399" type="qcurve" smooth="yes"/>
      <point x="1130" y="399" type="line"/>
      <point x="1130" y="446"/>
      <point x="1253" y="508"/>
      <point x="1346" y="508" type="qcurve" smooth="yes"/>
      <point x="1421" y="508"/>
      <point x="1537" y="480"/>
      <point x="1593" y="454" type="qcurve"/>
      <point x="1612" y="472" type="line"/>
      <point x="1559" y="497"/>
      <point x="1427" y="530"/>
      <point x="1349" y="530" type="qcurve" smooth="yes"/>
      <point x="1243" y="530"/>
      <point x="1096" y="457"/>
      <point x="1096" y="396" type="qcurve" smooth="yes"/>
      <point x="1096" y="396" type="line"/>
      <point x="1096" y="340"/>
      <point x="1224" y="274"/>
      <point x="1370" y="247" type="qcurve" smooth="yes"/>
      <point x="1502" y="221"/>
      <point x="1604" y="165"/>
      <point x="1604" y="118" type="qcurve" smooth="yes"/>
      <point x="1604" y="118" type="line"/>
      <point x="1604" y="63"/>
      <point x="1464" y="1"/>
      <point x="1370" y="1" type="qcurve" smooth="yes"/>
      <point x="1285" y="1"/>
      <point x="1144" y="37"/>
      <point x="1086" y="70" type="qcurve"/>
      <point x="1063" y="53" type="line"/>
      <point x="1119" y="21"/>
      <point x="1272" y="-20"/>
      <point x="1368" y="-20" type="qcurve" smooth="yes"/>
    </contour>
  </outline>
</glyph>
<glyph name="rupeeIndian" format="1">
  <advance width="886"/>
  <outline>
    <contour>
      <point x="822" y="449" type="line"/>
      <point x="822" y="467" type="line"/>
      <point x="295" y="467" type="line"/>
      <point x="295" y="449" type="line"/>
    </contour>
    <contour>
      <point x="346" y="194" type="line"/>
      <point x="356" y="189" type="line"/>
      <point x="422" y="142"/>
      <point x="624" y="30"/>
      <point x="677" y="-2" type="qcurve"/>
      <point x="697" y="9" type="line"/>
      <point x="632" y="51"/>
      <point x="451" y="148"/>
      <point x="369" y="201" type="qcurve"/>
      <point x="355" y="211" type="line"/>
    </contour>
    <contour>
      <point x="822" y="321" type="line"/>
      <point x="822" y="339" type="line"/>
      <point x="295" y="339" type="line"/>
      <point x="295" y="321" type="line"/>
    </contour>
    <contour>
      <point x="466" y="466" type="line"/>
      <point x="501" y="455" type="line" smooth="yes"/>
      <point x="569" y="436"/>
      <point x="634" y="365"/>
      <point x="634" y="334" type="qcurve" smooth="yes"/>
      <point x="634" y="287"/>
      <point x="501" y="217"/>
      <point x="386" y="212" type="qcurve" smooth="yes"/>
      <point x="354" y="210" type="line"/>
      <point x="367" y="193" type="line"/>
      <point x="402" y="195" type="line" smooth="yes"/>
      <point x="531" y="205"/>
      <point x="661" y="280"/>
      <point x="661" y="337" type="qcurve" smooth="yes"/>
      <point x="661" y="363"/>
      <point x="606" y="432"/>
      <point x="543" y="456" type="qcurve" smooth="yes"/>
      <point x="516" y="466" type="line"/>
    </contour>
  </outline>
</glyph>
<glyph name="u0A05_u0A3C" format="1">
  <advance width="1197"/>
  <outline>
    <contour>
      <point x="1216" y="606" type="line"/>
      <point x="1069" y="606" type="line"/>
      <point x="1069" y="0" type="line"/>
      <point x="941" y="0" type="line"/>
      <point x="941" y="303" type="line"/>
      <point x="919" y="305" name="inserted"/>
      <point x="880" y="307"/>
      <point x="862" y="307" type="qcurve"/>
      <point x="829" y="307" name="inserted"/>
      <point x="774" y="304"/>
      <point x="751" y="301" type="qcurve"/>
      <point x="741" y="236" name="inserted"/>
      <point x="683" y="170"/>
      <point x="634" y="170" type="qcurve"/>
      <point x="590" y="170" name="inserted"/>
      <point x="546" y="208"/>
      <point x="546" y="245" type="qcurve"/>
      <point x="546" y="265"/>
      <point x="624" y="355"/>
      <point x="624" y="389" type="qcurve"/>
      <point x="624" y="410" name="inserted"/>
      <point x="606" y="461"/>
      <point x="588" y="491" type="qcurve"/>
      <point x="571" y="519" name="inserted"/>
      <point x="532" y="567"/>
      <point x="509" y="586" type="qcurve"/>
      <point x="465" y="562" name="inserted"/>
      <point x="381" y="492"/>
      <point x="340" y="447" type="qcurve"/>
      <point x="343" y="434" name="inserted"/>
      <point x="346" y="408"/>
      <point x="346" y="396" type="qcurve"/>
      <point x="346" y="342" name="inserted"/>
      <point x="293" y="288"/>
      <point x="241" y="288" type="qcurve"/>
      <point x="199" y="288"/>
      <point x="146" y="324"/>
      <point x="146" y="356" type="qcurve"/>
      <point x="146" y="384"/>
      <point x="206" y="452"/>
      <point x="206" y="475" type="qcurve"/>
      <point x="206" y="493" name="inserted"/>
      <point x="186" y="531"/>
      <point x="166" y="551" type="qcurve"/>
      <point x="148" y="567" name="inserted"/>
      <point x="108" y="595"/>
      <point x="84" y="606" type="qcurve"/>
      <point x="0" y="606" type="line"/>
      <point x="0" y="680" type="line"/>
      <point x="126" y="680" type="line"/>
      <point x="187" y="651" name="inserted"/>
      <point x="273" y="583"/>
      <point x="299" y="544" type="qcurve"/>
      <point x="321" y="561" name="inserted"/>
      <point x="364" y="596"/>
      <point x="386" y="614" type="qcurve"/>
      <point x="418" y="638" name="inserted"/>
      <point x="479" y="674"/>
      <point x="508" y="685" type="qcurve"/>
      <point x="564" y="670" name="inserted"/>
      <point x="657" y="601"/>
      <point x="694" y="546" type="qcurve"/>
      <point x="722" y="505" name="inserted"/>
      <point x="755" y="420"/>
      <point x="760" y="377" type="qcurve"/>
      <point x="778" y="379" name="inserted"/>
      <point x="829" y="381"/>
      <point x="862" y="381" type="qcurve"/>
      <point x="891" y="381" name="inserted"/>
      <point x="930" y="380"/>
      <point x="941" y="379" type="qcurve"/>
      <point x="941" y="680" type="line"/>
      <point x="1216" y="680" type="line"/>
    </contour>
    <contour>
      <point x="327" y="78" type="qcurve"/>
      <point x="327" y="56"/>
      <point x="278" y="25"/>
      <point x="244" y="25" type="qcurve"/>
      <point x="210" y="25"/>
      <point x="161" y="56"/>
      <point x="161" y="78" type="qcurve"/>
      <point x="161" y="100"/>
      <point x="210" y="132"/>
      <point x="244" y="132" type="qcurve"/>
      <point x="278" y="132"/>
      <point x="327" y="100"/>
    </contour>
  </outline>
</glyph>
<glyph name="u0A07_u0A3C" format="1">
  <advance width="1314"/>
  <outline>
    <contour>
      <point x="844" y="634" type="qcurve"/>
      <point x="716" y="634" type="line"/>
      <point x="711" y="655" name="inserted"/>
      <point x="680" y="690"/>
      <point x="654" y="703" type="qcurve"/>
      <point x="629" y="716" name="inserted"/>
      <point x="576" y="728"/>
      <point x="546" y="728" type="qcurve"/>
      <point x="491" y="728" name="inserted"/>
      <point x="407" y="694"/>
      <point x="378" y="661" type="qcurve"/>
      <point x="356" y="636" name="inserted"/>
      <point x="334" y="579"/>
      <point x="334" y="548" type="qcurve"/>
      <point x="485" y="548" type="line"/>
      <point x="485" y="474" type="line"/>
      <point x="334" y="474" type="line"/>
      <point x="334" y="-132" type="line"/>
      <point x="206" y="-132" type="line"/>
      <point x="206" y="474" type="line"/>
      <point x="0" y="474" type="line"/>
      <point x="0" y="548" type="line"/>
      <point x="206" y="548" type="line"/>
      <point x="206" y="596" name="inserted"/>
      <point x="242" y="680"/>
      <point x="278" y="717" type="qcurve"/>
      <point x="324" y="763" name="inserted"/>
      <point x="458" y="810"/>
      <point x="546" y="810" type="qcurve"/>
      <point x="658" y="810"/>
      <point x="838" y="702"/>
    </contour>
    <contour>
      <point x="1334" y="474" type="line"/>
      <point x="1178" y="474" type="line"/>
      <point x="1178" y="171" type="line"/>
      <point x="867" y="171" type="line"/>
      <point x="827" y="171" name="inserted"/>
      <point x="745" y="155"/>
      <point x="703" y="138" type="qcurve"/>
      <point x="666" y="123" name="inserted"/>
      <point x="608" y="88"/>
      <point x="586" y="68" type="qcurve"/>
      <point x="671" y="9" name="inserted"/>
      <point x="836" y="-50"/>
      <point x="916" y="-50" type="qcurve"/>
      <point x="1040" y="-50"/>
      <point x="1158" y="-34"/>
      <point x="1276" y="-2" type="qcurve"/>
      <point x="1252" y="-37" name="inserted"/>
      <point x="1183" y="-88"/>
      <point x="1138" y="-103" type="qcurve"/>
      <point x="1096" y="-117" name="inserted"/>
      <point x="985" y="-132"/>
      <point x="916" y="-132" type="qcurve"/>
      <point x="801" y="-132" name="inserted"/>
      <point x="559" y="-36"/>
      <point x="432" y="61" type="qcurve"/>
      <point x="455" y="87" name="inserted"/>
      <point x="497" y="126"/>
      <point x="517" y="139" type="qcurve"/>
      <point x="539" y="154" name="inserted"/>
      <point x="605" y="186"/>
      <point x="649" y="203" type="qcurve"/>
      <point x="632" y="209" name="inserted"/>
      <point x="602" y="226"/>
      <point x="587" y="236" type="qcurve"/>
      <point x="541" y="268" name="inserted"/>
      <point x="492" y="387"/>
      <point x="490" y="474" type="qcurve"/>
      <point x="364" y="474" type="line"/>
      <point x="364" y="548" type="line"/>
      <point x="1334" y="548" type="line"/>
    </contour>
    <contour>
      <point x="1050" y="255" type="line"/>
      <point x="1050" y="474" type="line"/>
      <point x="618" y="474" type="line"/>
      <point x="618" y="426" name="inserted"/>
      <point x="631" y="354"/>
      <point x="645" y="330" type="qcurve"/>
      <point x="666" y="293" name="inserted"/>
      <point x="743" y="255"/>
      <point x="799" y="255" type="qcurve"/>
    </contour>
    <contour>
      <point x="523" y="-218" type="qcurve"/>
      <point x="523" y="-241"/>
      <point x="474" y="-272"/>
      <point x="440" y="-272" type="qcurve"/>
      <point x="406" y="-272"/>
      <point x="357" y="-241"/>
      <point x="357" y="-218" type="qcurve"/>
      <point x="357" y="-196"/>
      <point x="406" y="-165"/>
      <point x="440" y="-165" type="qcurve"/>
      <point x="474" y="-165"/>
      <point x="523" y="-196"/>
    </contour>
  </outline>
</glyph>
<glyph name="u0A09_u0A3C" format="1">
  <advance width="1133"/>
  <outline>
    <contour>
      <point x="1152" y="411" type="line"/>
      <point x="1058" y="411" type="line"/>
      <point x="1058" y="362" type="line"/>
      <point x="1058" y="283" name="inserted"/>
      <point x="947" y="163"/>
      <point x="835" y="121" type="qcurve"/>
      <point x="862" y="103" name="inserted"/>
      <point x="900" y="71"/>
      <point x="910" y="57" type="qcurve"/>
      <point x="922" y="41" name="inserted"/>
      <point x="934" y="2"/>
      <point x="934" y="-21" type="qcurve"/>
      <point x="934" y="-65" name="inserted"/>
      <point x="874" y="-131"/>
      <point x="813" y="-153" type="qcurve"/>
      <point x="764" y="-171" name="inserted"/>
      <point x="641" y="-189"/>
      <point x="567" y="-189" type="qcurve"/>
      <point x="430" y="-189" name="inserted"/>
      <point x="232" y="-90"/>
      <point x="170" y="10" type="qcurve"/>
      <point x="126" y="81" name="inserted"/>
      <point x="82" y="256"/>
      <point x="82" y="361" type="qcurve"/>
      <point x="82" y="375" name="inserted"/>
      <point x="83" y="400"/>
      <point x="84" y="411" type="qcurve"/>
      <point x="0" y="411" type="line"/>
      <point x="0" y="485" type="line"/>
      <point x="106" y="485" type="line"/>
      <point x="130" y="540" name="inserted"/>
      <point x="215" y="627"/>
      <point x="277" y="659" type="qcurve"/>
      <point x="342" y="693" name="inserted"/>
      <point x="504" y="727"/>
      <point x="600" y="727" type="qcurve"/>
      <point x="677" y="727" name="inserted"/>
      <point x="819" y="692"/>
      <point x="883" y="657" type="qcurve"/>
      <point x="946" y="622" name="inserted"/>
      <point x="1030" y="536"/>
      <point x="1050" y="485" type="qcurve"/>
      <point x="1152" y="485" type="line"/>
    </contour>
    <contour>
      <point x="921" y="485" type="line"/>
      <point x="902" y="520" name="inserted"/>
      <point x="832" y="578"/>
      <point x="782" y="601" type="qcurve"/>
      <point x="733" y="623" name="inserted"/>
      <point x="632" y="646"/>
      <point x="580" y="646" type="qcurve"/>
      <point x="524" y="646" name="inserted"/>
      <point x="420" y="622"/>
      <point x="372" y="598" type="qcurve"/>
      <point x="326" y="576" name="inserted"/>
      <point x="258" y="519"/>
      <point x="235" y="485" type="qcurve"/>
    </contour>
    <contour>
      <point x="929" y="362" type="qcurve"/>
      <point x="929" y="411" type="line"/>
      <point x="214" y="411" type="line"/>
      <point x="212" y="392" name="inserted"/>
      <point x="210" y="350"/>
      <point x="210" y="326" type="qcurve"/>
      <point x="210" y="284" name="inserted"/>
      <point x="219" y="211"/>
      <point x="228" y="180" type="qcurve"/>
      <point x="678" y="180" type="line"/>
      <point x="722" y="180" name="inserted"/>
      <point x="807" y="212"/>
      <point x="849" y="243" type="qcurve"/>
      <point x="889" y="274" name="inserted"/>
      <point x="929" y="333"/>
    </contour>
    <contour>
      <point x="814" y="-21" type="qcurve"/>
      <point x="814" y="10" name="inserted"/>
      <point x="768" y="58"/>
      <point x="721" y="75" type="qcurve"/>
      <point x="682" y="90" name="inserted"/>
      <point x="590" y="105"/>
      <point x="538" y="105" type="qcurve"/>
      <point x="244" y="105" type="line"/>
      <point x="262" y="64" name="inserted"/>
      <point x="319" y="-7"/>
      <point x="358" y="-36" type="qcurve"/>
      <point x="404" y="-71" name="inserted"/>
      <point x="509" y="-107"/>
      <point x="567" y="-107" type="qcurve"/>
      <point x="691" y="-107" name="inserted"/>
      <point x="814" y="-64"/>
    </contour>
    <contour>
      <point x="934" y="-326" type="qcurve"/>
      <point x="855" y="-364" name="inserted"/>
      <point x="672" y="-402"/>
      <point x="566" y="-402" type="qcurve"/>
      <point x="462" y="-402" name="inserted"/>
      <point x="278" y="-364"/>
      <point x="199" y="-326" type="qcurve"/>
      <point x="218" y="-310" name="inserted"/>
      <point x="256" y="-277"/>
      <point x="276" y="-260" type="qcurve"/>
      <point x="300" y="-271" name="inserted"/>
      <point x="364" y="-291"/>
      <point x="403" y="-300" type="qcurve"/>
      <point x="448" y="-310" name="inserted"/>
      <point x="530" y="-320"/>
      <point x="566" y="-320" type="qcurve"/>
      <point x="603" y="-320" name="inserted"/>
      <point x="688" y="-309"/>
      <point x="736" y="-297" type="qcurve"/>
      <point x="777" y="-288" name="inserted"/>
      <point x="838" y="-270"/>
      <point x="857" y="-260" type="qcurve"/>
      <point x="877" y="-277" name="inserted"/>
      <point x="915" y="-310"/>
    </contour>
    <contour>
      <point x="197" y="-191" type="qcurve"/>
      <point x="197" y="-213"/>
      <point x="148" y="-244"/>
      <point x="114" y="-244" type="qcurve"/>
      <point x="79" y="-244"/>
      <point x="30" y="-213"/>
      <point x="30" y="-191" type="qcurve"/>
      <point x="30" y="-169"/>
      <point x="79" y="-137"/>
      <point x="114" y="-137" type="qcurve"/>
      <point x="148" y="-137"/>
      <point x="197" y="-169"/>
    </contour>
  </outline>
</glyph>
<glyph name="u0A09_u0A71" format="1">
  <advance width="1181"/>
  <outline>
    <contour>
      <point x="1487" y="713" type="line"/>
      <point x="1487" y="678" name="inserted"/>
      <point x="1460" y="623"/>
      <point x="1432" y="602" type="qcurve"/>
      <point x="1402" y="581" name="inserted"/>
      <point x="1318" y="559"/>
      <point x="1262" y="559" type="qcurve"/>
      <point x="1208" y="559" name="inserted"/>
      <point x="1123" y="581"/>
      <point x="1094" y="602" type="qcurve"/>
      <point x="1066" y="623" name="inserted"/>
      <point x="1038" y="678"/>
      <point x="1038" y="713" type="qcurve"/>
      <point x="1153" y="713" type="line"/>
      <point x="1153" y="673" name="inserted"/>
      <point x="1208" y="633"/>
      <point x="1262" y="633" type="qcurve"/>
      <point x="1317" y="633" name="inserted"/>
      <point x="1372" y="673"/>
      <point x="1372" y="713" type="qcurve"/>
    </contour>
    <contour>
      <point x="1200" y="411" type="line"/>
      <point x="1058" y="411" type="line"/>
      <point x="1058" y="362" type="line"/>
      <point x="1058" y="283" name="inserted"/>
      <point x="947" y="163"/>
      <point x="835" y="121" type="qcurve"/>
      <point x="862" y="103" name="inserted"/>
      <point x="900" y="71"/>
      <point x="910" y="57" type="qcurve"/>
      <point x="922" y="41" name="inserted"/>
      <point x="934" y="2"/>
      <point x="934" y="-21" type="qcurve"/>
      <point x="934" y="-65" name="inserted"/>
      <point x="874" y="-131"/>
      <point x="813" y="-153" type="qcurve"/>
      <point x="764" y="-171" name="inserted"/>
      <point x="641" y="-189"/>
      <point x="567" y="-189" type="qcurve"/>
      <point x="430" y="-189" name="inserted"/>
      <point x="232" y="-90"/>
      <point x="170" y="10" type="qcurve"/>
      <point x="126" y="81" name="inserted"/>
      <point x="82" y="256"/>
      <point x="82" y="361" type="qcurve"/>
      <point x="82" y="375" name="inserted"/>
      <point x="83" y="400"/>
      <point x="84" y="411" type="qcurve"/>
      <point x="0" y="411" type="line"/>
      <point x="0" y="485" type="line"/>
      <point x="106" y="485" type="line"/>
      <point x="130" y="540" name="inserted"/>
      <point x="215" y="627"/>
      <point x="277" y="659" type="qcurve"/>
      <point x="342" y="693" name="inserted"/>
      <point x="504" y="727"/>
      <point x="600" y="727" type="qcurve"/>
      <point x="677" y="727" name="inserted"/>
      <point x="819" y="692"/>
      <point x="883" y="657" type="qcurve"/>
      <point x="946" y="622" name="inserted"/>
      <point x="1030" y="536"/>
      <point x="1050" y="485" type="qcurve"/>
      <point x="1200" y="485" type="line"/>
    </contour>
    <contour>
      <point x="937" y="-326" type="qcurve"/>
      <point x="859" y="-364" name="inserted"/>
      <point x="675" y="-402"/>
      <point x="570" y="-402" type="qcurve"/>
      <point x="465" y="-402" name="inserted"/>
      <point x="281" y="-364"/>
      <point x="202" y="-326" type="qcurve"/>
      <point x="221" y="-310" name="inserted"/>
      <point x="259" y="-277"/>
      <point x="279" y="-260" type="qcurve"/>
      <point x="334" y="-285"/>
      <point x="503" y="-320"/>
      <point x="570" y="-320" type="qcurve"/>
      <point x="632" y="-320"/>
      <point x="811" y="-284"/>
      <point x="860" y="-260" type="qcurve"/>
      <point x="880" y="-277" name="inserted"/>
      <point x="918" y="-310"/>
    </contour>
    <contour>
      <point x="921" y="485" type="line"/>
      <point x="902" y="520" name="inserted"/>
      <point x="832" y="578"/>
      <point x="782" y="601" type="qcurve"/>
      <point x="733" y="623" name="inserted"/>
      <point x="632" y="646"/>
      <point x="580" y="646" type="qcurve"/>
      <point x="524" y="646" name="inserted"/>
      <point x="420" y="622"/>
      <point x="372" y="598" type="qcurve"/>
      <point x="326" y="576" name="inserted"/>
      <point x="258" y="519"/>
      <point x="235" y="485" type="qcurve"/>
    </contour>
    <contour>
      <point x="929" y="362" type="qcurve"/>
      <point x="929" y="411" type="line"/>
      <point x="214" y="411" type="line"/>
      <point x="212" y="392" name="inserted"/>
      <point x="210" y="350"/>
      <point x="210" y="326" type="qcurve"/>
      <point x="210" y="284" name="inserted"/>
      <point x="219" y="211"/>
      <point x="228" y="180" type="qcurve"/>
      <point x="678" y="180" type="line"/>
      <point x="722" y="180" name="inserted"/>
      <point x="807" y="212"/>
      <point x="849" y="243" type="qcurve"/>
      <point x="889" y="274" name="inserted"/>
      <point x="929" y="333"/>
    </contour>
    <contour>
      <point x="814" y="-21" type="qcurve"/>
      <point x="814" y="10" name="inserted"/>
      <point x="768" y="58"/>
      <point x="721" y="75" type="qcurve"/>
      <point x="682" y="90" name="inserted"/>
      <point x="590" y="105"/>
      <point x="538" y="105" type="qcurve"/>
      <point x="244" y="105" type="line"/>
      <point x="262" y="64" name="inserted"/>
      <point x="319" y="-7"/>
      <point x="358" y="-36" type="qcurve"/>
      <point x="404" y="-71" name="inserted"/>
      <point x="509" y="-107"/>
      <point x="567" y="-107" type="qcurve"/>
      <point x="691" y="-107" name="inserted"/>
      <point x="814" y="-64"/>
    </contour>
  </outline>
</glyph>
<glyph name="u0A0A_u0A02" format="1">
  <advance width="1133"/>
  <outline>
    <contour>
      <point x="1152" y="260" type="line"/>
      <point x="1058" y="260" type="line"/>
      <point x="1058" y="211" type="line"/>
      <point x="1058" y="133" name="inserted"/>
      <point x="947" y="13"/>
      <point x="835" y="-30" type="qcurve"/>
      <point x="862" y="-47" name="inserted"/>
      <point x="900" y="-79"/>
      <point x="910" y="-93" type="qcurve"/>
      <point x="922" y="-110" name="inserted"/>
      <point x="934" y="-149"/>
      <point x="934" y="-172" type="qcurve"/>
      <point x="934" y="-216" name="inserted"/>
      <point x="874" y="-281"/>
      <point x="813" y="-304" type="qcurve"/>
      <point x="764" y="-322" name="inserted"/>
      <point x="641" y="-340"/>
      <point x="567" y="-340" type="qcurve"/>
      <point x="430" y="-340" name="inserted"/>
      <point x="232" y="-240"/>
      <point x="170" y="-140" type="qcurve"/>
      <point x="126" y="-70" name="inserted"/>
      <point x="82" y="106"/>
      <point x="82" y="210" type="qcurve"/>
      <point x="82" y="225" name="inserted"/>
      <point x="83" y="250"/>
      <point x="84" y="260" type="qcurve"/>
      <point x="0" y="260" type="line"/>
      <point x="0" y="334" type="line"/>
      <point x="106" y="334" type="line"/>
      <point x="130" y="390" name="inserted"/>
      <point x="215" y="477"/>
      <point x="277" y="509" type="qcurve"/>
      <point x="342" y="543" name="inserted"/>
      <point x="504" y="577"/>
      <point x="600" y="577" type="qcurve"/>
      <point x="677" y="577" name="inserted"/>
      <point x="819" y="542"/>
      <point x="883" y="506" type="qcurve"/>
      <point x="946" y="472" name="inserted"/>
      <point x="1030" y="386"/>
      <point x="1050" y="334" type="qcurve"/>
      <point x="1152" y="334" type="line"/>
    </contour>
    <contour>
      <point x="921" y="334" type="line"/>
      <point x="902" y="370" name="inserted"/>
      <point x="832" y="428"/>
      <point x="782" y="451" type="qcurve"/>
      <point x="733" y="473" name="inserted"/>
      <point x="632" y="495"/>
      <point x="580" y="495" type="qcurve"/>
      <point x="524" y="495" name="inserted"/>
      <point x="420" y="471"/>
      <point x="372" y="448" type="qcurve"/>
      <point x="326" y="425" name="inserted"/>
      <point x="258" y="369"/>
      <point x="235" y="334" type="qcurve"/>
    </contour>
    <contour>
      <point x="929" y="211" type="qcurve"/>
      <point x="929" y="260" type="line"/>
      <point x="214" y="260" type="line"/>
      <point x="212" y="242" name="inserted"/>
      <point x="210" y="199"/>
      <point x="210" y="176" type="qcurve"/>
      <point x="210" y="134" name="inserted"/>
      <point x="219" y="61"/>
      <point x="228" y="30" type="qcurve"/>
      <point x="678" y="30" type="line"/>
      <point x="722" y="30" name="inserted"/>
      <point x="807" y="62"/>
      <point x="849" y="93" type="qcurve"/>
      <point x="889" y="123" name="inserted"/>
      <point x="929" y="183"/>
    </contour>
    <contour>
      <point x="814" y="-172" type="qcurve"/>
      <point x="814" y="-141" name="inserted"/>
      <point x="768" y="-92"/>
      <point x="721" y="-75" type="qcurve"/>
      <point x="682" y="-60" name="inserted"/>
      <point x="590" y="-46"/>
      <point x="538" y="-46" type="qcurve"/>
      <point x="244" y="-46" type="line"/>
      <point x="262" y="-87" name="inserted"/>
      <point x="319" y="-157"/>
      <point x="358" y="-186" type="qcurve"/>
      <point x="404" y="-222" name="inserted"/>
      <point x="509" y="-257"/>
      <point x="567" y="-257" type="qcurve"/>
      <point x="691" y="-257" name="inserted"/>
      <point x="814" y="-215"/>
    </contour>
    <contour>
      <point x="929" y="-477" type="qcurve"/>
      <point x="850" y="-514" name="inserted"/>
      <point x="667" y="-552"/>
      <point x="562" y="-552" type="qcurve"/>
      <point x="457" y="-552" name="inserted"/>
      <point x="273" y="-514"/>
      <point x="194" y="-477" type="qcurve"/>
      <point x="213" y="-460" name="inserted"/>
      <point x="251" y="-427"/>
      <point x="271" y="-411" type="qcurve"/>
      <point x="295" y="-422" name="inserted"/>
      <point x="359" y="-441"/>
      <point x="398" y="-450" type="qcurve"/>
      <point x="443" y="-460" name="inserted"/>
      <point x="525" y="-470"/>
      <point x="562" y="-470" type="qcurve"/>
      <point x="598" y="-470" name="inserted"/>
      <point x="683" y="-459"/>
      <point x="731" y="-448" type="qcurve"/>
      <point x="772" y="-439" name="inserted"/>
      <point x="833" y="-420"/>
      <point x="852" y="-411" type="qcurve"/>
      <point x="872" y="-427" name="inserted"/>
      <point x="910" y="-460"/>
    </contour>
    <contour>
      <point x="929" y="-636" type="qcurve"/>
      <point x="850" y="-674" name="inserted"/>
      <point x="667" y="-712"/>
      <point x="562" y="-712" type="qcurve"/>
      <point x="457" y="-712" name="inserted"/>
      <point x="273" y="-674"/>
      <point x="194" y="-636" type="qcurve"/>
      <point x="213" y="-620" name="inserted"/>
      <point x="251" y="-587"/>
      <point x="271" y="-570" type="qcurve"/>
      <point x="295" y="-581" name="inserted"/>
      <point x="359" y="-601"/>
      <point x="398" y="-610" type="qcurve"/>
      <point x="443" y="-620" name="inserted"/>
      <point x="525" y="-630"/>
      <point x="562" y="-630" type="qcurve"/>
      <point x="598" y="-630" name="inserted"/>
      <point x="683" y="-619"/>
      <point x="731" y="-607" type="qcurve"/>
      <point x="772" y="-598" name="inserted"/>
      <point x="833" y="-580"/>
      <point x="852" y="-570" type="qcurve"/>
      <point x="872" y="-587" name="inserted"/>
      <point x="910" y="-620"/>
    </contour>
    <contour>
      <point x="1071" y="597" type="qcurve"/>
      <point x="1071" y="575"/>
      <point x="1024" y="545"/>
      <point x="990" y="545" type="qcurve"/>
      <point x="957" y="545"/>
      <point x="910" y="575"/>
      <point x="910" y="597" type="qcurve"/>
      <point x="910" y="618"/>
      <point x="957" y="649"/>
      <point x="990" y="649" type="qcurve"/>
      <point x="1024" y="649"/>
      <point x="1071" y="618"/>
    </contour>
  </outline>
</glyph>
<glyph name="u0A0A_u0A71" format="1">
  <advance width="1181"/>
  <outline>
    <contour>
      <point x="1487" y="563" type="line"/>
      <point x="1487" y="528" name="inserted"/>
      <point x="1460" y="472"/>
      <point x="1432" y="452" type="qcurve"/>
      <point x="1402" y="430" name="inserted"/>
      <point x="1318" y="409"/>
      <point x="1262" y="409" type="qcurve"/>
      <point x="1208" y="409" name="inserted"/>
      <point x="1123" y="430"/>
      <point x="1094" y="452" type="qcurve"/>
      <point x="1066" y="472" name="inserted"/>
      <point x="1038" y="528"/>
      <point x="1038" y="563" type="qcurve"/>
      <point x="1153" y="563" type="line"/>
      <point x="1153" y="523" name="inserted"/>
      <point x="1208" y="483"/>
      <point x="1262" y="483" type="qcurve"/>
      <point x="1317" y="483" name="inserted"/>
      <point x="1372" y="523"/>
      <point x="1372" y="563" type="qcurve"/>
    </contour>
    <contour>
      <point x="1200" y="260" type="line"/>
      <point x="1058" y="260" type="line"/>
      <point x="1058" y="211" type="line"/>
      <point x="1058" y="133" name="inserted"/>
      <point x="947" y="13"/>
      <point x="835" y="-30" type="qcurve"/>
      <point x="862" y="-47" name="inserted"/>
      <point x="900" y="-79"/>
      <point x="910" y="-93" type="qcurve"/>
      <point x="922" y="-110" name="inserted"/>
      <point x="934" y="-149"/>
      <point x="934" y="-172" type="qcurve"/>
      <point x="934" y="-216" name="inserted"/>
      <point x="874" y="-281"/>
      <point x="813" y="-304" type="qcurve"/>
      <point x="764" y="-322" name="inserted"/>
      <point x="641" y="-340"/>
      <point x="567" y="-340" type="qcurve"/>
      <point x="430" y="-340" name="inserted"/>
      <point x="232" y="-240"/>
      <point x="170" y="-140" type="qcurve"/>
      <point x="126" y="-70" name="inserted"/>
      <point x="82" y="106"/>
      <point x="82" y="210" type="qcurve"/>
      <point x="82" y="225" name="inserted"/>
      <point x="83" y="250"/>
      <point x="84" y="260" type="qcurve"/>
      <point x="0" y="260" type="line"/>
      <point x="0" y="334" type="line"/>
      <point x="106" y="334" type="line"/>
      <point x="130" y="390" name="inserted"/>
      <point x="215" y="477"/>
      <point x="277" y="509" type="qcurve"/>
      <point x="342" y="543" name="inserted"/>
      <point x="504" y="577"/>
      <point x="600" y="577" type="qcurve"/>
      <point x="677" y="577" name="inserted"/>
      <point x="819" y="542"/>
      <point x="883" y="506" type="qcurve"/>
      <point x="946" y="472" name="inserted"/>
      <point x="1030" y="386"/>
      <point x="1050" y="334" type="qcurve"/>
      <point x="1200" y="334" type="line"/>
    </contour>
    <contour>
      <point x="937" y="-477" type="qcurve"/>
      <point x="858" y="-514" name="inserted"/>
      <point x="675" y="-552"/>
      <point x="570" y="-552" type="qcurve"/>
      <point x="465" y="-552" name="inserted"/>
      <point x="281" y="-514"/>
      <point x="202" y="-477" type="qcurve"/>
      <point x="221" y="-460" name="inserted"/>
      <point x="259" y="-427"/>
      <point x="279" y="-411" type="qcurve"/>
      <point x="303" y="-422" name="inserted"/>
      <point x="367" y="-441"/>
      <point x="406" y="-450" type="qcurve"/>
      <point x="451" y="-460" name="inserted"/>
      <point x="533" y="-470"/>
      <point x="570" y="-470" type="qcurve"/>
      <point x="606" y="-470" name="inserted"/>
      <point x="691" y="-459"/>
      <point x="739" y="-448" type="qcurve"/>
      <point x="780" y="-439" name="inserted"/>
      <point x="841" y="-420"/>
      <point x="860" y="-411" type="qcurve"/>
      <point x="880" y="-427" name="inserted"/>
      <point x="918" y="-460"/>
    </contour>
    <contour>
      <point x="937" y="-636" type="qcurve"/>
      <point x="858" y="-674" name="inserted"/>
      <point x="675" y="-712"/>
      <point x="570" y="-712" type="qcurve"/>
      <point x="465" y="-712" name="inserted"/>
      <point x="281" y="-674"/>
      <point x="202" y="-636" type="qcurve"/>
      <point x="221" y="-620" name="inserted"/>
      <point x="259" y="-587"/>
      <point x="279" y="-570" type="qcurve"/>
      <point x="303" y="-581" name="inserted"/>
      <point x="367" y="-601"/>
      <point x="406" y="-610" type="qcurve"/>
      <point x="451" y="-620" name="inserted"/>
      <point x="533" y="-630"/>
      <point x="570" y="-630" type="qcurve"/>
      <point x="606" y="-630" name="inserted"/>
      <point x="691" y="-619"/>
      <point x="739" y="-607" type="qcurve"/>
      <point x="780" y="-598" name="inserted"/>
      <point x="841" y="-580"/>
      <point x="860" y="-570" type="qcurve"/>
      <point x="880" y="-587" name="inserted"/>
      <point x="918" y="-620"/>
    </contour>
    <contour>
      <point x="921" y="334" type="line"/>
      <point x="902" y="370" name="inserted"/>
      <point x="832" y="428"/>
      <point x="782" y="451" type="qcurve"/>
      <point x="733" y="473" name="inserted"/>
      <point x="632" y="495"/>
      <point x="580" y="495" type="qcurve"/>
      <point x="524" y="495" name="inserted"/>
      <point x="420" y="471"/>
      <point x="372" y="448" type="qcurve"/>
      <point x="326" y="425" name="inserted"/>
      <point x="258" y="369"/>
      <point x="235" y="334" type="qcurve"/>
    </contour>
    <contour>
      <point x="929" y="211" type="qcurve"/>
      <point x="929" y="260" type="line"/>
      <point x="214" y="260" type="line"/>
      <point x="212" y="242" name="inserted"/>
      <point x="210" y="199"/>
      <point x="210" y="176" type="qcurve"/>
      <point x="210" y="134" name="inserted"/>
      <point x="219" y="61"/>
      <point x="228" y="30" type="qcurve"/>
      <point x="678" y="30" type="line"/>
      <point x="722" y="30" name="inserted"/>
      <point x="807" y="62"/>
      <point x="849" y="93" type="qcurve"/>
      <point x="889" y="123" name="inserted"/>
      <point x="929" y="183"/>
    </contour>
    <contour>
      <point x="814" y="-172" type="qcurve"/>
      <point x="814" y="-141" name="inserted"/>
      <point x="768" y="-92"/>
      <point x="721" y="-75" type="qcurve"/>
      <point x="682" y="-60" name="inserted"/>
      <point x="590" y="-46"/>
      <point x="538" y="-46" type="qcurve"/>
      <point x="244" y="-46" type="line"/>
      <point x="262" y="-87" name="inserted"/>
      <point x="319" y="-157"/>
      <point x="358" y="-186" type="qcurve"/>
      <point x="404" y="-222" name="inserted"/>
      <point x="509" y="-257"/>
      <point x="567" y="-257" type="qcurve"/>
      <point x="691" y="-257" name="inserted"/>
      <point x="814" y="-215"/>
    </contour>
  </outline>
</glyph>
<glyph name="u0A10_u0A3C" format="1">
  <advance width="1197"/>
  <outline>
    <contour>
      <point x="1216" y="606" type="line"/>
      <point x="1069" y="606" type="line"/>
      <point x="1069" y="0" type="line"/>
      <point x="941" y="0" type="line"/>
      <point x="941" y="303" type="line"/>
      <point x="919" y="305" name="inserted"/>
      <point x="880" y="307"/>
      <point x="862" y="307" type="qcurve"/>
      <point x="829" y="307" name="inserted"/>
      <point x="774" y="304"/>
      <point x="751" y="301" type="qcurve"/>
      <point x="741" y="236" name="inserted"/>
      <point x="683" y="170"/>
      <point x="634" y="170" type="qcurve"/>
      <point x="590" y="170" name="inserted"/>
      <point x="546" y="208"/>
      <point x="546" y="245" type="qcurve"/>
      <point x="546" y="265"/>
      <point x="624" y="355"/>
      <point x="624" y="389" type="qcurve"/>
      <point x="624" y="410" name="inserted"/>
      <point x="606" y="461"/>
      <point x="588" y="491" type="qcurve"/>
      <point x="571" y="519" name="inserted"/>
      <point x="532" y="567"/>
      <point x="509" y="586" type="qcurve"/>
      <point x="465" y="562" name="inserted"/>
      <point x="381" y="492"/>
      <point x="340" y="447" type="qcurve"/>
      <point x="343" y="434" name="inserted"/>
      <point x="346" y="408"/>
      <point x="346" y="396" type="qcurve"/>
      <point x="346" y="342" name="inserted"/>
      <point x="293" y="288"/>
      <point x="241" y="288" type="qcurve"/>
      <point x="199" y="288"/>
      <point x="146" y="324"/>
      <point x="146" y="356" type="qcurve"/>
      <point x="146" y="384"/>
      <point x="206" y="452"/>
      <point x="206" y="475" type="qcurve"/>
      <point x="206" y="493" name="inserted"/>
      <point x="186" y="531"/>
      <point x="166" y="551" type="qcurve"/>
      <point x="148" y="567" name="inserted"/>
      <point x="108" y="595"/>
      <point x="84" y="606" type="qcurve"/>
      <point x="0" y="606" type="line"/>
      <point x="0" y="680" type="line"/>
      <point x="126" y="680" type="line"/>
      <point x="187" y="651" name="inserted"/>
      <point x="273" y="583"/>
      <point x="299" y="544" type="qcurve"/>
      <point x="321" y="561" name="inserted"/>
      <point x="364" y="596"/>
      <point x="386" y="614" type="qcurve"/>
      <point x="418" y="638" name="inserted"/>
      <point x="479" y="674"/>
      <point x="508" y="685" type="qcurve"/>
      <point x="564" y="670" name="inserted"/>
      <point x="657" y="601"/>
      <point x="694" y="546" type="qcurve"/>
      <point x="722" y="505" name="inserted"/>
      <point x="755" y="420"/>
      <point x="760" y="377" type="qcurve"/>
      <point x="778" y="379" name="inserted"/>
      <point x="829" y="381"/>
      <point x="862" y="381" type="qcurve"/>
      <point x="891" y="381" name="inserted"/>
      <point x="930" y="380"/>
      <point x="941" y="379" type="qcurve"/>
      <point x="941" y="680" type="line"/>
      <point x="1216" y="680" type="line"/>
    </contour>
    <contour>
      <point x="1138" y="666" type="qcurve"/>
      <point x="1010" y="666" type="line"/>
      <point x="978" y="703" name="inserted"/>
      <point x="924" y="750"/>
      <point x="903" y="760" type="qcurve"/>
      <point x="876" y="773" name="inserted"/>
      <point x="787" y="785"/>
      <point x="724" y="785" type="qcurve"/>
      <point x="634" y="785" type="line"/>
      <point x="634" y="868" type="line"/>
      <point x="760" y="868" type="line"/>
      <point x="784" y="868" name="inserted"/>
      <point x="830" y="862"/>
      <point x="854" y="855" type="qcurve"/>
      <point x="820" y="895" name="inserted"/>
      <point x="755" y="935"/>
      <point x="724" y="935" type="qcurve"/>
      <point x="634" y="935" type="line"/>
      <point x="634" y="1012" type="line"/>
      <point x="760" y="1012" type="line"/>
      <point x="800" y="1012" name="inserted"/>
      <point x="902" y="946"/>
      <point x="964" y="880" type="qcurve"/>
      <point x="982" y="860" name="inserted"/>
      <point x="1069" y="753"/>
    </contour>
    <contour>
      <point x="327" y="78" type="qcurve"/>
      <point x="327" y="56"/>
      <point x="278" y="25"/>
      <point x="244" y="25" type="qcurve"/>
      <point x="210" y="25"/>
      <point x="161" y="56"/>
      <point x="161" y="78" type="qcurve"/>
      <point x="161" y="100"/>
      <point x="210" y="132"/>
      <point x="244" y="132" type="qcurve"/>
      <point x="278" y="132"/>
      <point x="327" y="100"/>
    </contour>
  </outline>
</glyph>
<glyph name="u0A13_u0A02" format="1">
  <advance width="1133"/>
  <outline>
    <contour>
      <point x="1152" y="611" type="line"/>
      <point x="1058" y="611" type="line"/>
      <point x="1058" y="562" type="line"/>
      <point x="1058" y="484" name="inserted"/>
      <point x="947" y="363"/>
      <point x="835" y="321" type="qcurve"/>
      <point x="862" y="304" name="inserted"/>
      <point x="900" y="272"/>
      <point x="910" y="257" type="qcurve"/>
      <point x="922" y="241" name="inserted"/>
      <point x="934" y="202"/>
      <point x="934" y="179" type="qcurve"/>
      <point x="934" y="135" name="inserted"/>
      <point x="874" y="69"/>
      <point x="813" y="47" type="qcurve"/>
      <point x="764" y="29" name="inserted"/>
      <point x="641" y="11"/>
      <point x="567" y="11" type="qcurve"/>
      <point x="430" y="11" name="inserted"/>
      <point x="232" y="111"/>
      <point x="170" y="210" type="qcurve"/>
      <point x="126" y="281" name="inserted"/>
      <point x="82" y="456"/>
      <point x="82" y="561" type="qcurve"/>
      <point x="82" y="576" name="inserted"/>
      <point x="83" y="601"/>
      <point x="84" y="611" type="qcurve"/>
      <point x="0" y="611" type="line"/>
      <point x="0" y="685" type="line"/>
      <point x="106" y="685" type="line"/>
      <point x="130" y="740" name="inserted"/>
      <point x="215" y="828"/>
      <point x="277" y="860" type="qcurve"/>
      <point x="342" y="893" name="inserted"/>
      <point x="504" y="927"/>
      <point x="600" y="927" type="qcurve"/>
      <point x="674" y="927" name="inserted"/>
      <point x="806" y="905"/>
      <point x="865" y="883" type="qcurve"/>
      <point x="918" y="864" name="inserted"/>
      <point x="988" y="816"/>
      <point x="1006" y="788" type="qcurve"/>
      <point x="842" y="788" type="line"/>
      <point x="810" y="817" name="inserted"/>
      <point x="679" y="846"/>
      <point x="580" y="846" type="qcurve"/>
      <point x="524" y="846" name="inserted"/>
      <point x="420" y="822"/>
      <point x="372" y="798" type="qcurve"/>
      <point x="326" y="776" name="inserted"/>
      <point x="258" y="719"/>
      <point x="235" y="685" type="qcurve"/>
      <point x="1152" y="685" type="line"/>
    </contour>
    <contour>
      <point x="929" y="562" type="qcurve"/>
      <point x="929" y="611" type="line"/>
      <point x="214" y="611" type="line"/>
      <point x="212" y="592" name="inserted"/>
      <point x="210" y="550"/>
      <point x="210" y="527" type="qcurve"/>
      <point x="210" y="485" name="inserted"/>
      <point x="219" y="412"/>
      <point x="228" y="381" type="qcurve"/>
      <point x="678" y="381" type="line"/>
      <point x="722" y="381" name="inserted"/>
      <point x="807" y="412"/>
      <point x="849" y="444" type="qcurve"/>
      <point x="889" y="474" name="inserted"/>
      <point x="929" y="533"/>
    </contour>
    <contour>
      <point x="814" y="179" type="qcurve"/>
      <point x="814" y="210" name="inserted"/>
      <point x="768" y="258"/>
      <point x="721" y="276" type="qcurve"/>
      <point x="682" y="290" name="inserted"/>
      <point x="590" y="305"/>
      <point x="538" y="305" type="qcurve"/>
      <point x="244" y="305" type="line"/>
      <point x="262" y="264" name="inserted"/>
      <point x="319" y="194"/>
      <point x="358" y="164" type="qcurve"/>
      <point x="404" y="129" name="inserted"/>
      <point x="509" y="93"/>
      <point x="567" y="93" type="qcurve"/>
      <point x="691" y="93" name="inserted"/>
      <point x="814" y="136"/>
    </contour>
    <contour>
      <point x="1071" y="947" type="qcurve"/>
      <point x="1071" y="926"/>
      <point x="1024" y="895"/>
      <point x="990" y="895" type="qcurve"/>
      <point x="957" y="895"/>
      <point x="910" y="926"/>
      <point x="910" y="947" type="qcurve"/>
      <point x="910" y="969"/>
      <point x="957" y="999"/>
      <point x="990" y="999" type="qcurve"/>
      <point x="1024" y="999"/>
      <point x="1071" y="969"/>
    </contour>
  </outline>
</glyph>
<glyph name="u0A13_u0A3C" format="1">
  <advance width="1133"/>
  <outline>
    <contour>
      <point x="1152" y="559" type="line"/>
      <point x="1058" y="559" type="line"/>
      <point x="1058" y="510" type="line"/>
      <point x="1058" y="432" name="inserted"/>
      <point x="947" y="311"/>
      <point x="835" y="269" type="qcurve"/>
      <point x="862" y="252" name="inserted"/>
      <point x="900" y="220"/>
      <point x="910" y="205" type="qcurve"/>
      <point x="922" y="189" name="inserted"/>
      <point x="934" y="150"/>
      <point x="934" y="127" type="qcurve"/>
      <point x="934" y="83" name="inserted"/>
      <point x="874" y="17"/>
      <point x="813" y="-5" type="qcurve"/>
      <point x="764" y="-23" name="inserted"/>
      <point x="641" y="-41"/>
      <point x="567" y="-41" type="qcurve"/>
      <point x="430" y="-41" name="inserted"/>
      <point x="232" y="59"/>
      <point x="170" y="158" type="qcurve"/>
      <point x="126" y="229" name="inserted"/>
      <point x="82" y="405"/>
      <point x="82" y="509" type="qcurve"/>
      <point x="82" y="524" name="inserted"/>
      <point x="83" y="549"/>
      <point x="84" y="559" type="qcurve"/>
      <point x="0" y="559" type="line"/>
      <point x="0" y="633" type="line"/>
      <point x="106" y="633" type="line"/>
      <point x="130" y="689" name="inserted"/>
      <point x="215" y="776"/>
      <point x="277" y="808" type="qcurve"/>
      <point x="342" y="842" name="inserted"/>
      <point x="504" y="875"/>
      <point x="600" y="875" type="qcurve"/>
      <point x="674" y="875" name="inserted"/>
      <point x="806" y="853"/>
      <point x="865" y="832" type="qcurve"/>
      <point x="918" y="812" name="inserted"/>
      <point x="988" y="764"/>
      <point x="1006" y="736" type="qcurve"/>
      <point x="842" y="736" type="line"/>
      <point x="810" y="765" name="inserted"/>
      <point x="679" y="794"/>
      <point x="580" y="794" type="qcurve"/>
      <point x="524" y="794" name="inserted"/>
      <point x="420" y="770"/>
      <point x="372" y="747" type="qcurve"/>
      <point x="326" y="724" name="inserted"/>
      <point x="258" y="667"/>
      <point x="235" y="633" type="qcurve"/>
      <point x="1152" y="633" type="line"/>
    </contour>
    <contour>
      <point x="929" y="510" type="qcurve"/>
      <point x="929" y="559" type="line"/>
      <point x="214" y="559" type="line"/>
      <point x="212" y="540" name="inserted"/>
      <point x="210" y="498"/>
      <point x="210" y="475" type="qcurve"/>
      <point x="210" y="433" name="inserted"/>
      <point x="219" y="360"/>
      <point x="228" y="329" type="qcurve"/>
      <point x="678" y="329" type="line"/>
      <point x="722" y="329" name="inserted"/>
      <point x="807" y="360"/>
      <point x="849" y="392" type="qcurve"/>
      <point x="889" y="422" name="inserted"/>
      <point x="929" y="481"/>
    </contour>
    <contour>
      <point x="814" y="127" type="qcurve"/>
      <point x="814" y="158" name="inserted"/>
      <point x="768" y="207"/>
      <point x="721" y="224" type="qcurve"/>
      <point x="682" y="238" name="inserted"/>
      <point x="590" y="253"/>
      <point x="538" y="253" type="qcurve"/>
      <point x="244" y="253" type="line"/>
      <point x="262" y="212" name="inserted"/>
      <point x="319" y="142"/>
      <point x="358" y="113" type="qcurve"/>
      <point x="404" y="77" name="inserted"/>
      <point x="509" y="42"/>
      <point x="567" y="42" type="qcurve"/>
      <point x="691" y="42" name="inserted"/>
      <point x="814" y="84"/>
    </contour>
    <contour>
      <point x="197" y="-42" type="qcurve"/>
      <point x="197" y="-65"/>
      <point x="148" y="-96"/>
      <point x="114" y="-96" type="qcurve"/>
      <point x="79" y="-96"/>
      <point x="30" y="-65"/>
      <point x="30" y="-42" type="qcurve"/>
      <point x="30" y="-20"/>
      <point x="79" y="11"/>
      <point x="114" y="11" type="qcurve"/>
      <point x="148" y="11"/>
      <point x="197" y="-20"/>
    </contour>
  </outline>
</glyph>
<glyph name="u0A15_u0A3C" format="1">
  <advance width="1088.0"/>
  <outline>
    <contour>
      <point x="1107" y="588" type="line"/>
      <point x="960" y="588" type="line"/>
      <point x="960" y="485" name="inserted"/>
      <point x="914" y="327"/>
      <point x="868" y="272" type="qcurve"/>
      <point x="914" y="218" name="inserted"/>
      <point x="960" y="73"/>
      <point x="960" y="-17" type="qcurve"/>
      <point x="832" y="-17" type="line"/>
      <point x="832" y="57" name="inserted"/>
      <point x="807" y="164"/>
      <point x="782" y="196" type="qcurve"/>
      <point x="710" y="148" name="inserted"/>
      <point x="514" y="101"/>
      <point x="390" y="101" type="qcurve"/>
      <point x="323" y="101" name="inserted"/>
      <point x="212" y="124"/>
      <point x="167" y="148" type="qcurve"/>
      <point x="120" y="173" name="inserted"/>
      <point x="72" y="240"/>
      <point x="72" y="282" type="qcurve"/>
      <point x="72" y="322" name="inserted"/>
      <point x="119" y="386"/>
      <point x="166" y="410" type="qcurve"/>
      <point x="210" y="433" name="inserted"/>
      <point x="317" y="455"/>
      <point x="380" y="455" type="qcurve"/>
      <point x="508" y="455" name="inserted"/>
      <point x="709" y="402"/>
      <point x="782" y="348" type="qcurve"/>
      <point x="807" y="389" name="inserted"/>
      <point x="832" y="509"/>
      <point x="832" y="588" type="qcurve"/>
      <point x="0" y="588" type="line"/>
      <point x="0" y="662" type="line"/>
      <point x="1107" y="662" type="line"/>
    </contour>
    <contour>
      <point x="714" y="271" type="qcurve"/>
      <point x="652" y="322" name="inserted"/>
      <point x="485" y="373"/>
      <point x="380" y="373" type="qcurve"/>
      <point x="345" y="373" name="inserted"/>
      <point x="284" y="362"/>
      <point x="258" y="350" type="qcurve"/>
      <point x="229" y="337" name="inserted"/>
      <point x="199" y="303"/>
      <point x="199" y="282" type="qcurve"/>
      <point x="199" y="257" name="inserted"/>
      <point x="229" y="220"/>
      <point x="258" y="207" type="qcurve"/>
      <point x="284" y="195" name="inserted"/>
      <point x="350" y="183"/>
      <point x="390" y="183" type="qcurve"/>
      <point x="486" y="183" name="inserted"/>
      <point x="649" y="227"/>
    </contour>
    <contour>
      <point x="223" y="18" type="qcurve"/>
      <point x="223" y="-5"/>
      <point x="174" y="-36"/>
      <point x="140" y="-36" type="qcurve"/>
      <point x="106" y="-36"/>
      <point x="57" y="-5"/>
      <point x="57" y="18" type="qcurve"/>
      <point x="57" y="40"/>
      <point x="106" y="71"/>
      <point x="140" y="71" type="qcurve"/>
      <point x="174" y="71"/>
      <point x="223" y="40"/>
    </contour>
    <contour>
      <point x="1120" y="1248" type="move" name="mark0"/>
    </contour>
    <contour>
      <point x="680" y="0" type="move" name="mark0"/>
    </contour>
    <contour>
      <point x="1360" y="0" type="move" name="mark0"/>
    </contour>
  </outline>
</glyph>
<glyph name="u0A17_u0A4D" format="1">
  <advance width="1181"/>
  <outline>
    <contour>
      <point x="1200" y="290" type="line"/>
      <point x="1053" y="290" type="line"/>
      <point x="1053" y="-316" type="line"/>
      <point x="925" y="-316" type="line"/>
      <point x="925" y="290" type="line"/>
      <point x="691" y="290" type="line"/>
      <point x="691" y="-147" type="line"/>
      <point x="691" y="-232" name="inserted"/>
      <point x="594" y="-316"/>
      <point x="497" y="-316" type="qcurve"/>
      <point x="427" y="-316" name="inserted"/>
      <point x="280" y="-262"/>
      <point x="203" y="-209" type="qcurve"/>
      <point x="129" y="-157" name="inserted"/>
      <point x="54" y="-65"/>
      <point x="54" y="-24" type="qcurve"/>
      <point x="54" y="14" name="inserted"/>
      <point x="93" y="64"/>
      <point x="132" y="77" type="qcurve"/>
      <point x="153" y="83" name="inserted"/>
      <point x="222" y="90"/>
      <point x="270" y="90" type="qcurve"/>
      <point x="563" y="90" type="line"/>
      <point x="563" y="290" type="line"/>
      <point x="0" y="290" type="line"/>
      <point x="0" y="364" type="line"/>
      <point x="1200" y="364" type="line"/>
    </contour>
    <contour>
      <point x="563" y="-142" type="qcurve"/>
      <point x="563" y="7" type="line"/>
      <point x="302" y="7" type="line"/>
      <point x="272" y="7" name="inserted"/>
      <point x="234" y="6"/>
      <point x="226" y="5" type="qcurve"/>
      <point x="204" y="2" name="inserted"/>
      <point x="182" y="-13"/>
      <point x="182" y="-24" type="qcurve"/>
      <point x="182" y="-82"/>
      <point x="409" y="-234"/>
      <point x="497" y="-234" type="qcurve"/>
      <point x="530" y="-234" name="inserted"/>
      <point x="563" y="-188"/>
    </contour>
    <contour>
      <point x="1259" y="-601" type="line"/>
      <point x="1158" y="-651" type="line"/>
      <point x="922" y="-437" type="line"/>
      <point x="1025" y="-390" type="line"/>
    </contour>
  </outline>
</glyph>
<glyph name="u0A19_u0A4D" format="1">
  <advance width="1008.0"/>
  <outline>
    <contour>
      <point x="1027" y="290" type="line"/>
      <point x="216" y="290" type="line"/>
      <point x="216" y="189" type="line"/>
      <point x="580" y="189" type="line"/>
      <point x="660" y="189" name="inserted"/>
      <point x="786" y="169"/>
      <point x="832" y="148" type="qcurve"/>
      <point x="887" y="124" name="inserted"/>
      <point x="942" y="51"/>
      <point x="942" y="2" type="qcurve"/>
      <point x="942" y="-66" name="inserted"/>
      <point x="827" y="-170"/>
      <point x="711" y="-208" type="qcurve"/>
      <point x="782" y="-264" type="line"/>
      <point x="683" y="-316" type="line"/>
      <point x="667" y="-303" name="inserted"/>
      <point x="617" y="-263"/>
      <point x="583" y="-237" type="qcurve"/>
      <point x="513" y="-251" name="inserted"/>
      <point x="395" y="-265"/>
      <point x="347" y="-265" type="qcurve"/>
      <point x="299" y="-265" name="inserted"/>
      <point x="212" y="-250"/>
      <point x="173" y="-234" type="qcurve"/>
      <point x="127" y="-216" name="inserted"/>
      <point x="82" y="-169"/>
      <point x="82" y="-140" type="qcurve"/>
      <point x="82" y="-82" name="inserted"/>
      <point x="191" y="-25"/>
      <point x="300" y="-25" type="qcurve"/>
      <point x="377" y="-25" name="inserted"/>
      <point x="538" y="-83"/>
      <point x="622" y="-142" type="qcurve"/>
      <point x="718" y="-114" name="inserted"/>
      <point x="814" y="-43"/>
      <point x="814" y="2" type="qcurve"/>
      <point x="814" y="54" name="inserted"/>
      <point x="697" y="107"/>
      <point x="580" y="107" type="qcurve"/>
      <point x="88" y="107" type="line"/>
      <point x="88" y="290" type="line"/>
      <point x="0" y="290" type="line"/>
      <point x="0" y="364" type="line"/>
      <point x="1027" y="364" type="line"/>
    </contour>
    <contour>
      <point x="486" y="-169" type="qcurve"/>
      <point x="428" y="-133" name="inserted"/>
      <point x="335" y="-97"/>
      <point x="300" y="-97" type="qcurve"/>
      <point x="251" y="-97" name="inserted"/>
      <point x="202" y="-121"/>
      <point x="202" y="-145" type="qcurve"/>
      <point x="202" y="-155" name="inserted"/>
      <point x="228" y="-171"/>
      <point x="254" y="-176" type="qcurve"/>
      <point x="273" y="-179" name="inserted"/>
      <point x="312" y="-183"/>
      <point x="332" y="-183" type="qcurve"/>
      <point x="369" y="-183" name="inserted"/>
      <point x="446" y="-176"/>
    </contour>
    <contour>
      <point x="1091" y="-601" type="line"/>
      <point x="990" y="-651" type="line"/>
      <point x="754" y="-437" type="line"/>
      <point x="857" y="-390" type="line"/>
    </contour>
  </outline>
</glyph>
<glyph name="u0A1B_u0A3C" format="1">
  <advance width="1101"/>
  <outline>
    <contour>
      <point x="1120" y="467" type="line"/>
      <point x="973" y="467" type="line"/>
      <point x="973" y="276" type="line"/>
      <point x="449" y="276" type="line"/>
      <point x="397" y="276" name="inserted"/>
      <point x="324" y="272"/>
      <point x="302" y="268" type="qcurve"/>
      <point x="260" y="260" name="inserted"/>
      <point x="218" y="228"/>
      <point x="218" y="204" type="qcurve"/>
      <point x="218" y="175" name="inserted"/>
      <point x="305" y="146"/>
      <point x="392" y="146" type="qcurve"/>
      <point x="769" y="146" type="line"/>
      <point x="822" y="146" name="inserted"/>
      <point x="910" y="125"/>
      <point x="945" y="105" type="qcurve"/>
      <point x="981" y="84" name="inserted"/>
      <point x="1017" y="29"/>
      <point x="1017" y="-5" type="qcurve"/>
      <point x="1017" y="-58" name="inserted"/>
      <point x="920" y="-129"/>
      <point x="823" y="-148" type="qcurve"/>
      <point x="768" y="-159" name="inserted"/>
      <point x="604" y="-170"/>
      <point x="496" y="-170" type="qcurve"/>
      <point x="452" y="-170" type="line"/>
      <point x="384" y="-170" name="inserted"/>
      <point x="265" y="-153"/>
      <point x="214" y="-137" type="qcurve"/>
      <point x="150" y="-116" name="inserted"/>
      <point x="86" y="-56"/>
      <point x="86" y="-17" type="qcurve"/>
      <point x="86" y="19" name="inserted"/>
      <point x="126" y="76"/>
      <point x="166" y="97" type="qcurve"/>
      <point x="128" y="113" name="inserted"/>
      <point x="90" y="164"/>
      <point x="90" y="199" type="qcurve"/>
      <point x="90" y="250" name="inserted"/>
      <point x="154" y="318"/>
      <point x="218" y="336" type="qcurve"/>
      <point x="258" y="347" name="inserted"/>
      <point x="390" y="358"/>
      <point x="482" y="358" type="qcurve"/>
      <point x="842" y="358" type="line"/>
      <point x="842" y="467" type="line"/>
      <point x="0" y="467" type="line"/>
      <point x="0" y="541" type="line"/>
      <point x="1120" y="541" type="line"/>
    </contour>
    <contour>
      <point x="890" y="-5" type="qcurve"/>
      <point x="890" y="28"/>
      <point x="827" y="65"/>
      <point x="777" y="65" type="qcurve"/>
      <point x="554" y="65" type="line"/>
      <point x="579" y="42" name="inserted"/>
      <point x="604" y="-15"/>
      <point x="604" y="-49" type="qcurve"/>
      <point x="604" y="-58" name="inserted"/>
      <point x="602" y="-78"/>
      <point x="600" y="-88" type="qcurve"/>
      <point x="662" y="-85" name="inserted"/>
      <point x="749" y="-78"/>
      <point x="775" y="-73" type="qcurve"/>
      <point x="832" y="-63" name="inserted"/>
      <point x="890" y="-29"/>
    </contour>
    <contour>
      <point x="476" y="-48" type="qcurve"/>
      <point x="476" y="-27" name="inserted"/>
      <point x="463" y="7"/>
      <point x="450" y="20" type="qcurve"/>
      <point x="435" y="37" name="inserted"/>
      <point x="391" y="54"/>
      <point x="362" y="54" type="qcurve"/>
      <point x="334" y="54" name="inserted"/>
      <point x="285" y="45"/>
      <point x="264" y="36" type="qcurve"/>
      <point x="239" y="27" name="inserted"/>
      <point x="214" y="0"/>
      <point x="214" y="-17" type="qcurve"/>
      <point x="214" y="-36" name="inserted"/>
      <point x="264" y="-65"/>
      <point x="314" y="-74" type="qcurve"/>
      <point x="349" y="-81" name="inserted"/>
      <point x="426" y="-87"/>
      <point x="470" y="-87" type="qcurve"/>
      <point x="473" y="-78" name="inserted"/>
      <point x="476" y="-58"/>
    </contour>
    <contour>
      <point x="211" y="-232" type="qcurve"/>
      <point x="211" y="-255"/>
      <point x="162" y="-286"/>
      <point x="128" y="-286" type="qcurve"/>
      <point x="94" y="-286"/>
      <point x="45" y="-255"/>
      <point x="45" y="-232" type="qcurve"/>
      <point x="45" y="-210"/>
      <point x="94" y="-179"/>
      <point x="128" y="-179" type="qcurve"/>
      <point x="162" y="-179"/>
      <point x="211" y="-210"/>
    </contour>
    <contour>
      <point x="1134" y="1248" type="move" name="mark0"/>
    </contour>
    <contour>
      <point x="1376" y="0" type="move" name="mark0"/>
    </contour>
  </outline>
</glyph>
<glyph name="u0A1B_u0A4D" format="1">
  <advance width="1101"/>
  <outline>
    <contour>
      <point x="1120" y="287" type="line"/>
      <point x="973" y="287" type="line"/>
      <point x="973" y="96" type="line"/>
      <point x="449" y="96" type="line"/>
      <point x="397" y="96" name="inserted"/>
      <point x="324" y="92"/>
      <point x="302" y="88" type="qcurve"/>
      <point x="260" y="80" name="inserted"/>
      <point x="218" y="48"/>
      <point x="218" y="24" type="qcurve"/>
      <point x="218" y="-5" name="inserted"/>
      <point x="305" y="-34"/>
      <point x="392" y="-34" type="qcurve"/>
      <point x="769" y="-34" type="line"/>
      <point x="822" y="-34" name="inserted"/>
      <point x="910" y="-55"/>
      <point x="945" y="-75" type="qcurve"/>
      <point x="981" y="-96" name="inserted"/>
      <point x="1017" y="-151"/>
      <point x="1017" y="-185" type="qcurve"/>
      <point x="1017" y="-238" name="inserted"/>
      <point x="920" y="-309"/>
      <point x="823" y="-328" type="qcurve"/>
      <point x="768" y="-339" name="inserted"/>
      <point x="604" y="-350"/>
      <point x="496" y="-350" type="qcurve"/>
      <point x="452" y="-350" type="line"/>
      <point x="384" y="-350" name="inserted"/>
      <point x="265" y="-333"/>
      <point x="214" y="-317" type="qcurve"/>
      <point x="150" y="-296" name="inserted"/>
      <point x="86" y="-236"/>
      <point x="86" y="-197" type="qcurve"/>
      <point x="86" y="-161" name="inserted"/>
      <point x="126" y="-104"/>
      <point x="166" y="-83" type="qcurve"/>
      <point x="128" y="-67" name="inserted"/>
      <point x="90" y="-16"/>
      <point x="90" y="19" type="qcurve"/>
      <point x="90" y="70" name="inserted"/>
      <point x="154" y="138"/>
      <point x="218" y="156" type="qcurve"/>
      <point x="258" y="167" name="inserted"/>
      <point x="390" y="178"/>
      <point x="482" y="178" type="qcurve"/>
      <point x="842" y="178" type="line"/>
      <point x="842" y="287" type="line"/>
      <point x="0" y="287" type="line"/>
      <point x="0" y="361" type="line"/>
      <point x="1120" y="361" type="line"/>
    </contour>
    <contour>
      <point x="890" y="-185" type="qcurve"/>
      <point x="890" y="-152"/>
      <point x="827" y="-115"/>
      <point x="777" y="-115" type="qcurve"/>
      <point x="554" y="-115" type="line"/>
      <point x="579" y="-138" name="inserted"/>
      <point x="604" y="-195"/>
      <point x="604" y="-229" type="qcurve"/>
      <point x="604" y="-238" name="inserted"/>
      <point x="602" y="-258"/>
      <point x="600" y="-268" type="qcurve"/>
      <point x="662" y="-265" name="inserted"/>
      <point x="749" y="-258"/>
      <point x="775" y="-253" type="qcurve"/>
      <point x="832" y="-243" name="inserted"/>
      <point x="890" y="-209"/>
    </contour>
    <contour>
      <point x="476" y="-227" type="qcurve"/>
      <point x="476" y="-207" name="inserted"/>
      <point x="463" y="-173"/>
      <point x="450" y="-160" type="qcurve"/>
      <point x="435" y="-143" name="inserted"/>
      <point x="391" y="-126"/>
      <point x="362" y="-126" type="qcurve"/>
      <point x="334" y="-126" name="inserted"/>
      <point x="285" y="-135"/>
      <point x="264" y="-144" type="qcurve"/>
      <point x="239" y="-153" name="inserted"/>
      <point x="214" y="-180"/>
      <point x="214" y="-197" type="qcurve"/>
      <point x="214" y="-216" name="inserted"/>
      <point x="264" y="-245"/>
      <point x="314" y="-254" type="qcurve"/>
      <point x="349" y="-261" name="inserted"/>
      <point x="426" y="-267"/>
      <point x="470" y="-267" type="qcurve"/>
      <point x="473" y="-258" name="inserted"/>
      <point x="476" y="-238"/>
    </contour>
    <contour>
      <point x="875" y="-607" type="line"/>
      <point x="774" y="-657" type="line"/>
      <point x="538" y="-443" type="line"/>
      <point x="641" y="-396" type="line"/>
    </contour>
  </outline>
</glyph>
<glyph name="u0A1D_u0A3C" format="1">
  <advance width="1126"/>
  <outline>
    <contour>
      <point x="1146" y="540" type="line"/>
      <point x="1052" y="540" type="line"/>
      <point x="1016" y="463" name="inserted"/>
      <point x="895" y="351"/>
      <point x="811" y="316" type="qcurve"/>
      <point x="886" y="297" name="inserted"/>
      <point x="960" y="217"/>
      <point x="960" y="157" type="qcurve"/>
      <point x="960" y="126" name="inserted"/>
      <point x="919" y="71"/>
      <point x="878" y="46" type="qcurve"/>
      <point x="843" y="25" name="inserted"/>
      <point x="758" y="-6"/>
      <point x="708" y="-18" type="qcurve"/>
      <point x="721" y="-31" name="inserted"/>
      <point x="758" y="-70"/>
      <point x="783" y="-97" type="qcurve"/>
      <point x="646" y="-97" type="line"/>
      <point x="636" y="-87" name="inserted"/>
      <point x="604" y="-57"/>
      <point x="583" y="-37" type="qcurve"/>
      <point x="558" y="-39" name="inserted"/>
      <point x="499" y="-42"/>
      <point x="466" y="-42" type="qcurve"/>
      <point x="411" y="-42" name="inserted"/>
      <point x="321" y="-28"/>
      <point x="286" y="-15" type="qcurve"/>
      <point x="244" y="2" name="inserted"/>
      <point x="201" y="51"/>
      <point x="201" y="84" type="qcurve"/>
      <point x="201" y="109" name="inserted"/>
      <point x="227" y="149"/>
      <point x="254" y="165" type="qcurve"/>
      <point x="279" y="180" name="inserted"/>
      <point x="343" y="195"/>
      <point x="382" y="195" type="qcurve"/>
      <point x="423" y="195" name="inserted"/>
      <point x="500" y="171"/>
      <point x="538" y="147" type="qcurve"/>
      <point x="560" y="133" name="inserted"/>
      <point x="614" y="88"/>
      <point x="646" y="56" type="qcurve"/>
      <point x="681" y="61" name="inserted"/>
      <point x="741" y="78"/>
      <point x="766" y="89" type="qcurve"/>
      <point x="800" y="104" name="inserted"/>
      <point x="833" y="137"/>
      <point x="833" y="157" type="qcurve"/>
      <point x="833" y="208" name="inserted"/>
      <point x="708" y="260"/>
      <point x="582" y="260" type="qcurve"/>
      <point x="90" y="260" type="line"/>
      <point x="90" y="341" type="line"/>
      <point x="281" y="341" type="line"/>
      <point x="238" y="375" name="inserted"/>
      <point x="181" y="474"/>
      <point x="166" y="540" type="qcurve"/>
      <point x="0" y="540" type="line"/>
      <point x="0" y="614" type="line"/>
      <point x="1146" y="614" type="line"/>
    </contour>
    <contour>
      <point x="917" y="540" type="qcurve"/>
      <point x="295" y="540" type="line"/>
      <point x="308" y="478" name="inserted"/>
      <point x="370" y="380"/>
      <point x="420" y="342" type="qcurve"/>
      <point x="506" y="342" type="line"/>
      <point x="550" y="342" name="inserted"/>
      <point x="645" y="357"/>
      <point x="696" y="372" type="qcurve"/>
      <point x="748" y="388" name="inserted"/>
      <point x="826" y="426"/>
      <point x="851" y="449" type="qcurve"/>
      <point x="874" y="469" name="inserted"/>
      <point x="907" y="515"/>
    </contour>
    <contour>
      <point x="510" y="42" type="qcurve"/>
      <point x="474" y="77" name="inserted"/>
      <point x="410" y="112"/>
      <point x="382" y="112" type="qcurve"/>
      <point x="356" y="112" name="inserted"/>
      <point x="329" y="98"/>
      <point x="329" y="84" type="qcurve"/>
      <point x="329" y="62" name="inserted"/>
      <point x="395" y="41"/>
      <point x="462" y="41" type="qcurve"/>
      <point x="474" y="41" name="inserted"/>
      <point x="499" y="41"/>
    </contour>
    <contour>
      <point x="219" y="-82" type="qcurve"/>
      <point x="219" y="-105"/>
      <point x="170" y="-136"/>
      <point x="136" y="-136" type="qcurve"/>
      <point x="102" y="-136"/>
      <point x="53" y="-105"/>
      <point x="53" y="-82" type="qcurve"/>
      <point x="53" y="-60"/>
      <point x="102" y="-29"/>
      <point x="136" y="-29" type="qcurve"/>
      <point x="170" y="-29"/>
      <point x="219" y="-60"/>
    </contour>
    <contour>
      <point x="1230" y="1248" type="move" name="mark0"/>
    </contour>
    <contour>
      <point x="1408" y="0" type="move" name="mark0"/>
    </contour>
  </outline>
</glyph>
<glyph name="u0A1E_u0A3C_u0A4D" format="1">
  <advance width="1126"/>
  <outline>
    <contour>
      <point x="1146" y="257" type="line"/>
      <point x="998" y="257" type="line"/>
      <point x="998" y="-1" type="line"/>
      <point x="312" y="-1" type="line"/>
      <point x="256" y="-1" name="inserted"/>
      <point x="201" y="-31"/>
      <point x="201" y="-62" type="qcurve"/>
      <point x="201" y="-76" name="inserted"/>
      <point x="220" y="-98"/>
      <point x="239" y="-106" type="qcurve"/>
      <point x="256" y="-113" name="inserted"/>
      <point x="295" y="-120"/>
      <point x="318" y="-120" type="qcurve"/>
      <point x="998" y="-120" type="line"/>
      <point x="998" y="-208" type="line"/>
      <point x="507" y="-208" type="line"/>
      <point x="498" y="-219" name="inserted"/>
      <point x="489" y="-246"/>
      <point x="489" y="-262" type="qcurve"/>
      <point x="489" y="-290" name="inserted"/>
      <point x="596" y="-319"/>
      <point x="704" y="-319" type="qcurve"/>
      <point x="712" y="-319" name="inserted"/>
      <point x="733" y="-319"/>
      <point x="746" y="-319" type="qcurve"/>
      <point x="758" y="-319" name="inserted"/>
      <point x="774" y="-318"/>
      <point x="778" y="-318" type="qcurve"/>
      <point x="998" y="-318" type="line"/>
      <point x="998" y="-401" type="line"/>
      <point x="709" y="-401" type="line"/>
      <point x="633" y="-401" name="inserted"/>
      <point x="518" y="-390"/>
      <point x="478" y="-379" type="qcurve"/>
      <point x="420" y="-363" name="inserted"/>
      <point x="361" y="-305"/>
      <point x="361" y="-263" type="qcurve"/>
      <point x="361" y="-249" name="inserted"/>
      <point x="371" y="-218"/>
      <point x="381" y="-203" type="qcurve"/>
      <point x="227" y="-203" name="inserted"/>
      <point x="73" y="-133"/>
      <point x="73" y="-63" type="qcurve"/>
      <point x="73" y="-1" name="inserted"/>
      <point x="178" y="71"/>
      <point x="282" y="82" type="qcurve"/>
      <point x="244" y="118" name="inserted"/>
      <point x="204" y="206"/>
      <point x="201" y="257" type="qcurve"/>
      <point x="0" y="257" type="line"/>
      <point x="0" y="331" type="line"/>
      <point x="1146" y="331" type="line"/>
    </contour>
    <contour>
      <point x="870" y="82" type="line"/>
      <point x="870" y="257" type="line"/>
      <point x="329" y="257" type="line"/>
      <point x="330" y="231" name="inserted"/>
      <point x="351" y="179"/>
      <point x="370" y="153" type="qcurve"/>
      <point x="387" y="129" name="inserted"/>
      <point x="426" y="93"/>
      <point x="447" y="82" type="qcurve"/>
    </contour>
    <contour>
      <point x="251" y="-339" type="qcurve"/>
      <point x="251" y="-362"/>
      <point x="202" y="-393"/>
      <point x="168" y="-393" type="qcurve"/>
      <point x="134" y="-393"/>
      <point x="85" y="-362"/>
      <point x="85" y="-339" type="qcurve"/>
      <point x="85" y="-317"/>
      <point x="134" y="-286"/>
      <point x="168" y="-286" type="qcurve"/>
      <point x="202" y="-286"/>
      <point x="251" y="-317"/>
    </contour>
    <contour>
      <point x="899" y="-669" type="line"/>
      <point x="798" y="-719" type="line"/>
      <point x="562" y="-505" type="line"/>
      <point x="665" y="-458" type="line"/>
    </contour>
  </outline>
</glyph>
<glyph name="u0A1F_u0A3C" format="1">
  <advance width="1101"/>
  <outline>
    <contour>
      <point x="1120" y="540" type="line"/>
      <point x="973" y="540" type="line"/>
      <point x="973" y="334" type="line"/>
      <point x="890" y="334" type="line"/>
      <point x="773" y="334" name="inserted"/>
      <point x="596" y="324"/>
      <point x="536" y="314" type="qcurve"/>
      <point x="446" y="299" name="inserted"/>
      <point x="298" y="239"/>
      <point x="241" y="194" type="qcurve"/>
      <point x="272" y="153" name="inserted"/>
      <point x="354" y="89"/>
      <point x="404" y="66" type="qcurve"/>
      <point x="458" y="41" name="inserted"/>
      <point x="580" y="15"/>
      <point x="646" y="15" type="qcurve"/>
      <point x="734" y="15" name="inserted"/>
      <point x="916" y="30"/>
      <point x="1010" y="45" type="qcurve"/>
      <point x="1010" y="39" type="line"/>
      <point x="1010" y="15" name="inserted"/>
      <point x="938" y="-26"/>
      <point x="865" y="-42" type="qcurve"/>
      <point x="807" y="-54" name="inserted"/>
      <point x="698" y="-67"/>
      <point x="646" y="-67" type="qcurve"/>
      <point x="547" y="-67" name="inserted"/>
      <point x="376" y="-32"/>
      <point x="303" y="3" type="qcurve"/>
      <point x="233" y="37" name="inserted"/>
      <point x="130" y="133"/>
      <point x="97" y="194" type="qcurve"/>
      <point x="171" y="305" name="inserted"/>
      <point x="545" y="416"/>
      <point x="845" y="416" type="qcurve"/>
      <point x="845" y="540" type="line"/>
      <point x="0" y="540" type="line"/>
      <point x="0" y="614" type="line"/>
      <point x="1120" y="614" type="line"/>
    </contour>
    <contour>
      <point x="229" y="-82" type="qcurve"/>
      <point x="229" y="-105"/>
      <point x="180" y="-136"/>
      <point x="146" y="-136" type="qcurve"/>
      <point x="111" y="-136"/>
      <point x="62" y="-105"/>
      <point x="62" y="-82" type="qcurve"/>
      <point x="62" y="-60"/>
      <point x="111" y="-29"/>
      <point x="146" y="-29" type="qcurve"/>
      <point x="180" y="-29"/>
      <point x="229" y="-60"/>
    </contour>
    <contour>
      <point x="1136" y="1248" type="move" name="mark0"/>
    </contour>
    <contour>
      <point x="1376" y="0" type="move" name="mark0"/>
    </contour>
  </outline>
</glyph>
<glyph name="u0A1F_u0A3C_u0A4D" format="1">
  <advance width="1101"/>
  <outline>
    <contour>
      <point x="1120" y="290" type="line"/>
      <point x="973" y="290" type="line"/>
      <point x="973" y="84" type="line"/>
      <point x="890" y="84" type="line"/>
      <point x="773" y="84" name="inserted"/>
      <point x="596" y="74"/>
      <point x="536" y="64" type="qcurve"/>
      <point x="446" y="49" name="inserted"/>
      <point x="298" y="-11"/>
      <point x="241" y="-56" type="qcurve"/>
      <point x="272" y="-96" name="inserted"/>
      <point x="354" y="-160"/>
      <point x="404" y="-184" type="qcurve"/>
      <point x="458" y="-209" name="inserted"/>
      <point x="580" y="-234"/>
      <point x="646" y="-234" type="qcurve"/>
      <point x="734" y="-234" name="inserted"/>
      <point x="916" y="-219"/>
      <point x="1010" y="-204" type="qcurve"/>
      <point x="1010" y="-211" type="line"/>
      <point x="1010" y="-235" name="inserted"/>
      <point x="938" y="-276"/>
      <point x="865" y="-292" type="qcurve"/>
      <point x="807" y="-304" name="inserted"/>
      <point x="698" y="-317"/>
      <point x="646" y="-317" type="qcurve"/>
      <point x="547" y="-317" name="inserted"/>
      <point x="376" y="-282"/>
      <point x="303" y="-247" type="qcurve"/>
      <point x="233" y="-212" name="inserted"/>
      <point x="130" y="-117"/>
      <point x="97" y="-56" type="qcurve"/>
      <point x="171" y="55" name="inserted"/>
      <point x="545" y="166"/>
      <point x="845" y="166" type="qcurve"/>
      <point x="845" y="290" type="line"/>
      <point x="0" y="290" type="line"/>
      <point x="0" y="364" type="line"/>
      <point x="1120" y="364" type="line"/>
    </contour>
    <contour>
      <point x="229" y="-332" type="qcurve"/>
      <point x="229" y="-354"/>
      <point x="180" y="-386"/>
      <point x="146" y="-386" type="qcurve"/>
      <point x="111" y="-386"/>
      <point x="62" y="-354"/>
      <point x="62" y="-332" type="qcurve"/>
      <point x="62" y="-310"/>
      <point x="111" y="-279"/>
      <point x="146" y="-279" type="qcurve"/>
      <point x="180" y="-279"/>
      <point x="229" y="-310"/>
    </contour>
    <contour>
      <point x="955" y="-601" type="line"/>
      <point x="854" y="-651" type="line"/>
      <point x="618" y="-437" type="line"/>
      <point x="721" y="-390" type="line"/>
    </contour>
  </outline>
</glyph>
<glyph name="u0A20_u0A3C" format="1">
  <advance width="1126"/>
  <outline>
    <contour>
      <point x="1146" y="540" type="line"/>
      <point x="624" y="540" type="line"/>
      <point x="624" y="423" type="line"/>
      <point x="813" y="376" name="inserted"/>
      <point x="1002" y="252"/>
      <point x="1002" y="174" type="qcurve"/>
      <point x="1002" y="123" name="inserted"/>
      <point x="931" y="36"/>
      <point x="859" y="0" type="qcurve"/>
      <point x="793" y="-33" name="inserted"/>
      <point x="643" y="-66"/>
      <point x="560" y="-66" type="qcurve"/>
      <point x="477" y="-66" name="inserted"/>
      <point x="327" y="-33"/>
      <point x="261" y="0" type="qcurve"/>
      <point x="189" y="36" name="inserted"/>
      <point x="118" y="123"/>
      <point x="118" y="174" type="qcurve"/>
      <point x="118" y="252" name="inserted"/>
      <point x="306" y="376"/>
      <point x="495" y="423" type="qcurve"/>
      <point x="495" y="540" type="line"/>
      <point x="0" y="540" type="line"/>
      <point x="0" y="614" type="line"/>
      <point x="1146" y="614" type="line"/>
    </contour>
    <contour>
      <point x="874" y="174" type="qcurve"/>
      <point x="874" y="204" name="inserted"/>
      <point x="818" y="259"/>
      <point x="762" y="284" type="qcurve"/>
      <point x="720" y="303" name="inserted"/>
      <point x="616" y="334"/>
      <point x="554" y="347" type="qcurve"/>
      <point x="494" y="335" name="inserted"/>
      <point x="392" y="304"/>
      <point x="351" y="284" type="qcurve"/>
      <point x="298" y="259" name="inserted"/>
      <point x="246" y="204"/>
      <point x="246" y="174" type="qcurve"/>
      <point x="246" y="141" name="inserted"/>
      <point x="299" y="83"/>
      <point x="352" y="59" type="qcurve"/>
      <point x="400" y="37" name="inserted"/>
      <point x="504" y="15"/>
      <point x="559" y="15" type="qcurve"/>
      <point x="615" y="15" name="inserted"/>
      <point x="719" y="37"/>
      <point x="767" y="59" type="qcurve"/>
      <point x="821" y="83" name="inserted"/>
      <point x="874" y="141"/>
    </contour>
    <contour>
      <point x="211" y="-82" type="qcurve"/>
      <point x="211" y="-105"/>
      <point x="162" y="-136"/>
      <point x="128" y="-136" type="qcurve"/>
      <point x="94" y="-136"/>
      <point x="45" y="-105"/>
      <point x="45" y="-82" type="qcurve"/>
      <point x="45" y="-60"/>
      <point x="94" y="-29"/>
      <point x="128" y="-29" type="qcurve"/>
      <point x="162" y="-29"/>
      <point x="211" y="-60"/>
    </contour>
    <contour>
      <point x="699" y="1248" type="move" name="mark0"/>
    </contour>
    <contour>
      <point x="699" y="1248" type="move" name="mark0"/>
    </contour>
    <contour>
      <point x="705" y="0" type="move" name="mark0"/>
    </contour>
    <contour>
      <point x="944" y="0" type="move" name="mark0"/>
    </contour>
  </outline>
</glyph>
<glyph name="u0A21_u0A4D" format="1">
  <advance width="1101"/>
  <outline>
    <contour>
      <point x="1120" y="290" type="line"/>
      <point x="973" y="290" type="line"/>
      <point x="970" y="200" name="inserted"/>
      <point x="880" y="76"/>
      <point x="793" y="42" type="qcurve"/>
      <point x="836" y="22" name="inserted"/>
      <point x="894" y="-18"/>
      <point x="910" y="-39" type="qcurve"/>
      <point x="924" y="-56" name="inserted"/>
      <point x="938" y="-100"/>
      <point x="938" y="-126" type="qcurve"/>
      <point x="938" y="-176" name="inserted"/>
      <point x="856" y="-251"/>
      <point x="774" y="-278" type="qcurve"/>
      <point x="710" y="-298" name="inserted"/>
      <point x="562" y="-319"/>
      <point x="478" y="-319" type="qcurve"/>
      <point x="403" y="-319" name="inserted"/>
      <point x="274" y="-304"/>
      <point x="222" y="-290" type="qcurve"/>
      <point x="150" y="-270" name="inserted"/>
      <point x="78" y="-209"/>
      <point x="78" y="-168" type="qcurve"/>
      <point x="78" y="-141" name="inserted"/>
      <point x="120" y="-102"/>
      <point x="162" y="-89" type="qcurve"/>
      <point x="194" y="-78" name="inserted"/>
      <point x="270" y="-68"/>
      <point x="314" y="-68" type="qcurve"/>
      <point x="422" y="-68"/>
      <point x="616" y="-151"/>
      <point x="659" y="-218" type="qcurve"/>
      <point x="687" y="-212" name="inserted"/>
      <point x="736" y="-194"/>
      <point x="758" y="-182" type="qcurve"/>
      <point x="784" y="-167" name="inserted"/>
      <point x="810" y="-136"/>
      <point x="810" y="-120" type="qcurve"/>
      <point x="810" y="-83" name="inserted"/>
      <point x="733" y="-20"/>
      <point x="656" y="7" type="qcurve"/>
      <point x="592" y="-5" name="inserted"/>
      <point x="454" y="-15"/>
      <point x="379" y="-12" type="qcurve"/>
      <point x="304" y="-10" name="inserted"/>
      <point x="230" y="20"/>
      <point x="233" y="48" type="qcurve"/>
      <point x="235" y="80" name="inserted"/>
      <point x="336" y="112"/>
      <point x="434" y="112" type="qcurve"/>
      <point x="503" y="112" name="inserted"/>
      <point x="622" y="102"/>
      <point x="671" y="92" type="qcurve"/>
      <point x="757" y="120" name="inserted"/>
      <point x="844" y="219"/>
      <point x="846" y="290" type="qcurve"/>
      <point x="0" y="290" type="line"/>
      <point x="0" y="364" type="line"/>
      <point x="1120" y="364" type="line"/>
    </contour>
    <contour>
      <point x="534" y="-234" type="qcurve"/>
      <point x="515" y="-208" name="inserted"/>
      <point x="465" y="-171"/>
      <point x="434" y="-161" type="qcurve"/>
      <point x="409" y="-152" name="inserted"/>
      <point x="341" y="-143"/>
      <point x="299" y="-143" type="qcurve"/>
      <point x="253" y="-143" name="inserted"/>
      <point x="206" y="-156"/>
      <point x="206" y="-168" type="qcurve"/>
      <point x="206" y="-202" name="inserted"/>
      <point x="342" y="-236"/>
      <point x="478" y="-236" type="qcurve"/>
      <point x="492" y="-236" name="inserted"/>
      <point x="520" y="-235"/>
    </contour>
    <contour>
      <point x="995" y="-601" type="line"/>
      <point x="894" y="-651" type="line"/>
      <point x="658" y="-437" type="line"/>
      <point x="761" y="-390" type="line"/>
    </contour>
  </outline>
</glyph>
<glyph name="u0A22_u0A3C" format="1">
  <advance width="1101"/>
  <outline>
    <contour>
      <point x="1120" y="564" type="line"/>
      <point x="973" y="564" type="line"/>
      <point x="973" y="310" type="line"/>
      <point x="302" y="310" type="line"/>
      <point x="309" y="212" name="inserted"/>
      <point x="414" y="89"/>
      <point x="513" y="62" type="qcurve"/>
      <point x="554" y="96" name="inserted"/>
      <point x="623" y="146"/>
      <point x="652" y="162" type="qcurve"/>
      <point x="693" y="184" name="inserted"/>
      <point x="777" y="206"/>
      <point x="820" y="206" type="qcurve"/>
      <point x="861" y="206" name="inserted"/>
      <point x="927" y="192"/>
      <point x="952" y="177" type="qcurve"/>
      <point x="978" y="162" name="inserted"/>
      <point x="1004" y="121"/>
      <point x="1004" y="95" type="qcurve"/>
      <point x="1004" y="60" name="inserted"/>
      <point x="950" y="7"/>
      <point x="895" y="-10" type="qcurve"/>
      <point x="854" y="-23" name="inserted"/>
      <point x="751" y="-37"/>
      <point x="690" y="-37" type="qcurve"/>
      <point x="559" y="-37" name="inserted"/>
      <point x="368" y="4"/>
      <point x="307" y="44" type="qcurve"/>
      <point x="249" y="82" name="inserted"/>
      <point x="177" y="211"/>
      <point x="163" y="301" type="qcurve"/>
      <point x="104" y="307" name="inserted"/>
      <point x="46" y="336"/>
      <point x="46" y="359" type="qcurve"/>
      <point x="46" y="389"/>
      <point x="148" y="457"/>
      <point x="198" y="457" type="qcurve"/>
      <point x="229" y="457" name="inserted"/>
      <point x="276" y="426"/>
      <point x="294" y="394" type="qcurve"/>
      <point x="845" y="394" type="line"/>
      <point x="845" y="564" type="line"/>
      <point x="0" y="564" type="line"/>
      <point x="0" y="638" type="line"/>
      <point x="1120" y="638" type="line"/>
    </contour>
    <contour>
      <point x="876" y="96" type="qcurve"/>
      <point x="876" y="110" name="inserted"/>
      <point x="845" y="124"/>
      <point x="814" y="124" type="qcurve"/>
      <point x="781" y="124" name="inserted"/>
      <point x="694" y="80"/>
      <point x="640" y="37" type="qcurve"/>
      <point x="656" y="36" name="inserted"/>
      <point x="685" y="35"/>
      <point x="698" y="35" type="qcurve"/>
      <point x="787" y="35" name="inserted"/>
      <point x="876" y="66"/>
    </contour>
    <contour>
      <point x="245" y="-32" type="qcurve"/>
      <point x="245" y="-55"/>
      <point x="196" y="-86"/>
      <point x="162" y="-86" type="qcurve"/>
      <point x="127" y="-86"/>
      <point x="78" y="-55"/>
      <point x="78" y="-32" type="qcurve"/>
      <point x="78" y="-10"/>
      <point x="127" y="21"/>
      <point x="162" y="21" type="qcurve"/>
      <point x="196" y="21"/>
      <point x="245" y="-10"/>
    </contour>
    <contour>
      <point x="1136" y="1248" type="move" name="mark0"/>
    </contour>
    <contour>
      <point x="688" y="0" type="move" name="mark0"/>
    </contour>
    <contour>
      <point x="1376" y="0" type="move" name="mark0"/>
    </contour>
  </outline>
</glyph>
<glyph name="u0A22_u0A4D" format="1">
  <advance width="1101"/>
  <outline>
    <contour>
      <point x="1120" y="290" type="line"/>
      <point x="973" y="290" type="line"/>
      <point x="973" y="35" type="line"/>
      <point x="302" y="35" type="line"/>
      <point x="309" y="-62" name="inserted"/>
      <point x="414" y="-185"/>
      <point x="513" y="-212" type="qcurve"/>
      <point x="554" y="-178" name="inserted"/>
      <point x="623" y="-128"/>
      <point x="652" y="-112" type="qcurve"/>
      <point x="693" y="-90" name="inserted"/>
      <point x="777" y="-68"/>
      <point x="820" y="-68" type="qcurve"/>
      <point x="861" y="-68" name="inserted"/>
      <point x="927" y="-82"/>
      <point x="952" y="-97" type="qcurve"/>
      <point x="978" y="-112" name="inserted"/>
      <point x="1004" y="-153"/>
      <point x="1004" y="-179" type="qcurve"/>
      <point x="1004" y="-214" name="inserted"/>
      <point x="950" y="-267"/>
      <point x="895" y="-284" type="qcurve"/>
      <point x="854" y="-297" name="inserted"/>
      <point x="751" y="-311"/>
      <point x="690" y="-311" type="qcurve"/>
      <point x="559" y="-311" name="inserted"/>
      <point x="368" y="-270"/>
      <point x="307" y="-230" type="qcurve"/>
      <point x="249" y="-192" name="inserted"/>
      <point x="177" y="-63"/>
      <point x="163" y="27" type="qcurve"/>
      <point x="104" y="33" name="inserted"/>
      <point x="46" y="62"/>
      <point x="46" y="85" type="qcurve"/>
      <point x="46" y="115"/>
      <point x="148" y="183"/>
      <point x="198" y="183" type="qcurve"/>
      <point x="229" y="183" name="inserted"/>
      <point x="276" y="152"/>
      <point x="294" y="120" type="qcurve"/>
      <point x="845" y="120" type="line"/>
      <point x="845" y="290" type="line"/>
      <point x="0" y="290" type="line"/>
      <point x="0" y="364" type="line"/>
      <point x="1120" y="364" type="line"/>
    </contour>
    <contour>
      <point x="876" y="-178" type="qcurve"/>
      <point x="876" y="-164" name="inserted"/>
      <point x="845" y="-150"/>
      <point x="814" y="-150" type="qcurve"/>
      <point x="781" y="-150" name="inserted"/>
      <point x="694" y="-194"/>
      <point x="640" y="-237" type="qcurve"/>
      <point x="656" y="-238" name="inserted"/>
      <point x="685" y="-239"/>
      <point x="698" y="-239" type="qcurve"/>
      <point x="787" y="-239" name="inserted"/>
      <point x="876" y="-208"/>
    </contour>
    <contour>
      <point x="915" y="-601" type="line"/>
      <point x="814" y="-651" type="line"/>
      <point x="578" y="-437" type="line"/>
      <point x="681" y="-390" type="line"/>
    </contour>
  </outline>
</glyph>
<glyph name="u0A23_u0A4D" format="1">
  <advance width="1008.0"/>
  <outline>
    <contour>
      <point x="1027" y="290" type="line"/>
      <point x="398" y="290" type="line"/>
      <point x="413" y="242" name="inserted"/>
      <point x="512" y="178"/>
      <point x="597" y="162" type="qcurve"/>
      <point x="647" y="152" name="inserted"/>
      <point x="798" y="142"/>
      <point x="899" y="142" type="qcurve"/>
      <point x="899" y="62" type="line"/>
      <point x="867" y="62" type="line"/>
      <point x="796" y="62" name="inserted"/>
      <point x="688" y="67"/>
      <point x="650" y="73" type="qcurve"/>
      <point x="650" y="-49" type="line"/>
      <point x="592" y="-40" name="inserted"/>
      <point x="479" y="-30"/>
      <point x="422" y="-30" type="qcurve"/>
      <point x="387" y="-30" name="inserted"/>
      <point x="327" y="-43"/>
      <point x="302" y="-55" type="qcurve"/>
      <point x="274" y="-68" name="inserted"/>
      <point x="247" y="-104"/>
      <point x="247" y="-126" type="qcurve"/>
      <point x="247" y="-179" name="inserted"/>
      <point x="386" y="-232"/>
      <point x="526" y="-232" type="qcurve"/>
      <point x="570" y="-232" name="inserted"/>
      <point x="684" y="-219"/>
      <point x="754" y="-206" type="qcurve"/>
      <point x="812" y="-194" name="inserted"/>
      <point x="878" y="-183"/>
      <point x="887" y="-183" type="qcurve"/>
      <point x="892" y="-183" name="inserted"/>
      <point x="896" y="-187"/>
      <point x="896" y="-190" type="qcurve"/>
      <point x="896" y="-220" name="inserted"/>
      <point x="824" y="-268"/>
      <point x="751" y="-286" type="qcurve"/>
      <point x="695" y="-301" name="inserted"/>
      <point x="582" y="-315"/>
      <point x="526" y="-315" type="qcurve"/>
      <point x="443" y="-315" name="inserted"/>
      <point x="306" y="-295"/>
      <point x="252" y="-275" type="qcurve"/>
      <point x="186" y="-250" name="inserted"/>
      <point x="120" y="-175"/>
      <point x="120" y="-126" type="qcurve"/>
      <point x="120" y="-88" name="inserted"/>
      <point x="162" y="-25"/>
      <point x="205" y="2" type="qcurve"/>
      <point x="247" y="27" name="inserted"/>
      <point x="348" y="52"/>
      <point x="406" y="52" type="qcurve"/>
      <point x="444" y="52" name="inserted"/>
      <point x="516" y="48"/>
      <point x="550" y="44" type="qcurve"/>
      <point x="550" y="89" type="line"/>
      <point x="425" y="118" name="inserted"/>
      <point x="283" y="218"/>
      <point x="267" y="290" type="qcurve"/>
      <point x="0" y="290" type="line"/>
      <point x="0" y="364" type="line"/>
      <point x="1027" y="364" type="line"/>
    </contour>
    <contour>
      <point x="835" y="-601" type="line"/>
      <point x="734" y="-651" type="line"/>
      <point x="498" y="-437" type="line"/>
      <point x="601" y="-390" type="line"/>
    </contour>
  </outline>
</glyph>
<glyph name="u0A24_u0A3C" format="1">
  <advance width="1101"/>
  <outline>
    <contour>
      <point x="1120" y="491" type="line"/>
      <point x="973" y="491" type="line"/>
      <point x="970" y="401" name="inserted"/>
      <point x="880" y="277"/>
      <point x="793" y="243" type="qcurve"/>
      <point x="865" y="213" name="inserted"/>
      <point x="938" y="126"/>
      <point x="938" y="70" type="qcurve"/>
      <point x="938" y="19" name="inserted"/>
      <point x="862" y="-57"/>
      <point x="786" y="-80" type="qcurve"/>
      <point x="729" y="-99" name="inserted"/>
      <point x="583" y="-118"/>
      <point x="494" y="-118" type="qcurve"/>
      <point x="433" y="-118" name="inserted"/>
      <point x="306" y="-101"/>
      <point x="241" y="-85" type="qcurve"/>
      <point x="158" y="-64" name="inserted"/>
      <point x="75" y="-10"/>
      <point x="75" y="23" type="qcurve"/>
      <point x="75" y="30" name="inserted"/>
      <point x="86" y="37"/>
      <point x="96" y="37" type="qcurve"/>
      <point x="94" y="37"/>
      <point x="401" y="-35"/>
      <point x="494" y="-35" type="qcurve"/>
      <point x="652" y="-35" name="inserted"/>
      <point x="810" y="21"/>
      <point x="810" y="77" type="qcurve"/>
      <point x="810" y="113" name="inserted"/>
      <point x="733" y="179"/>
      <point x="656" y="208" type="qcurve"/>
      <point x="603" y="198" name="inserted"/>
      <point x="489" y="188"/>
      <point x="428" y="188" type="qcurve"/>
      <point x="330" y="188" name="inserted"/>
      <point x="233" y="217"/>
      <point x="233" y="247" type="qcurve"/>
      <point x="233" y="280" name="inserted"/>
      <point x="333" y="314"/>
      <point x="434" y="314" type="qcurve"/>
      <point x="498" y="314" name="inserted"/>
      <point x="617" y="303"/>
      <point x="671" y="293" type="qcurve"/>
      <point x="757" y="320" name="inserted"/>
      <point x="844" y="419"/>
      <point x="846" y="491" type="qcurve"/>
      <point x="0" y="491" type="line"/>
      <point x="0" y="565" type="line"/>
      <point x="1120" y="565" type="line"/>
    </contour>
    <contour>
      <point x="211" y="-182" type="qcurve"/>
      <point x="211" y="-205"/>
      <point x="162" y="-236"/>
      <point x="128" y="-236" type="qcurve"/>
      <point x="94" y="-236"/>
      <point x="45" y="-205"/>
      <point x="45" y="-182" type="qcurve"/>
      <point x="45" y="-160"/>
      <point x="94" y="-129"/>
      <point x="128" y="-129" type="qcurve"/>
      <point x="162" y="-129"/>
      <point x="211" y="-160"/>
    </contour>
    <contour>
      <point x="1136" y="1248" type="move" name="mark0"/>
    </contour>
    <contour>
      <point x="1376" y="0" type="move" name="mark0"/>
    </contour>
  </outline>
</glyph>
<glyph name="u0A24_u0A3C_u0A4D" format="1">
  <advance width="1101"/>
  <outline>
    <contour>
      <point x="1120" y="290" type="line"/>
      <point x="973" y="290" type="line"/>
      <point x="970" y="200" name="inserted"/>
      <point x="880" y="76"/>
      <point x="793" y="42" type="qcurve"/>
      <point x="865" y="12" name="inserted"/>
      <point x="938" y="-75"/>
      <point x="938" y="-131" type="qcurve"/>
      <point x="938" y="-183" name="inserted"/>
      <point x="862" y="-258"/>
      <point x="786" y="-282" type="qcurve"/>
      <point x="729" y="-300" name="inserted"/>
      <point x="583" y="-319"/>
      <point x="494" y="-319" type="qcurve"/>
      <point x="433" y="-319" name="inserted"/>
      <point x="306" y="-302"/>
      <point x="241" y="-286" type="qcurve"/>
      <point x="158" y="-265" name="inserted"/>
      <point x="75" y="-211"/>
      <point x="75" y="-178" type="qcurve"/>
      <point x="75" y="-171" name="inserted"/>
      <point x="86" y="-164"/>
      <point x="96" y="-164" type="qcurve"/>
      <point x="94" y="-164"/>
      <point x="401" y="-236"/>
      <point x="494" y="-236" type="qcurve"/>
      <point x="652" y="-236" name="inserted"/>
      <point x="810" y="-181"/>
      <point x="810" y="-125" type="qcurve"/>
      <point x="810" y="-88" name="inserted"/>
      <point x="733" y="-22"/>
      <point x="656" y="7" type="qcurve"/>
      <point x="603" y="-3" name="inserted"/>
      <point x="489" y="-13"/>
      <point x="428" y="-13" type="qcurve"/>
      <point x="330" y="-13" name="inserted"/>
      <point x="233" y="16"/>
      <point x="233" y="45" type="qcurve"/>
      <point x="233" y="79" name="inserted"/>
      <point x="333" y="112"/>
      <point x="434" y="112" type="qcurve"/>
      <point x="498" y="112" name="inserted"/>
      <point x="617" y="102"/>
      <point x="671" y="92" type="qcurve"/>
      <point x="757" y="119" name="inserted"/>
      <point x="844" y="218"/>
      <point x="846" y="290" type="qcurve"/>
      <point x="0" y="290" type="line"/>
      <point x="0" y="364" type="line"/>
      <point x="1120" y="364" type="line"/>
    </contour>
    <contour>
      <point x="211" y="-384" type="qcurve"/>
      <point x="211" y="-406"/>
      <point x="162" y="-437"/>
      <point x="128" y="-437" type="qcurve"/>
      <point x="94" y="-437"/>
      <point x="45" y="-406"/>
      <point x="45" y="-384" type="qcurve"/>
      <point x="45" y="-362"/>
      <point x="94" y="-330"/>
      <point x="128" y="-330" type="qcurve"/>
      <point x="162" y="-330"/>
      <point x="211" y="-362"/>
    </contour>
    <contour>
      <point x="835" y="-601" type="line"/>
      <point x="734" y="-651" type="line"/>
      <point x="498" y="-437" type="line"/>
      <point x="601" y="-390" type="line"/>
    </contour>
  </outline>
</glyph>
